<svg xmlns="http://www.w3.org/2000/svg" width="1200" height="1200" viewBox="140 250 500 500"><path fill="#036D78" d="M477 596c1.91.305 1.91.305 4.063.875l2.16.555C485 598 485 598 486 599c.073 9.7-1.945 18.646-4.465 27.93-.534 2.068-.999 4.14-1.441 6.23C474.34 660.22 460.869 684.29 444 706l-2.082 2.71A177.4 177.4 0 0 1 410 740l-3.125 2.383c-22.58 16.845-48.806 29.596-76.555 34.969-2.161.422-4.314.893-6.453 1.421-7.636 1.859-15.168 2.754-22.992 3.414l-2.998.255c-19.562 1.502-39.85.536-58.877-4.442l-3.508-.836c-24.792-6.158-49.493-16.602-69.946-32.002a197 197 0 0 0-4.292-3.111c-1.798-1.287-3.538-2.657-5.254-4.051v-2l-2.25-.75c-2.951-1.341-4.598-2.86-6.75-5.25l1-3c1.987-1.223 1.987-1.223 4.602-2.418l2.9-1.35 3.123-1.42q3.193-1.486 6.383-2.98l3.141-1.47c3.519-1.681 6.93-3.49 10.351-5.362 6.289-3.43 12.709-6.509 19.188-9.562 7.037-3.323 13.829-6.738 20.476-10.786 3.306-1.926 6.71-3.604 10.149-5.277 9.89-4.84 19.387-10.363 28.945-15.82a715 715 0 0 1 9.491-5.265c19.377-10.616 38.118-22.389 56.969-33.902L326 630l2.58-1.681C331 627 331 627 334.353 627.074c4.131 1.049 7.353 2.628 11.023 4.739q1.995 1.107 3.992 2.207c.632.348 1.263.697 1.913 1.057 2.03 1.09 4.096 2.03 6.22 2.923 4.209 1.791 8.218 3.909 12.25 6.063.958.51.958.51 1.936 1.033 2.746 1.478 5.455 2.99 8.123 4.607 2.099 1.243 3.807 1.855 6.191 2.297-.105 1.734-.105 1.734-1 4a66 66 0 0 1-6.312 4.25q-1.947 1.203-3.891 2.41l-1.963 1.204c-2.504 1.551-4.952 3.18-7.397 4.823a1459 1459 0 0 1-11.82 7.856l-2.892 1.91q-2.886 1.905-5.78 3.8l-2.675 1.77-2.42 1.592c-1.976 1.264-1.976 1.264-2.85 3.385 6.905-4.055 13.613-8.335 20.25-12.812 6.01-4.032 12.023-8.048 18.125-11.938 5.345-3.41 10.617-6.913 15.878-10.45 4.542-3.037 9.157-5.936 13.81-8.8 5.67-3.501 11.132-7.198 16.52-11.118 4.602-3.336 9.3-6.501 14.042-9.632 10.859-7.18 21.488-14.681 32.121-22.189l2.723-1.916 2.482-1.751C475 597 475 597 477 596"/><path fill="#107BA5" d="m358 398 2.301.85c11.871 4.411 22.856 9.608 33.699 16.15v2l1.594.195c3.488 1.167 6.071 3.41 8.906 5.68l3.406 2.68L411 428l2.406 1.695L415 431v2c3.856.22 6.492-.396 10-2-1.528-2.75-2.953-4.953-5.187-7.187L418 422v-2q6.297-1.505 12.598-2.99 2.142-.508 4.283-1.02 3.081-.734 6.166-1.459l3.745-.888C448 413 448 413 452 413c-.615 11.436-2.294 22.686-4 34-4.266-2.04-6.734-4.586-10-8-3.38 1.449-5.459 3.373-8 6l1.363 1.258c16.994 16.278 30.08 37.2 39.825 58.492l.957 2.023c.835 1.899.835 1.899 1.855 5.227-.453 2.098-.453 2.098-2 4a131 131 0 0 1-5.937 5.688l-1.773 1.611c-5.276 4.762-10.746 9.255-16.29 13.701q-1.86 1.527-3.715 3.059A931 931 0 0 1 432 550l-2.101 1.672a473 473 0 0 1-6.087 4.703c-.61.483-1.222.965-1.852 1.462-1.753 1.311-1.753 1.311-4.96 3.163-3.485.114-6.01-1.464-9.04-3.04a508 508 0 0 1-4.585-2.585l-2.452-1.384A324 324 0 0 1 383 543q-2.152-1.38-4.305-2.758c-11.445-7.345-22.648-15-33.78-22.808A437 437 0 0 0 334 510l1-3c1.512-1.16 1.512-1.16 3.473-2.277l2.201-1.287 2.389-1.373c8.439-5.003 16.22-10.55 23.97-16.551a412 412 0 0 1 5.96-4.48c8.959-6.631 17.653-13.535 26.265-20.61 2.35-1.919 4.733-3.795 7.117-5.672 5.066-4.045 9.847-8.371 14.625-12.75l3.262-2.945 3.3-2.993 1.592-1.432c2.805-2.51 2.805-2.51 4.846-5.63-4.779 1.912-8.738 4.07-13 7l-3.25 1.813c-6.032 3.392-11.865 7.277-16.75 12.187-15.017 11.86-30.88 22.747-46.724 33.46q-3.372 2.284-6.737 4.58l-4.101 2.772-1.896 1.294c-1.49 1-3.014 1.952-4.542 2.894h-2v2c-1.504 1.324-1.504 1.324-3.562 2.688l-2.004 1.386c-2.434.926-2.434.926-5.579.836-4.952-1.169-9.35-3.078-13.98-5.16q-2.813-1.237-5.629-2.469l-2.735-1.199c-4.088-1.762-8.237-3.331-12.406-4.893a284 284 0 0 1-8.515-3.435 2654 2654 0 0 0-24.075-9.927c-9.682-3.943-19.396-7.742-29.263-11.203a225 225 0 0 1-12.979-5.019c-6.717-2.831-13.543-5.316-20.398-7.793q-3.949-1.438-7.895-2.882l-2.001-.733a1914 1914 0 0 1-20.792-7.76l-3.377-1.264-3.08-1.177-2.706-1.026L152 435l-1-2c24.408-18.534 53.013-37.344 84-42a91 91 0 0 1 8.25 1.875l2.474.668c11.307 3.169 22.3 7.307 33.276 11.457l2.38.896a216 216 0 0 1 22.058 9.8c4.006 2.04 8.138 3.725 12.3 5.417 4.956 2.034 9.814 4.114 14.575 6.575 3.826 1.962 7.519 3.211 11.687 4.312 2.37.933 4.676 1.957 7 3v2l3.387.73c5.087 1.275 9.684 3.374 14.426 5.582l2.65 1.215q2.594 1.188 5.182 2.385c3.028 1.399 6.066 2.775 9.105 4.15L388 453v-2l-2.355-.695c-4.824-1.727-9.352-3.944-13.957-6.18-5.88-2.84-11.769-5.628-17.746-8.258-2.396-1.07-4.733-2.232-7.067-3.43-16.325-8.203-32.887-15.852-49.562-23.312l-2.48-1.11c-13.352-5.974-26.515-11.836-40.577-15.95l-2.424-.733-2.165-.634L248 390l-1-2c37.742-6.018 75.1-3.6 111 10"/><path fill="#11659C" d="M144 440c7.099.284 13.557 3.247 20.125 5.75l3.477 1.305c7.815 2.94 15.608 5.939 23.398 8.945v2l3.563.688c11.478 2.558 22.516 7.03 33.437 11.312q1.935.724 3.875 1.438c2.399.89 4.769 1.826 7.137 2.796 7.794 3.19 15.649 6.087 23.613 8.829 21.527 7.414 21.527 7.414 28.938 11.187 2.668 1.358 4.592 2.127 7.437 2.75v2l2.012-.219c4.1.3 7.154 1.911 10.8 3.719l2.1 1.012c1.7.82 3.395 1.653 5.088 2.488-2.77 2.947-5.53 5.133-8.973 7.25l-2.944 1.824-3.146 1.926-6.578 4.066c-1.084.67-2.17 1.339-3.287 2.028a859 859 0 0 0-10.175 6.431c-17.294 11.052-35.058 21.403-52.924 31.501-3.622 2.047-7.225 4.105-10.758 6.302L217 569.313l-2.625 1.675L212 572c-3.622-.489-6.806-1.603-10.184-2.969l-3.024-1.216-3.23-1.315-3.384-1.366c-7.842-3.17-15.67-6.376-23.494-9.588a3163 3163 0 0 0-24.246-9.796l-1.895-.76a1486 1486 0 0 0-22.627-8.866C109.974 532.293 100.469 527.86 91 523c1.911-8.096 4.69-15.396 8.313-22.875l1.583-3.275c8.228-16.566 18.71-31.183 31.104-44.85q1.973-2.31 3.938-4.625c5.02-5.626 5.02-5.626 8.062-7.375"/><path fill="#107BA5" d="M89 528c7.834 2.144 15.255 5.012 22.75 8.125l7.152 2.945 3.594 1.486q4.967 2.045 9.945 4.061l3.011 1.222q2.784 1.13 5.569 2.255c3.5 1.426 6.915 2.874 10.295 4.57 2.452 1.22 4.671 2.013 7.309 2.711 3.75 1.067 7.281 2.366 10.863 3.902 7.786 3.286 15.686 6.256 23.592 9.237l3.361 1.279 3.022 1.141C202 572 202 572 205 574c1.8.583 3.615 1.118 5.438 1.625 8.548 2.555 16.717 5.968 24.974 9.332 4.928 1.986 9.89 3.886 14.852 5.784 3.326 1.282 6.592 2.572 9.736 4.259-.205 2.3-.205 2.3-1 5-2.031 1.694-2.031 1.694-4.715 3.2l-2.994 1.71-3.228 1.778-3.282 1.859c-3.25 1.836-6.513 3.648-9.781 5.453l-2.754 1.526c-6.44 3.567-6.44 3.567-9.396 5.185-4.595 2.53-8.982 5.228-13.221 8.328L208 630h-3v2a162 162 0 0 1-7.812 4.875q-2.5 1.496-4.997 2.996l-2.612 1.566c-4.024 2.439-7.987 4.97-11.954 7.5-15.238 9.673-30.787 18.816-46.437 27.802a1129 1129 0 0 0-6.348 3.69l-3.778 2.196-3.277 1.914c-2.336 1.226-4.21 2.002-6.785 2.461-19.367-32.647-29.433-67.95-30.011-105.936.064-17.65 2.034-36.36 8.011-53.064"/><path fill="#0E3A67" d="M986 474c2.098-.105 4.2-.139 6.301-.145l1.997-.01q3.293-.013 6.585-.013l4.596-.01q4.84-.009 9.68-.007c4.093 0 8.187-.014 12.28-.031q4.763-.015 9.524-.013 2.259 0 4.518-.013c12.848-.06 26.015.317 38.207 4.805l2.134.773c8.468 3.28 15.804 8.368 21.553 15.476 5.945 8.882 9.682 17.5 10.625 28.188l.215 2.227c.5 10.682-2.544 21.405-7.227 30.894L1106 558h-2l-.781 2.25c-2.03 4.582-5.381 7.602-9.219 10.75-3.224 1.957-6.542 3.503-10 5l-3.25 1.625c-10.434 3.826-21.788 5.554-32.871 5.473l-2.004-.003c-2.438-.006-4.875-.02-7.312-.033L1022 583v37h-37q-.035-28.333-.052-56.665-.007-13.155-.023-26.309-.015-11.46-.02-22.922 0-6.073-.01-12.145-.01-5.709-.008-11.418 0-2.1-.006-4.202-.006-2.858-.001-5.714l-.003-3.237L985 475z"/><path fill="#20978B" d="M334.352 627.074c4.131 1.049 7.353 2.628 11.023 4.739q1.995 1.107 3.992 2.207l1.913 1.057c2.03 1.09 4.096 2.03 6.22 2.923 4.209 1.791 8.218 3.909 12.25 6.063.958.51.958.51 1.936 1.033 2.746 1.478 5.455 2.99 8.123 4.607 2.099 1.243 3.807 1.855 6.191 2.297-.105 1.734-.105 1.734-1 4a66 66 0 0 1-6.312 4.25q-1.947 1.203-3.891 2.41l-1.963 1.204c-2.504 1.551-4.952 3.18-7.397 4.823a1459 1459 0 0 1-11.82 7.856l-2.892 1.91q-2.886 1.905-5.78 3.8l-2.675 1.77-2.42 1.592c-1.976 1.264-1.976 1.264-2.85 3.385 8.581-4.967 16.785-10.458 25-16l2 1c-3.835 5.098-8.005 8.384-13.312 11.875l-2.245 1.508A893 893 0 0 1 343 691l2.938 1.469L387 713l-3 1c-1.636-.648-3.267-1.311-4.863-2.05-2.406-1.07-4.843-1.948-7.324-2.825a231 231 0 0 1-11.688-4.562 549 549 0 0 0-13.062-5.313l-3.153-1.234c-3.877-1.382-3.877-1.382-7.91-2.016-3.018 1.438-3.018 1.438-6.05 3.672l-1.733 1.193a589 589 0 0 0-5.53 3.885 2100 2100 0 0 1-3.807 2.643q-3.75 2.602-7.485 5.227c-4.21 2.957-8.458 5.856-12.707 8.755A793 793 0 0 0 285 731a369 369 0 0 0 30.255 14.03l2.616 1.087 2.342.957L322 748l1 2c-2.187.625-2.187.625-5 1-2.187-.75-2.187-.75-5-2q-2.215-.639-4.437-1.246c-7.128-2.104-13.738-5.337-20.436-8.522l-2.959-1.345-2.648-1.244c-2.517-.863-2.517-.863-5.001.034a124 124 0 0 0-7.992 4.596l-3.198 1.984-3.392 2.118q-3.51 2.178-7.023 4.352l-1.772 1.098a1296 1296 0 0 1-16.33 9.925l-2.404 1.443q-2.195 1.313-4.398 2.614a210 210 0 0 0-3.9 2.37c-3.706 2.258-6.754 3.612-11.11 3.823-4.538-1.055-8.753-3.108-13-5l-2.589-1.144c-12.4-5.538-23.941-11.539-34.832-19.678a222 222 0 0 0-4.333-3.131c-1.795-1.286-3.532-2.654-5.246-4.047v-2l-2.25-.75c-2.951-1.341-4.598-2.86-6.75-5.25l1-3c1.987-1.223 1.987-1.223 4.602-2.418l2.9-1.35 3.123-1.42q3.193-1.486 6.383-2.98l3.141-1.47c3.519-1.681 6.93-3.49 10.351-5.362 6.289-3.43 12.709-6.509 19.188-9.562 7.037-3.323 13.829-6.738 20.476-10.786 3.306-1.926 6.71-3.604 10.149-5.277 9.89-4.84 19.387-10.363 28.945-15.82a715 715 0 0 1 9.491-5.265c19.377-10.616 38.118-22.389 56.969-33.902L326 630l2.58-1.681C331 627 331 627 334.353 627.074"/><path fill="#0E3A67" d="M868 474q7.608-.111 15.216-.165a822 822 0 0 0 5.177-.061c2.48-.037 4.959-.054 7.439-.067.772-.015 1.544-.03 2.34-.047 2.183 0 2.183 0 5.828.34 1.933 1.34 1.933 1.34 3 3a98 98 0 0 1 2.438 6.188c1.42 3.866 2.854 7.562 4.812 11.187 1.873 3.55 2.418 6.636 2.75 10.625h2l.793 3.086c1.078 3.77 2.686 7.067 4.52 10.539 2.946 5.691 5.34 11.453 7.566 17.469 1.223 3.17 2.657 6.148 4.223 9.16 2.292 4.455 4.017 9.082 5.648 13.808 2.088 5.898 4.905 11.275 7.86 16.774 1.35 3.074 1.711 4.866 1.39 8.164h2c10.233 24.623 10.233 24.623 14 36q-7.82.185-15.643.275-2.662.037-5.323.102c-2.55.06-5.097.09-7.647.111l-2.406.078c-2.244.002-2.244.002-5.981-.566-5.067-8.445-8.27-17.884-12-27h-64l-9 23-2 4h-38c2.777-7.22 5.43-14.093 8.656-21.051 2.452-5.379 4.722-10.837 7.019-16.283q2.304-5.457 4.614-10.912l.943-2.229A4220 4220 0 0 1 835.438 548c3.739-8.698 7.42-17.412 10.964-26.191 1.24-3.018 2.58-5.981 3.942-8.946 3.403-7.434 6.511-14.99 9.638-22.543l1.397-3.336 1.236-2.977c1.601-3.477 3.447-6.707 5.385-10.007M570 474q7.82-.185 15.643-.275 2.662-.038 5.323-.102c2.55-.06 5.097-.09 7.647-.111l2.406-.078c2.244-.002 2.244-.002 5.981.566 2.012 2.355 2.012 2.355 3 5 .188 2.813.188 2.813 0 5h2l1.242 3.36 1.633 4.39.816 2.21c1.068 2.865 2.107 5.647 3.504 8.368C620 504 620 504 620 507h2q1.476 3.34 2.938 6.688l.841 1.896c1.505 3.463 2.61 6.694 3.221 10.416a511 511 0 0 0 2 7h2q2.128 4.936 4.25 9.875c.396.918.791 1.836 1.2 2.781 2.299 5.353 4.529 10.725 6.665 16.145 1.155 2.87 2.412 5.69 3.682 8.511 1.61 3.596 3.187 7.204 4.765 10.813A3758.477 3758.477 0 0 1 657 589l1.527 3.488c1.886 4.496 3.559 9.057 5.223 13.639 1.178 3.192 2.41 6.193 3.938 9.244C669 618 669 618 669 620h-38l-11-27-65-1-1 5a141 141 0 0 1-2.312 5.688c-2.321 5.41-4.499 10.839-6.688 16.312l-38 1a161 161 0 0 1 5.09-13.328l.91-2.115q.964-2.241 1.933-4.481 2.558-5.926 5.106-11.857l1.03-2.395c2.945-6.845 5.85-13.707 8.744-20.574a2110 2110 0 0 1 11.267-26.191c4.23-9.702 8.304-19.467 12.367-29.24C558.519 497.637 564.038 485.77 570 474M778.563 478.438c10.815 4.895 10.815 4.895 14.437 7.562l1 3c-.573 1.79-.573 1.79-1.547 3.766l-1.062 2.199-1.141 2.285q-1.088 2.226-2.172 4.453l-1.064 2.174c-1.434 3.003-2.73 6.053-4.014 9.123-5.006-.516-8.768-1.612-13.25-3.875-11.85-5.68-23.64-7.79-36.75-7.125-4.48.532-8.013 1.433-11.937 3.688-2.253 2.294-2.253 2.294-3.563 5.625-.738 3.714-.738 3.714.438 7.375 1.864 3.454 1.864 3.454 5.062 5.5 10.375 5.093 21.608 7.559 32.793 10.167 12.236 2.943 22.125 7.742 32.457 14.895 4.105 4.105 7.44 9.084 9.406 14.586 1.463 9.209 1.093 20.269-1.656 29.164-3.211 7.25-7.552 13.237-13.937 18-11.203 7.848-23.672 10.61-37.063 12-18.12 1.342-36.668-2.484-53.181-9.992-12.211-5.9-12.211-5.9-16.819-11.008 4.13-9.11 8.48-18.08 13-27 3.882.638 6.508 2.527 9.75 4.688 10.302 6.605 23.271 11.996 35.617 12.648 11.228.243 11.228.243 21.84-3.07 2.062-1.315 2.062-1.315 3.918-4.141.94-3.36 1.39-5.665.875-9.125-1.554-2.72-3.075-4.415-5.73-6.094-7.368-3.882-15.386-6.003-23.427-7.998-15.589-3.868-30.275-7.652-42.605-18.451-4.136-4.22-6.357-9.337-8.324-14.852-2.003-7.9-1.82-16.09.211-23.98 1.797-5.102 4.638-9.328 7.875-13.625l2.313-3.187c6.053-6.336 13.409-10.148 21.687-12.813l2.762-.91c20.511-5.533 44.177-3.413 63.8 4.348"/><path fill="#3AAD99" d="M330 513c1.95 1.003 1.95 1.003 3.828 2.422l2.145 1.59 2.277 1.738q2.442 1.81 4.887 3.617l2.482 1.855c15.986 11.937 32.82 22.287 50.205 32.071l2.692 1.523q2.49 1.403 5 2.772c1.876 1.055 3.69 2.223 5.484 3.412v3c-2.1 1.56-4.14 2.91-6.375 4.25q-1.928 1.191-3.852 2.387l-1.934 1.196c-3.42 2.17-6.679 4.565-9.948 6.952L385 583h-2v2c-5.75 3-5.75 3-8 3v2a130 130 0 0 1-6.832 4.762l-2.14 1.42c-2.276 1.509-4.558 3.007-6.84 4.505q-2.246 1.487-4.49 2.975a1439 1439 0 0 1-8.716 5.726 336 336 0 0 0-7.335 4.915l-2.909 1.967-2.448 1.694C331 619 331 619 328.467 618.817c-2.475-.82-4.452-1.808-6.674-3.165-4.666-2.686-9.377-4.425-14.48-6.09-6.849-2.316-13.486-4.842-20.102-7.765-5.964-2.589-12.033-4.925-18.086-7.297l-3.72-1.458c-6.452-2.52-12.912-5.009-19.405-7.417a386 386 0 0 1-16.227-6.457c-4.233-1.783-8.502-3.477-12.773-5.168 3.11-3.51 6.44-5.42 10.625-7.375 15.993-7.74 31.56-16.39 47.008-25.16 3.545-2.01 7.107-3.988 10.672-5.961l3.46-1.916 5.31-2.937c5.946-3.285 11.87-6.59 17.71-10.061l2.63-1.56q2.39-1.425 4.762-2.881l2.128-1.27 1.812-1.107c2.468-1.012 4.235-1.056 6.883-.772"/><path fill="#21988C" d="M262 597c4.215.58 7.825 1.567 11.754 3.188l3.31 1.355 3.498 1.457 3.613 1.49q5.418 2.244 10.825 4.51l3.2 1.335q4.28 1.792 8.55 3.602l2.537 1.069A114 114 0 0 1 323 622c-2.976 4.182-5.945 6.453-10.383 8.996l-1.861 1.079a914 914 0 0 1-5.881 3.362q-1.943 1.117-3.883 2.237a2568 2568 0 0 1-5.7 3.279c-5.14 2.947-10.224 5.979-15.292 9.047-14.464 8.694-29.22 16.86-44 25-.988.545-1.975 1.09-2.993 1.65-12.157 6.7-24.404 13.207-36.726 19.6a1012 1012 0 0 0-13.219 7c-6.267 3.364-12.605 6.57-18.984 9.715a335 335 0 0 0-8.469 4.351l-2.18 1.14q-2.066 1.079-4.114 2.194c-2.748 1.424-4.858 2.353-7.98 2.33-7.42-3.114-12.968-11.573-17.773-17.855A733 733 0 0 1 119 699l-3-4c.697-1.806.697-1.806 2-4 2.16-1.58 2.16-1.58 4.848-3.102l2.996-1.718 3.219-1.805 6.62-3.79 3.285-1.863c13.37-7.593 26.372-15.685 39.313-23.985 3.41-2.179 6.836-4.332 10.264-6.485 6.502-4.083 12.959-8.217 19.33-12.502 14.068-9.448 28.67-18.02 43.75-25.75l3.29-1.687c3.071-1.307 5.781-1.916 9.085-2.313z"/><path fill="#13959B" d="m433 431 2 1c1 3.25 1 3.25 1 7-1.79 2.205-3.606 3.388-6 5l2.313 2.688 1.664 1.953c1.482 1.729 2.98 3.446 4.484 5.156 13.416 15.368 24.229 32.413 32.726 50.953l.959 2.023c.834 1.899.834 1.899 1.854 5.227-.453 2.098-.453 2.098-2 4a131 131 0 0 1-5.937 5.688l-1.773 1.611c-5.276 4.762-10.746 9.255-16.29 13.701q-1.86 1.527-3.715 3.059A931 931 0 0 1 432 550l-2.101 1.672a473 473 0 0 1-6.087 4.703c-.61.483-1.222.965-1.852 1.462-1.753 1.311-1.753 1.311-4.96 3.163-3.485.114-6.01-1.464-9.04-3.04a508 508 0 0 1-4.585-2.585l-2.452-1.384A324 324 0 0 1 383 543q-2.152-1.38-4.305-2.758c-11.445-7.345-22.648-15-33.78-22.808A437 437 0 0 0 334 510l1-3c1.512-1.16 1.512-1.16 3.473-2.277l2.201-1.287 2.389-1.373c8.439-5.003 16.22-10.55 23.97-16.551a412 412 0 0 1 5.96-4.48c8.959-6.631 17.653-13.535 26.265-20.61 2.35-1.919 4.733-3.795 7.117-5.672 5.066-4.044 9.851-8.367 14.625-12.75l3.297-3.016q4.356-3.987 8.703-7.984"/><path fill="#11669D" d="M254.294 396.079C262.58 398.914 270.8 401.924 279 405l2.53.948a212 212 0 0 1 21.908 9.747c3.13 1.594 6.313 2.97 9.562 4.305l6.125 2.563A704 704 0 0 0 330 427l-1 2-2.613 1.293c-3.9 1.966-7.127 4.362-10.574 7.02l-4.208 3.19-2.24 1.705c-4.229 3.205-8.48 6.378-12.74 9.542l-2.505 1.88-2.33 1.73-2.073 1.545L288 458h-2v2a113 113 0 0 1-6.375 4.625l-1.828 1.273c-1.571 1.076-3.182 2.093-4.797 3.102h-2v2a375 375 0 0 1-6 4l-1 2c-6.47-1.735-12.632-3.99-18.83-6.524-5.986-2.436-12.04-4.666-18.12-6.852a261 261 0 0 1-12.75-5.015c-6.727-2.828-13.562-5.318-20.425-7.796q-3.949-1.439-7.895-2.883l-2.001-.733a1914 1914 0 0 1-20.791-7.76l-3.378-1.264-3.08-1.177-2.706-1.026L152 435l-1-2c28.565-21.69 66.534-48.958 103.294-36.921"/><path fill="#138BB3" d="M260.801 482.474c4.856 1.162 9.483 3.053 14.137 4.839l3.17 1.185c4.57 1.732 9.044 3.502 13.396 5.732 2.692 1.363 4.63 2.144 7.496 2.77v2l2.012-.219c4.1.3 7.154 1.911 10.8 3.719l2.1 1.012c1.7.82 3.395 1.653 5.088 2.488-2.77 2.947-5.53 5.133-8.973 7.25l-2.944 1.824-3.145 1.926-6.579 4.066c-1.084.67-2.17 1.339-3.287 2.028a859 859 0 0 0-10.175 6.431c-17.294 11.052-35.058 21.403-52.924 31.501-3.622 2.047-7.225 4.105-10.758 6.302L217 569.313l-2.625 1.675L212 572c-3.65-.49-6.852-1.623-10.254-3.004l-3.063-1.235-3.245-1.323-6.72-2.715-3.398-1.379a3280 3280 0 0 0-14.882-5.969l-4.942-1.977L162 553v-4c5.416-5.845 12.974-10.11 19.555-14.585 7.498-5.101 14.828-10.426 22.163-15.758 3.755-2.727 7.519-5.441 11.282-8.157l4.473-3.23a38161 38161 0 0 1 16.236-11.72 1011 1011 0 0 0 9.76-7.109l2.969-2.191 2.496-1.86c3.401-2.289 5.88-2.572 9.867-1.916"/><path fill="#0C8384" d="M417 569c2.766.34 2.766.34 6 2l2.413 1.212a487 487 0 0 1 8.65 4.538c11.057 5.832 21.932 11.509 33.89 15.293L470 593l1 3-1.766 1.202a7907 7907 0 0 0-34.335 23.492 3093 3093 0 0 1-5.84 4.005 1985 1985 0 0 0-25.22 17.574l-1.953 1.363a70 70 0 0 0-3.69 2.861c-1.692 1.366-3.255 2.522-5.196 3.503-5.033.109-8.73-1.63-13.048-3.982l-2.14-1.206q-2.274-1.244-4.55-2.484l-2.221-1.22c-2.607-1.415-5.254-2.739-7.916-4.045-8.462-4.184-16.783-8.646-25.125-13.063v-2c2.2-1.506 4.4-2.887 6.688-4.25 10.302-6.29 20.307-13 30.312-19.75l3.104-2.094q4.826-3.262 9.646-6.531l3.19-2.156c4.805-3.26 9.563-6.555 14.212-10.035l2.347-1.738a201 201 0 0 0 4.201-3.22c1.874-1.394 1.874-1.394 5.3-3.226"/><path fill="#107CA6" d="M331.383 428.418c6.139 1.723 11.881 3.792 17.617 6.582v2l3.395.73c5.052 1.266 9.592 3.373 14.293 5.582 7.676 3.538 15.363 6.801 23.312 9.688v2h2v2a164 164 0 0 1-7.437 5.375l-4.708 3.266-2.447 1.69a893 893 0 0 0-8.925 6.294C360.1 479.588 351.588 485.336 343 491l-1.686 1.168A141 141 0 0 1 337 495h-2v2c-1.504 1.324-1.504 1.324-3.562 2.688l-2.004 1.386c-2.434.926-2.434.926-5.579.836-4.952-1.169-9.35-3.078-13.98-5.16q-2.813-1.237-5.629-2.469l-2.735-1.199c-4.151-1.789-8.366-3.378-12.597-4.969-4.05-1.547-8.04-3.229-12.035-4.91-4.273-1.785-8.574-3.498-12.879-5.203.379-1.89.379-1.89 1-4 1.938-1.75 1.938-1.75 4-3h2v-2c2.266-1.656 2.266-1.656 5.25-3.5l2.953-1.844c2.235-1.323 4.454-2.54 6.797-3.656v-2c1.602-1.229 1.602-1.229 3.848-2.629 5.42-3.495 10.49-7.366 15.59-11.308 21.311-16.458 21.311-16.458 25.945-15.645"/><path fill="#0F4F86" d="M209 464c4.425.598 8.233 1.72 12.375 3.375l3.469 1.371L228 470q1.934.726 3.875 1.438c6.423 2.393 12.765 5.005 19.125 7.562l5 2v2l-2.98 1.629c-4.332 2.478-8.314 5.358-12.333 8.308l-4.8 3.497-2.46 1.796c-3.799 2.77-7.613 5.52-11.427 8.27l-4.5 3.25-9 6.5-2.251 1.626-4.49 3.242a21532 21532 0 0 0-16.009 11.57l-2.248 1.626c-3.536 2.555-7.078 5.1-10.639 7.62l-1.95 1.382a979 979 0 0 1-3.588 2.527c-2.67 1.89-5.053 3.81-7.325 6.157l-2.548-1.022a24109 24109 0 0 0-13.654-5.474l-3.982-1.596q-1.984-.794-3.967-1.593a329 329 0 0 0-9.668-3.72l-3.544-1.302-3.154-1.128L117 535l-2-3 3.043-1.176c4.189-1.794 7.644-4.282 11.27-7.011 2.205-1.65 4.42-3.246 6.687-4.813h2v-2c1.852-1.418 1.852-1.418 4.625-3.187l3.316-2.16 1.923-1.251c16.346-10.727 32.19-22.103 47.769-33.91l2.23-1.687a855 855 0 0 0 4.152-3.163c2.647-2.009 4.809-3.583 7.985-4.642z"/><path fill="#108695" d="M363 538c4.124 1.296 7.703 3.478 11.41 5.668l1.843 1.085q2.907 1.713 5.81 3.434l5.714 3.37q1.875 1.107 3.748 2.22a338 338 0 0 0 9.084 5.23l3.325 1.856 2.966 1.623L409 564v3c-2.1 1.56-4.14 2.91-6.375 4.25q-1.928 1.191-3.852 2.387l-1.934 1.196c-3.42 2.17-6.679 4.565-9.948 6.952L385 583h-2v2c-5.75 3-5.75 3-8 3v2a130 130 0 0 1-6.832 4.762l-2.14 1.42c-2.276 1.509-4.558 3.007-6.84 4.505q-2.246 1.487-4.49 2.975a1439 1439 0 0 1-8.716 5.726 336 336 0 0 0-7.335 4.915l-2.909 1.967-2.448 1.694C331 619 331 619 328.467 618.817c-2.475-.82-4.452-1.808-6.674-3.165-4.665-2.686-9.376-4.426-14.48-6.09-7.385-2.488-14.542-5.232-21.66-8.398-2.678-1.223-2.678-1.223-5.653-2.164v-2l1.59-.453c9.613-3.263 17.33-9.59 25.41-15.547q2.43-1.774 4.863-3.547c12.6-9.21 24.986-18.657 37.137-28.453q2.686-2.157 5.375-4.312l2.398-1.926L359 541l1.977-1.855z"/><path fill="#20978B" d="m269 664 3 1v2l2.103.336c3.297.756 6.145 1.935 9.245 3.289l1.834.797q2.942 1.283 5.88 2.578l4.055 1.77C323.06 687.99 323.06 687.99 331 692c-9.297 6.866-18.747 13.512-28.25 20.087-2.834 1.971-5.649 3.968-8.465 5.964q-2.797 1.945-5.598 3.886l-2.62 1.884c-2.314 1.584-4.524 2.997-7.067 4.179-5.631.16-10.403-2.236-15.437-4.562l-2.217-.999A806 806 0 0 1 256 720v3a141 141 0 0 1-4.668-2.46c-10.777-5.88-21.827-11.14-32.922-16.39A383 383 0 0 1 210 700c.246-1.828.246-1.828 1-4 5.555-4.585 12.738-7.386 19.184-10.54 8.342-4.132 16.388-8.793 24.468-13.41l2.719-1.544a351 351 0 0 0 5.215-3.048l2.418-1.415 2.123-1.269z"/><path fill="#072755" d="M726 527c7.901 1.682 15.728 3.64 23.546 5.667q2.256.58 4.517 1.145c12.836 3.21 24.416 7.327 34.738 15.97 3.962 3.997 6.97 8.72 8.84 14.042 1.516 9.181 1.1 20.305-1.641 29.176-3.211 7.25-7.552 13.237-13.937 18-11.203 7.848-23.672 10.61-37.063 12-18.12 1.342-36.668-2.484-53.181-9.992-12.211-5.9-12.211-5.9-16.819-11.008 4.13-9.11 8.48-18.08 13-27 3.882.638 6.508 2.527 9.75 4.688 10.302 6.605 23.271 11.996 35.617 12.648 11.228.243 11.228.243 21.84-3.07 2.062-1.315 2.062-1.315 3.918-4.141.94-3.36 1.39-5.665.875-9.125-1.554-2.72-3.075-4.415-5.73-6.094-7.368-3.882-15.386-6.003-23.427-7.998-30.03-7.452-30.03-7.452-40.843-16.908-3.3-3.287-6.273-6.622-8-11l1-3v2h2c1.625 2.375 1.625 2.375 3 5v2l1.75.75C692 542 692 542 693.938 544c2.242 2.175 4.124 3.02 7.062 4v2l3.5.75c6.545 1.453 13.038 3.116 19.537 4.756 2.84.715 5.683 1.416 8.525 2.119l2.91.738c2.004.505 4.015.982 6.028 1.45 6.508 2.208 12.782 5.375 18.5 9.187v2h2c1.625 2 1.625 2 3 5 .333 5.159-.152 9.915-1 15h4v3h2v-2c2.813-1.562 2.813-1.562 6-3l3 1a177 177 0 0 0 4-2c1.991-.383 3.991-.726 6-1l-1-5h2c2.043-6.13 1.127-12.269-.062-18.5-1.345-5.14-2.775-9.354-6.305-13.379C771.676 540.488 755.585 536.7 741 533q-3.283-.837-6.562-1.687l-2.38-.575c-2.407-.863-4.092-2.12-6.058-3.738"/><path fill="#062755" d="m919 512 3 1c1.195 2.082 1.195 2.082 2.34 4.813l1.283 3.011 1.314 3.176 2.59 6.125 1.262 3.01c2.307 5.457 4.747 10.852 7.211 16.24 1.443 3.226 2.663 6.471 3.813 9.813 2.057 5.858 4.864 11.19 7.796 16.648 1.351 3.074 1.712 4.866 1.391 8.164h2c10.233 24.623 10.233 24.623 14 36q-7.82.185-15.643.275-2.662.037-5.323.102c-2.55.06-5.097.09-7.647.111l-2.406.078c-2.244.002-2.244.002-5.981-.566-5.067-8.445-8.27-17.884-12-27h-64l-9 23-2 4h-38c2.772-7.208 5.418-14.066 8.638-21.012 2.536-5.564 4.888-11.208 7.267-16.84a5041 5041 0 0 1 2.774-6.548 1971 1971 0 0 0 7.942-18.944l1.116-2.699a679 679 0 0 0 1.954-4.789c.72-1.744 1.507-3.46 2.309-5.168l2-1c-1.445 10.178-4.241 20.218-8.117 29.746-1.41 3.6-1.883 7.395-1.883 11.254 3.742.765 6.339 1.046 10 0l2 1c2 .04 4 .043 6 0l-1 2 2.875-1.062L852 585l2 1c1.602.062 3.207.058 4.81.022l3.037-.061 3.301-.082 3.403-.072q5.412-.116 10.824-.245 5.358-.119 10.717-.234 3.336-.072 6.672-.15l3.132-.07 3.038-.07c4.197-.052 8.39.038 12.587.148 2.733-.001 2.733-.001 5.479-2.186 3.5-1.687 3.5-1.687 7-3l3 1 2-2c2.125.375 2.125.375 4 1l1-2h3l-1-2.562c-1.061-3.648-1.151-6.66-1-10.438h-2l-3-12-.66-2.266L933 549l1-2-2-1c-.638-2.305-1.02-4.615-1.437-6.969L930 537l-2-1a88 88 0 0 1-2.437-5.562l-1.325-3.286L923 524l-.957-2.434c-1.212-3.159-2.264-6.276-3.043-9.566"/><path fill="#0C8384" d="M331 627c5.68.358 9.563 2.045 14.375 4.813q1.995 1.107 3.992 2.207l1.913 1.057c2.03 1.09 4.096 2.03 6.22 2.923 4.209 1.791 8.218 3.909 12.25 6.063.958.51.958.51 1.936 1.033 2.746 1.478 5.455 2.99 8.123 4.607 2.099 1.243 3.807 1.855 6.191 2.297-.105 1.734-.105 1.734-1 4a66 66 0 0 1-6.312 4.25q-1.947 1.203-3.891 2.41l-1.963 1.204c-3.484 2.158-6.867 4.467-10.268 6.753a977 977 0 0 1-8.914 5.89l-2.878 1.897a1442 1442 0 0 1-5.741 3.76l-2.666 1.762-2.403 1.575c-2.213 1.52-2.213 1.52-3.964 4.499h-3l-1.227-1.293c-2.623-2.525-5.832-3.643-9.148-5.02q-2.197-.935-4.39-1.875l-2.194-.933c-2.745-1.182-5.457-2.43-8.166-3.692l-3.105-1.437q-3.192-1.48-6.378-2.969-4.41-2.055-8.83-4.093l-2.873-1.35c-4.56-2.097-8.622-3.89-13.689-4.338 2.558-2.882 5.466-4.573 8.793-6.484l3.567-2.065 1.893-1.088c13.458-7.743 26.672-15.814 39.777-24.142C329 628 329 628 331 627"/><path fill="#0F4E85" d="M260 399a60 60 0 0 1 9.914 2.672l2.79 1.007 2.921 1.071 2.995 1.095c8.802 3.251 17.201 7.027 25.567 11.26 2.885 1.424 5.843 2.664 8.813 3.895l2.93 1.227c4.678 1.955 9.358 3.9 14.07 5.773l-1 2-2.613 1.293c-3.9 1.966-7.127 4.362-10.574 7.02l-4.208 3.19-2.24 1.705c-4.229 3.205-8.48 6.378-12.74 9.542l-2.505 1.88-2.33 1.73-2.073 1.545L288 458h-2v2a113 113 0 0 1-6.375 4.625l-1.828 1.273c-1.571 1.076-3.182 2.093-4.797 3.102h-2v2a375 375 0 0 1-6 4l-1 2c-6.46-1.733-12.614-3.983-18.803-6.513-8.316-3.383-16.762-6.418-25.197-9.487v-3c2.29-1.946 4.56-3.696 7-5.437l4.434-3.243 2.304-1.67a631 631 0 0 0 8.35-6.222c3.295-2.487 6.604-4.957 9.912-7.428l1.982-1.482c18.903-14.107 18.903-14.107 28.643-18.83L286 412l1-2-14 6v-3l2-2-1.937-1.75C271 407 271 407 270.25 404.75L270 403l-2.75-.312c-3.27-.692-4.787-1.51-7.25-3.688"/><path fill="#21988C" d="M262 597c4.215.58 7.825 1.567 11.754 3.188l3.31 1.355 3.498 1.457 3.613 1.49q5.418 2.244 10.825 4.51l3.2 1.335q4.28 1.792 8.55 3.602l2.537 1.069A114 114 0 0 1 323 622c-2.976 4.182-5.945 6.453-10.383 8.996l-1.861 1.079a914 914 0 0 1-5.881 3.362q-1.943 1.117-3.883 2.237a2568 2568 0 0 1-5.7 3.279c-5.14 2.947-10.224 5.979-15.292 9.047-14.465 8.694-29.218 16.86-44 25l-3.17 1.748C212.416 687.99 212.416 687.99 202 693v-3l2.93-1.54c8.795-4.638 8.795-4.638 17.382-9.648 3.868-2.368 7.819-4.4 11.895-6.382 4.105-2.102 8.081-4.42 12.06-6.752 2.565-1.492 4.907-2.736 7.733-3.678v-2l-2-1 3.375.125L259 659l2-2-3.242-1.363A19842 19842 0 0 1 216 638l1-3c1.54-1.268 1.54-1.268 3.55-2.531l2.28-1.443 2.482-1.526 2.535-1.581C237.03 622.254 246.484 617.08 256 612v-4l8-2z"/><path fill="#0C8384" d="M280.133 735.197c2.398.765 4.593 1.724 6.867 2.803q2.577 1.097 5.156 2.191 4.02 1.775 8.028 3.58c4.966 2.185 9.68 3.852 15.021 4.85C317 749 317 749 319 750l2.078-1.133C324 748 324 748 325.912 748.423c2.31.836 4.572 1.75 6.838 2.702 8.944 3.546 17.84 5.935 27.25 7.875l-1 2c-6.88-.45-13.34-1.679-20.02-3.379-2.797-.583-5.137-.81-7.98-.621l-3 1-.184 2.012c-.832 8.77-.832 8.77-1.816 12.988h-3l-2 2c-11.653 5.484-24.551 5.164-37.126 5.13-2.34-.005-4.682 0-7.022.007-20.52.01-39.296-1.635-58.852-8.137v-2l3.262-1.066c5.925-2.229 11.169-5.577 16.55-8.871l3.319-2.012a1366 1366 0 0 0 24.81-15.465l2.056-1.278c2.04-1.292 2.04-1.292 3.987-2.858 4.79-3.563 4.79-3.563 8.15-3.253"/><path fill="#107CA6" d="M271 487c4.95.728 9.382 2.597 14 4.438l2.406.947c3.87 1.525 7.734 3.066 11.594 4.615v2l2.012-.219c4.1.3 7.154 1.911 10.8 3.719l2.1 1.012c1.7.82 3.395 1.653 5.088 2.488-2.77 2.947-5.53 5.133-8.973 7.25l-2.944 1.824-3.146 1.926-6.578 4.066c-1.084.67-2.17 1.339-3.287 2.028a859 859 0 0 0-10.175 6.431c-17.294 11.052-35.058 21.403-52.924 31.501-3.622 2.047-7.225 4.105-10.758 6.302L217 569.313l-2.625 1.675L212 572c-3.65-.49-6.852-1.623-10.254-3.004l-3.062-1.234-3.246-1.324-6.723-2.723-3.4-1.38a881 881 0 0 0-9.374-3.706l-2.792-1.094a943 943 0 0 0-5.218-2.022c-1.998-.786-3.968-1.642-5.931-2.513l-1-2c10.06.68 10.06.68 14.125 2.063 4.181 1.363 7.525 1.768 11.875.937 4.858-1.992 9.422-4.447 14-7l6.25-3.437 2.64-1.497C212 541 212 541 214 541v-2c2.974-1.24 5.853-2.3 9-3v-2l3-2h4a91 91 0 0 0 4-4h2l1-2c3.153-.474 6.276-.79 9.453-1.035 2.279-.199 2.279-.199 5.547-.965 1.787-1.96 1.787-1.96 3-4 3.188-.25 3.188-.25 6 0v-3h3l2-3h2q2.505-.476 5-1v-2l8-1 1-4 2.875-.25L288 505l1.563-1.75L290 501c-1.065-2.803-1.065-2.803-3-5h-3l-1-4-1.863-.402-2.45-.536-2.425-.527C274 490 274 490 271 489z"/><path fill="#062755" d="m631 534 3 1c1.011 1.699 1.011 1.699 1.902 3.902l1.003 2.434 1.033 2.601c.354.87.71 1.738 1.075 2.633 1.007 2.472 2 4.95 2.987 7.43l1.27 3.168q.945 2.368 1.882 4.738c1.147 2.834 2.39 5.62 3.645 8.407 1.61 3.595 3.187 7.203 4.765 10.812A3758.477 3758.477 0 0 1 657 589l1.527 3.488c1.886 4.496 3.559 9.057 5.223 13.639 1.178 3.192 2.41 6.193 3.938 9.244C669 618 669 618 669 620h-38l-11-27-65-1-1 5a141 141 0 0 1-2.312 5.688c-2.321 5.41-4.499 10.839-6.688 16.312l-38 1a168 168 0 0 1 5.23-13.68l.95-2.213q1.501-3.492 3.008-6.982l1.962-4.57c4.242-9.87 8.532-19.718 12.85-29.555l1 3c-.73 3.537-1.607 6.998-2.53 10.488-1.177 4.654-1.68 8.71-1.47 13.512 5.72 2.093 11.088 3.305 17.188 2.75 3.796-.747 4.927-1.423 7.812-3.75 6.845-2.64 13.928-2.496 21.188-2.687l2.042-.06a496 496 0 0 1 30.207.06l3.476.104c6.004.245 11.303.985 17.087 2.583h4v2l3-1c2.352.598 4.69 1.259 7 2l1-2c2.563-.625 2.563-.625 5-1l-.656-3.29-.844-4.335-.434-2.16c-.796-4.136-1.226-7.98-1.066-12.215l-2-1c-2.03-4.143-3.238-7.973-4.262-12.477-1.246-4.26-2.999-8.326-4.706-12.42C631 536.195 631 536.195 631 534"/><path fill="#0F4E85" d="M245 590c5.54.568 10.037 2.629 15 5-.205 2.3-.205 2.3-1 5-2.031 1.694-2.031 1.694-4.715 3.2l-2.994 1.71-3.228 1.778-3.282 1.859c-3.25 1.836-6.513 3.648-9.781 5.453l-2.754 1.526c-6.44 3.567-6.44 3.567-9.396 5.185-4.595 2.53-8.982 5.228-13.221 8.328L208 630h-3v2a162 162 0 0 1-7.812 4.875q-2.5 1.496-4.997 2.996l-2.612 1.566c-4.024 2.439-7.987 4.97-11.954 7.5-15.238 9.673-30.787 18.816-46.437 27.802a1129 1129 0 0 0-6.348 3.69l-3.778 2.196-3.277 1.914c-2.336 1.226-4.21 2.002-6.785 2.461-6.942-11.702-13.98-23.935-18-37l1-3 .688 1.688c1.703 3 3.728 5.035 6.312 7.312 2.173.861 2.173.861 4 1v-2l2.055-.297c7.517-1.208 14.275-3.254 21.03-6.797C130 647 130 647 133.188 646.5L136 646l1-2 2 1v-2l2.875-.875c3.177-.893 3.177-.893 5.125-3.125l2.063-.812c5.12-2.07 10.248-4.451 14.125-8.438L165 628c3.25-.75 3.25-.75 6-1v-4c4.717.673 8.7 2.49 13 4.438q2.093.937 4.188 1.87l1.98.887c2.256.991 4.535 1.912 6.832 2.805l1.25-1.25L200 630l1.742-1.918c2.553-2.354 5.003-3.651 8.133-5.144l3.055-1.473L216 620l3.195-1.621C222 617 222 617 225 616l1-2c4.46-2.952 9.315-5.069 14.16-7.305 3.13-1.868 4.78-3.71 6.84-6.695 1.579-3.373 1.579-3.373 2-7l-4-1z"/><path fill="#0F3B68" d="M89 528c7.834 2.144 15.255 5.012 22.75 8.125l7.148 2.945 3.593 1.486a1439 1439 0 0 0 9.986 4.061l3.024 1.222q2.802 1.133 5.607 2.255c4.182 1.697 8.105 3.412 11.892 5.906-7.758 8.56-18.03 14.361-27.777 20.375-4.179 2.583-8.297 5.253-12.41 7.938-6.721 4.373-13.5 8.646-20.313 12.875l-2.81 1.749-2.596 1.606-2.323 1.438C83 601 83 601 82 601c-1.733-24.272-1.299-49.808 7-73"/><path fill="#0C8385" d="M336 695c4.595.076 9.117 2.589 13.313 4.375 5.522 2.33 11.058 4.565 16.687 6.625l3.188 1.168 2.812 1.02 2.875 1.042L377 710l-3 2c-.707 1.65-1.366 3.32-2 5-1.274 2.372-2.635 4.679-4 7h-2l-1 3h-2l-1 3q-2.495 1.01-5 2l-2.062 2.125L353 736h-4l-1 3a134 134 0 0 1-6 3l-2 2c-2.125-.375-2.125-.375-4-1v5l-1-3h-2v3l-3.812-.5c-2.453-.322-4.705-.5-7.188-.5l-2 1a90 90 0 0 1-6.687-2.5c-.662-.27-1.323-.54-2.004-.82-9.278-3.843-18.342-8.162-27.309-12.68 4.045-4.374 8.494-7.575 13.438-10.875l5.07-3.426 2.692-1.81c4.886-3.296 9.747-6.627 14.613-9.952 2.648-1.807 5.296-3.614 7.955-5.406a106 106 0 0 0 4.023-2.886c1.533-1.141 1.533-1.141 4.209-2.645"/><path fill="#04757D" d="M474 521h3c3.555 10.567 6.305 20.97 8 32l.625 3.906c1.84 12.65 1.575 25.34 1.375 38.094-5.767-.496-9.924-2.162-15-4.875-4.935-2.58-9.85-4.986-15-7.125-8.633-3.63-17.122-7.434-25.437-11.75l-2.242-1.141c-1.816-.96-3.575-2.027-5.321-3.109l-1-3 2.57-1.984c8.085-6.277 15.93-12.773 23.658-19.482a1077 1077 0 0 1 5.448-4.679l1.83-1.563 3.571-3.047a345 345 0 0 0 12.153-10.917z"/><path fill="#FEFEFE" d="m1022 504 16.938-.187 5.288-.083c7.848-.071 14.465.047 21.774 3.27l2.75 1.188c3.322 2.676 5.282 6.058 7.25 9.812 1.739 5.216 1.44 10.561 1 16-1.028 4.364-2.436 8.222-5.426 11.621-1.512 1.317-1.512 1.317-4.574 3.379l-2.562 1.75c-4.984 2.556-10.09 2.386-15.583 2.348l-2.07-.003c-2.532-.006-5.065-.02-7.598-.033L1022 553z"/><path fill="#0E3A67" d="m358 398 2.398.899c19.13 7.216 19.13 7.216 27.602 13.101-1.562.625-1.562.625-4 1q-2.432-.768-4.863-1.538c-4.481-.97-9.093-.42-13.637-.15l-3.05.147c-2.82.146-5.634.336-8.45.541l-3.8.23c-4.194 1.01-6.654 3.009-9.887 5.77-5.636 4.712-5.636 4.712-8.158 5.784-2.155.216-2.155.216-4.703-.658l-2.913-1.415-3.321-1.585-3.593-1.751c-2.541-1.211-5.087-2.412-7.633-3.613l-1.99-.942a784 784 0 0 0-21.252-9.632l-1.879-.822c-9.745-4.241-19.62-7.874-29.776-11.008l-2.802-.87-2.452-.733L248 390l-1-2c37.725-6.015 75.119-3.62 111 10"/><path fill="#138BB3" d="M331.383 428.418c6.139 1.723 11.881 3.792 17.617 6.582v2l4 2v5h2v2h-3l-1 3-2 1-1 3h-2l-1 2c-4.286 4.749-4.286 4.749-7.312 5.813L336 461v2c-1.875 2.125-1.875 2.125-4 4h-2l-1 2h-2l-1 3h-2l-2 2-3-1 1 4-3-1v2l5 2v2q-2.094-.685-4.187-1.375l-2.512-.816C313 479 313 479 310.5 477.687c-2.843-.781-4.22-.464-7.062.188l-2.254.617C299 479 299 479 295 479l-1 3c-10.879.35-19.902-2.045-30-6a141 141 0 0 1 5-5h2v-2c2.266-1.656 2.266-1.656 5.25-3.5l2.953-1.844c2.235-1.323 4.454-2.54 6.797-3.656v-2c1.602-1.229 1.602-1.229 3.848-2.629 5.42-3.495 10.49-7.366 15.59-11.308 21.311-16.458 21.311-16.458 25.945-15.645"/><path fill="#072856" d="m985 498 1 2h2l.031 2.626q.149 12.354.308 24.708.083 6.348.158 12.697.073 6.147.156 12.294.03 2.325.056 4.65c.117 10.37.548 20.68 1.291 31.025h2v3l3-1 1-2 1 1 1-2c2 1 2 1 4 3l2-3-2-3 2-1c2.625.938 2.625.938 5 2l2-2 2 1 1.223-1.434C1016 581 1016 581 1018.12 580.34l2.317-.403c2.396-.425 4.287-.789 6.435-1.948 2.314-1.076 3.872-1.268 6.408-1.333l2.522-.085 2.697-.071c22.862-.273 22.862-.273 44.5-6.5 4.456-2.898 8.509-6.269 12.521-9.745 1.219-1.034 2.491-2.004 3.776-2.954 3.462-2.582 5.314-5.026 7.078-8.989 1.66-4.653 2.205-9.145 2.45-14.062C1109 532 1109 532 1110 530a148 148 0 0 0-.25-8.062l-.135-2.33c-.396-5.64-1.441-10.355-3.615-15.608l-1-3 3 1c4.56 6.833 5.43 15.266 6.223 23.238.463 10.69-2.547 21.384-7.235 30.883L1106 558h-2l-.781 2.25c-2.03 4.582-5.381 7.602-9.219 10.75-3.224 1.957-6.542 3.503-10 5l-3.25 1.625c-10.434 3.826-21.788 5.554-32.871 5.473l-2.004-.003c-2.438-.006-4.875-.02-7.312-.033L1022 583v37h-37z"/><path fill="#0F3B68" d="M211 465c4.684.618 8.87 1.917 13.25 3.625l2.066.79c2.23.855 4.457 1.72 6.684 2.585l4.871 1.883c6.054 2.344 12.106 4.694 18.129 7.117v2l-2.98 1.629c-4.332 2.478-8.314 5.358-12.333 8.308l-4.8 3.497-2.46 1.796c-3.799 2.77-7.613 5.52-11.427 8.27l-4.5 3.25-9 6.5-2.251 1.626-4.49 3.242a21532 21532 0 0 0-16.009 11.57l-2.248 1.626c-3.536 2.555-7.078 5.1-10.639 7.62l-1.95 1.382a979 979 0 0 1-3.588 2.527c-2.67 1.89-5.053 3.81-7.325 6.157l-2.548-1.022a24109 24109 0 0 0-13.654-5.474l-3.982-1.596q-1.984-.794-3.967-1.593a329 329 0 0 0-9.668-3.72l-3.544-1.302-3.154-1.128L117 535l-2-3 3.438.875c7.416 1.67 15.014 2.31 22.562 3.125l1-2c1.974-.74 3.983-1.388 6-2 8.578-2.678 17.284-5.643 25-10.312 3-1.688 3-1.688 7-1.688v-2l4-1v-2h2l1-4h4l.75-1.937L193 507c1.75-.812 1.75-.812 4-1 2.01.27 4.014.594 6 1l1-3h2l1-5 3.188-.812c4.566-1.423 7.62-2.995 11-6.375L223 490h2l.75-1.937L227 486c2.125-.75 2.125-.75 4-1l-.562-2.25c-.43-2.7-.29-4.196.562-6.75h-3c-1.66-1.915-2.868-3.736-4-6l-3.187-.437c-3.859-.57-6.437-1.67-9.813-3.563z"/><path fill="#138BB3" d="M153 554c3.352.508 3.352.508 7 2q2.071.693 4.148 1.367 2.116.75 4.227 1.508l2.191.738c2.082.754 2.082.754 5.434 2.387.852 2.07.852 2.07 1 4l2 2c-.988 2.388-1.805 3.838-3.812 5.5L173 575l-2.437 2.063c-2.537 1.917-4.628 2.776-7.563 3.937a251 251 0 0 0-3.625 2.438c-4.102 2.654-8.176 3.728-12.89 4.875-2.85.788-5.034 2.053-7.485 3.687a70 70 0 0 1-4 1l-2.625 1.063C130 595 130 595 128 595v2l-2.937.375L122 598l-1 2c-2.437 1.188-2.437 1.188-5 2l-2-1-1 3c-3.85 1.756-7.938 2.832-12 4l-2.55.734c-3.651.934-6.585 1.262-10.388 1.141L85 609c-1.437-1.75-1.437-1.75-2-4-.34-2.424-.34-2.424 0-5 2.022-1.798 2.022-1.798 4.879-3.46l3.198-1.907 1.72-.99c2.39-1.378 4.757-2.795 7.124-4.21q1.83-1.095 3.666-2.184c5.97-3.55 11.797-7.307 17.6-11.124l2.86-1.878a3473 3473 0 0 0 5.43-3.581q3.534-2.333 7.078-4.65l4.007-2.641 1.75-1.144c3.238-2.148 3.238-2.148 6.172-4.683 1.48-1.446 1.48-1.446 4.516-3.548"/><path fill="#2ACBC8" d="M271 663c6.566-.43 10.811.784 16.688 3.625l2.399 1.114A907 907 0 0 1 297 671q3.123 1.441 6.25 2.875l3.031 1.418c3.107 1.441 6.24 2.82 9.375 4.195l3.038 1.346a776 776 0 0 0 6.057 2.652l2.796 1.244 2.526 1.107L332 687l1 3c7.605-2.605 13.552-6.263 20-11a524 524 0 0 1 5.125-3.437l2.258-1.497L362 673l2 1c-3.835 5.098-8.005 8.384-13.312 11.875l-2.245 1.508A893 893 0 0 1 343 691l2.938 1.469L387 713l-3 1c-1.636-.648-3.267-1.311-4.863-2.05-2.406-1.07-4.843-1.948-7.324-2.825a231 231 0 0 1-11.688-4.562 549 549 0 0 0-13.062-5.313l-3.153-1.234c-3.877-1.382-3.877-1.382-7.91-2.016-3.018 1.438-3.018 1.438-6.05 3.672l-1.733 1.193a589 589 0 0 0-5.53 3.885 2100 2100 0 0 1-3.807 2.643q-3.75 2.602-7.485 5.227c-4.21 2.957-8.458 5.856-12.707 8.755A793 793 0 0 0 285 731a369 369 0 0 0 30.255 14.03l2.616 1.087 2.342.957L322 748l1 2c-2.187.625-2.187.625-5 1-2.187-.75-2.187-.75-5-2q-2.215-.639-4.437-1.246c-7.128-2.104-13.738-5.337-20.436-8.522l-2.959-1.345c-.874-.41-1.748-.82-2.648-1.244-2.517-.863-2.517-.863-5.001.034a124 124 0 0 0-7.992 4.596l-3.198 1.984-3.392 2.118q-3.51 2.178-7.023 4.352l-1.772 1.098a1296 1296 0 0 1-16.33 9.925l-2.404 1.443A1383 1383 0 0 1 229 766l-1.984 1.184c-3.72 2.186-6.67 3.513-11.016 3.816l-2-1 1-3c2.402-1.682 2.402-1.682 5.582-3.512l1.726-1.006a866 866 0 0 1 5.505-3.17q3.576-2.06 7.144-4.136l1.791-1.041c4.973-2.916 9.758-6.077 14.53-9.312 4.414-2.956 8.965-5.685 13.533-8.395 1.77-1.08 3.485-2.248 5.189-3.428l1-3-2.437-.687c-4.476-1.65-8.45-3.918-12.563-6.313v-3c5.498 1.716 10.693 3.676 15.86 6.23 2.683.965 4.282 1.087 7.14.77a71 71 0 0 0 6.672-4.172l1.927-1.316a905 905 0 0 0 6.151-4.262l4.218-2.9c4.022-2.767 8.03-5.554 12.032-8.35l3.066-2.14c3.683-2.577 7.356-5.165 11.012-7.778A231 231 0 0 1 330 692l-2.86-1.102-3.89-1.523-1.863-.715c-4.087-1.61-7.983-3.449-11.89-5.457-4.729-2.398-9.504-4.51-14.415-6.492l-2.048-.83a1029 1029 0 0 0-8.373-3.355 626 626 0 0 1-6.204-2.503l-3.688-1.47L272 667c-.904-2.189-.904-2.189-1-4"/><path fill="#108795" d="M451 473c1.734.555 1.734.555 4 2a85 85 0 0 1 4.25 7.125l1.168 2.14c1.211 2.237 2.4 4.483 3.582 6.735l1.162 2.207a680 680 0 0 1 3.276 6.356l.999 1.943c2.052 4.113 3.429 8.065 4.563 12.494-4.746 5.037-9.865 9.418-15.254 13.754a175 175 0 0 0-7.058 6.121c-5.361 4.81-11.018 9.213-16.723 13.602a611 611 0 0 0-6.246 4.93l-4.281 3.343-2.02 1.63c-1.763 1.357-3.456 2.572-5.418 3.62-2.832.137-4.389-.7-6.894-1.928-2.277-1.18-4.504-2.426-6.731-3.697L400.937 554c-5.157-2.928-10.23-5.953-15.19-9.203a340 340 0 0 0-6.524-4.156l-1.964-1.233a570 570 0 0 0-3.842-2.389c-1.507-.953-2.967-1.98-4.417-3.019v-2c1.977-.73 3.98-1.394 6-2l2 1v3h4v2q2.124.721 4.25 1.438l2.39.808c3.145 1.02 3.145 1.02 6.36 1.754l3-1 2.313.125c3.443-.16 5.642-1.57 8.687-3.125h4v-3l4 1v-2l5-1 1-4 2 1c2.074-.248 2.074-.248 4-1l1-2c2.398-.887 2.398-.887 5.375-1.687l2.96-.825C440 522 440 522 443 523a50.5 50.5 0 0 0 7.063-1.625c2.273-.44 3.753-.077 5.937.625v-2c1.715-1.691 1.715-1.691 3.938-3.562l2.214-1.88L464 513l1-1c.607-5.484.436-10.681-1.5-15.875-2.379-5.348-5.528-10.238-8.695-15.145A42.7 42.7 0 0 1 451 473"/><path fill="#11659C" d="M222 581c5.024.545 9.658 2.707 14.313 4.563l2.533.998q3.08 1.214 6.154 2.439v3l1.938.313L249 593l1 3c-.82 1.902-.82 1.902-2.125 3.938l-1.258 2.027c-2.727 3.431-5.646 5.59-9.625 7.414l-3.117 1.183c-3.71 1.412-6.217 2.497-8.875 5.438-4.881 3.596-10.03 5.877-15.664 8.035-3.197 1.32-5.631 2.801-8.336 4.965-1.176 2.1-1.176 2.1-2 4l-3 1-1-2 1-2c-.786-.235-1.573-.47-2.383-.71-4.659-1.661-9.04-3.77-13.492-5.915l-2.664-1.273Q174.228 620.555 171 619v-2l1.938.25c3.686-.3 6.216-1.543 9.535-3.105 5.18-2.346 10.6-4.129 15.968-5.993 1.872-.666 3.719-1.402 5.559-2.152l1-2c3.292-1.524 6.56-2.853 10-4l1-2c1.559-1.29 1.559-1.29 3.438-2.625l1.87-1.352L223 593h2v-2l3-1-2.937-2.312c-1.653-1.301-1.653-1.301-3.063-2.688l-1-3z"/><path fill="#051F4A" d="M649 578h3q1.157 2.53 2.313 5.063l1.3 2.847c2.987 6.655 5.648 13.366 8.137 20.217 1.178 3.192 2.41 6.193 3.938 9.244C669 618 669 618 669 620h-38l-11-27-65-1-1 5a141 141 0 0 1-2.312 5.688c-2.321 5.41-4.499 10.839-6.688 16.312l-38 1c1.29-3.868 2.56-7.467 4.164-11.18l1.211-2.812 1.25-2.883 1.273-2.953q1.548-3.588 3.102-7.172l3 1-3 14h3v4l1.938-.562c.68-.145 1.36-.29 2.062-.438l1 1q3.493.553 7 1v-2h6l1-2h2l1-5h2l.313-1.75c.796-2.607 1.878-4.224 3.687-6.25h2l.688-2.375L553 591c3.6-1.852 6.583-2.249 10.597-2.243l3.328-.01 3.567.023h3.695q3.865.006 7.731.024c3.935.018 7.87.02 11.805.02l7.52.018 3.554.003c5.504.032 10.783.183 16.203 1.165v2l1.836.227L625 593c1.414 1.96 1.414 1.96 2.625 4.375 1.368 2.676 2.702 5.115 4.375 7.625 2.05 1.192 2.05 1.192 4 2v1h11c3.1-1.258 3.1-1.258 6-3 1.25-3.752.75-6.851.25-10.687l-.275-2.174c-.695-5.063-1.836-9.472-3.975-14.139"/><path fill="#138BB3" d="M378 411q4.578.715 9.16 1.402c2.647.557 4.543 1.198 6.84 2.598 1.938 2.125 1.938 2.125 3 5-.653 2.838-1.734 5.384-3 8h-2l-2 2c-1.904 1.523-3.661 2.842-5.875 3.875-2.397 1.166-2.397 1.166-5.062 3.688C376 440 376 440 373.375 440.75L371 441l-1.816.672c-2.184.328-2.184.328-4.672-.64l-2.825-1.532a302 302 0 0 0-14.437-7.125c-5.129-2.374-10.216-4.806-15.25-7.375 2.767-3.707 5.598-6.497 9.313-9.25l2.738-2.078c5.862-3.323 12.962-2.946 19.574-3.297l2.523-.156c4.16-.225 7.784-.252 11.852.781"/><path fill="#FEFEFE" d="m586 513 3 1a96 96 0 0 1 3.5 7.875l1.012 2.49q1.12 2.763 2.23 5.53a874 874 0 0 0 4.227 10.199l3.031 7.281 1.494 3.546 1.381 3.352 1.242 2.982c.888 2.76 1.061 4.868.883 7.745q-7.071.037-14.142.055-2.401.008-4.804.02c-2.31.013-4.622.018-6.933.023l-2.144.015c-4.441 0-8.61-.392-12.977-1.113.658-3.964 1.855-7.41 3.375-11.125l.757-1.865c.95-2.339 1.909-4.674 2.868-7.01q2.156-5.252 4.305-10.505 1.495-3.653 3-7.302l1.402-3.423 1.265-3.075c.852-2.233 1.52-4.364 2.028-6.695M885 512h2l.867 2.221q2.033 5.204 4.07 10.404l.746 1.904a1363 1363 0 0 0 11.674 28.891l1.061 2.557.93 2.22C907 562 907 562 907 564c-4.54 1.173-8.938 1.04-13.582.879l-2.467-.072q-3.882-.116-7.764-.245l-5.279-.158q-6.454-.193-12.908-.404c1.599-6.239 3.296-12.185 5.938-18.062l1.59-3.606L874 539c1.953-4.673 3.778-9.39 5.543-14.137l.822-2.21q.813-2.19 1.617-4.385c1.91-5.16 1.91-5.16 3.018-6.268"/><path fill="#0F4F86" d="M89 528c7.541 2.052 14.993 4.502 22 8l1 2 3 1 1 3 2.563 1.875L121 546c.563 2.563.563 2.563 0 5-1.875 1.813-1.875 1.813-4 3h-2l-1 3c-2.375 1.688-2.375 1.688-5 3h-3l-.625 1.688c-1.952 3.282-4.317 5.019-7.375 7.312h-2l-1 2c-3.062.625-3.062.625-6 1v2h-2l-2-5-2 1c-1.145-5.797-.756-10.692.188-16.5l.409-2.634c1.27-7.784 3.148-15.31 5.403-22.866M287.063 384.688l3.87-.016c9.18.068 15.474 1.411 23.817 5.328l3.36 1.563C321 393 321 393 324 395c.688 3.125.688 3.125 1 6l-2.5.75c-2.767.988-4.913 2.016-7.437 3.438-2.07 1.062-2.07 1.062-4.063 1.812-3.312-.312-3.312-.312-7-1-1.653.234-3.303.495-4.95.773-5.922.587-9.94-.878-15.3-3.293l-3.25-1.543c-8.872-4.005-17.61-7.524-26.977-10.185-1.855-.536-3.692-1.137-5.523-1.752l-1-2c13.352-2.129 26.548-3.3 40.063-3.312"/><path fill="#062755" d="m1105 501 3 1c4.56 6.833 5.43 15.266 6.223 23.238.463 10.69-2.547 21.384-7.235 30.883L1106 558h-2l-.781 2.25c-2.03 4.582-5.381 7.602-9.219 10.75-3.224 1.957-6.542 3.503-10 5l-3.25 1.625c-10.434 3.826-21.788 5.554-32.871 5.473l-2.004-.003c-2.438-.006-4.875-.02-7.312-.033L1022 583v37h-37l1-45h2v40c3.46.865 5.916 1.117 9.422 1.098l3.105-.01 3.223-.025 3.27-.014q3.99-.018 7.98-.049v-2h3l-.5-3.187c-.396-3.018-.592-5.784-.5-8.813h2v-21l6-2 2.107-1.104c2.186-1.035 3.764-1.178 6.174-1.24l2.522-.085 2.697-.071c22.862-.273 22.862-.273 44.5-6.5 4.456-2.898 8.509-6.269 12.521-9.745 1.219-1.034 2.491-2.004 3.776-2.954 3.462-2.582 5.314-5.026 7.078-8.989 1.66-4.653 2.205-9.145 2.45-14.062C1109 532 1109 532 1110 530a148 148 0 0 0-.25-8.062l-.135-2.33c-.396-5.64-1.441-10.355-3.615-15.608z"/><path fill="#14969B" d="M345 525c4.672 1.53 8.022 4.108 11.813 7.125l1.81 1.418A947 947 0 0 1 363 537l-1 3a115 115 0 0 1-6.125 4.938q-1.936 1.486-3.871 2.976l-2.02 1.548c-2.485 1.926-4.925 3.903-7.366 5.886-8.524 6.914-17.319 13.433-26.195 19.886-2.41 1.757-4.812 3.526-7.212 5.297-20.618 15.154-20.618 15.154-27.846 17.223-4.513.33-7.65-.971-11.79-2.649l-2.39-.931a652 652 0 0 1-4.964-1.97 784 784 0 0 0-7.63-3.003q-2.415-.952-4.83-1.908l-2.313-.906c-1.838-.743-3.647-1.559-5.448-2.387l-1-2c1.605.087 3.21.196 4.813.313l2.707.175c.818.17 1.637.338 2.48.512q1.525 1.475 3 3c2.71 1.158 2.71 1.158 5.75 2.063l3.242 1.019L266 590c.704.23 1.408.461 2.133.7 3.733 1.18 6.984 1.975 10.867 1.3 1.109-1.378 2.208-2.765 3.242-4.2 3.928-4.023 9.704-6.47 14.758-8.8h2v-2l3.25-1.687c3.418-1.927 5.388-4.164 7.75-7.313h2l.734-1.766c2.344-4.136 6.254-6.795 10.266-9.234 3.563-.437 3.563-.437 6 0l.691-1.738c1.658-2.866 3.645-4.413 6.247-6.45l2.652-2.105C341 545 341 545 344 544v-2l2.938-1.812L350 538c1.162-2.394 1.162-2.394 1-5-.57-2.715-.57-2.715-2-5-2.017-1.344-2.017-1.344-4-2z"/><path fill="#04767E" d="m298 744 1.871.586c5.073 1.56 10.115 2.926 15.317 3.984C317 749 317 749 319 750l2.078-1.133C324 748 324 748 325.912 748.423c2.31.836 4.572 1.75 6.838 2.702 8.944 3.546 17.84 5.935 27.25 7.875l-1 2c-6.88-.45-13.34-1.679-20.02-3.379-2.797-.583-5.137-.81-7.98-.621l-3 1c-.09.996-.09.996-.184 2.012-.832 8.77-.832 8.77-1.816 12.988h-3l-2 2c-11.983 5.64-25.098 5.142-38 5l-1-2 1.898-.297 2.477-.453 2.46-.422L291 776c1.192-1.972 1.192-1.972 2-4l2-.937 2-1.063a78 78 0 0 0 2-5l2-1c.369-1.66.696-3.328 1-5l1.125-2.562c1.076-2.38 1.076-2.38.5-4.75L303 750h2v-2l-1.812-.312c-2.488-.782-3.435-1.814-5.188-3.688"/><path fill="#051F4A" d="M786 549c1.77.664 1.77.664 4 2 1.887 2.46 1.887 2.46 3.688 5.375l1.824 2.898c3.227 5.913 2.728 12.04 2.636 18.61-.229 8.19-1.546 14.94-5.734 22.047-5.09 7.45-11.352 12.486-19.39 16.59-14.788 6.195-31.488 7.873-47.325 6.011C709.113 620.272 693.172 615 679 606l-4-4 6-13 1 2-.75 3.813c-.351 2.129-.351 2.129-.25 4.187 2.414 3.394 4.587 4.798 8.313 6.625L693 607l3.5 1.375q2.249.819 4.5 1.625l3.316 1.23c14.79 5.26 30.484 7.607 46.121 5.02q2.788-.597 5.563-1.25l3.629-.777c8.51-2.001 15.581-4.611 22.371-10.223 5.761-5.686 9.32-13.46 12-21 1.344-6.416 1.436-12.559-.266-18.906-1.888-5.384-4.718-10.268-7.734-15.094"/><path fill="#0F7BA5" d="M395 558c3.76.581 6.53 1.652 9.813 3.563l2.394 1.378c.592.35 1.183.7 1.793 1.059v3c-2.1 1.56-4.14 2.91-6.375 4.25q-1.928 1.191-3.852 2.387l-1.934 1.196c-3.42 2.17-6.679 4.565-9.948 6.952L385 583h-2v2c-5.75 3-5.75 3-8 3v2a130 130 0 0 1-6.832 4.762l-2.14 1.42c-2.276 1.509-4.558 3.007-6.84 4.505q-2.246 1.487-4.49 2.975a1439 1439 0 0 1-8.716 5.726 336 336 0 0 0-7.335 4.915l-2.909 1.967-2.448 1.694L331 619c-3.553-.353-5.937-1.372-8.937-3.25-5.112-2.987-10.516-4.737-16.122-6.54L303 608l-2-3 3.691.875 4.872 1.125 2.423.578c4.797 1.097 9.094 1.633 14.014 1.422l1-2c1.89-.527 1.89-.527 4.25-.937 3.776-.764 6.619-1.715 9.75-4.063l1-2c1.327-.358 2.661-.688 4-1a176 176 0 0 0 7-4.437c3.59-2.378 7.14-4.642 11-6.563l2-2q2.495-1.01 5-2l2.313-1.437C376 581 376 581 379.563 579.875c6.15-2.21 11.677-6.467 16.437-10.875 1.512-2.517 1.512-2.517 2-5-1.303-2.21-1.303-2.21-3-4z"/><path fill="#051F4A" d="M853 590c2.949-.601 2.949-.601 6.42-.568l3.943.002q2.124.038 4.246.078 2.178.014 4.355.021a1202 1202 0 0 1 11.442.124c3.895.05 7.79.074 11.684.099 7.637.053 15.273.139 22.91.244l2 4h2l1.645 3.395 2.168 4.418 1.08 2.236 1.064 2.158.968 1.984c1.02 1.89 1.02 1.89 2.703 3.421L933 613v2c3.77.029 7.542.047 11.313.063l3.248.025 3.115.01 2.872.016c2.59-.009 2.59-.009 5.452-1.114l-1.937-8.75-.553-2.5-.537-2.422-.492-2.222A258 258 0 0 0 954 592h2q1.917 4.182 3.813 8.375l1.08 2.348c2.54 5.64 4.465 11.314 6.107 17.277q-7.82.185-15.643.275-2.662.037-5.323.102c-2.55.06-5.097.09-7.647.111l-2.406.078c-2.244.002-2.244.002-5.981-.566-5.067-8.445-8.27-17.884-12-27h-64l-9 23-2 4h-38l5-13 2-1 .684 6.152L813 614l1 1c3.532.337 7.08.325 10.625.375l2.988.113c3.736.045 7.054.053 10.547-1.364 2.566-1.633 4.314-3.238 5.871-5.86.842-1.898 1.52-3.788 2.157-5.764 1.632-4.807 3.16-8.846 6.812-12.5"/><path fill="#0D8485" d="M305 682c5.602.365 9.484 2.11 14.422 4.723 3.73 1.848 7.595 3.094 11.578 4.277-3.5 3.695-7.137 6.673-11.375 9.5l-4.207 2.828-2.49 1.674a654 654 0 0 0-8.58 5.977 1517 1517 0 0 1-8.312 5.805 526 526 0 0 0-4.17 2.943 480 480 0 0 1-5.964 4.164l-1.791 1.302c-1.725 1.167-1.725 1.167-5.111 2.807-4.968-.225-8.904-1.576-13.437-3.562l-3.184-1.38L260 722v-2q2.188.464 4.375.938l2.46.527C269 722 269 722 271 723v-2q2.655-1.22 5.313-2.437l2.988-1.372C282 716 282 716 285 715v-2c2.375-2.125 2.375-2.125 5-4h2l.563-2.125c1.719-3.438 3.795-5.104 6.78-7.445 1.91-1.52 1.91-1.52 3.657-4.43h2l.438-3.187c.437-2.968.94-5.88 1.562-8.813z"/><path fill="#11659C" d="M373 447c5.875 1.533 11.395 3.677 17 6v2h2v2a164 164 0 0 1-7.437 5.375l-4.708 3.266-2.447 1.69a893 893 0 0 0-8.925 6.294C360.1 479.588 351.588 485.336 343 491l-1.686 1.168A141 141 0 0 1 337 495h-2v2c-1.504 1.324-1.504 1.324-3.562 2.688l-2.004 1.386c-2.434.926-2.434.926-5.567.84-5.015-1.185-9.488-3.122-14.18-5.226l-5.363-2.364-2.643-1.166c-4.19-1.81-8.431-3.492-12.681-5.158v-2c.583.182 1.165.364 1.766.55 4.76 1.46 9.518 2.786 14.359 3.95 3.546.854 6.833 1.823 10.188 3.25 3.61 1.444 3.61 1.444 7.312 1.25 4.095-1.213 6.24-3.138 9.375-6 2.688-1.812 2.688-1.812 5-3h3v-2l4-1v-2c2.135-1.667 4.27-3.22 6.5-4.75l3.86-2.695 1.896-1.322c2.832-2.002 5.566-4.128 8.29-6.272L366 465h2v-2c1.813-1.625 1.813-1.625 4-3h3l1-3h2c-.255-1.316-.53-2.628-.812-3.937l-.458-2.215L376 449l-3-1z"/><path fill="#108695" d="M471 529c2.813 1.188 2.813 1.188 5 3 1.059 3.177 1.2 5.6 1.25 8.938l.078 3.152c-.328 2.91-.328 2.91-1.68 5.246L474 551c-2.625.688-2.625.688-5 1l-1 1-3 1-3-1v3l-3 1v-2h-2l1 3-3.375.25L451 559c-1.167 1.917-1.167 1.917-2 4-2.437 1.188-2.437 1.188-5 2l-3 1 1 2c-2.125.25-2.125.25-5 0-3.312-2-3.312-2-6-4 1.32-3.002 2.644-4.815 5.188-6.875l1.867-1.531L440 554q2.765-2.442 5.52-4.898L447 548h2l.125-1.812L450 544a402 402 0 0 1 6-3l1-2 1-2a402 402 0 0 1 6-3l1-3c2.75-1.375 2.75-1.375 6-2"/><path fill="#138BB3" d="M452 413c-.615 11.436-2.294 22.686-4 34-5.501-2.633-9.998-6.399-14-11-.847-2.806-.621-4.081 0-7l-7 2-5-5-2.312-2.187L418 422v-2q6.297-1.505 12.598-2.99 2.142-.508 4.283-1.02 3.081-.734 6.166-1.459l3.745-.888C448 413 448 413 452 413"/><path fill="#0F4E84" d="M245 590c5.54.568 10.037 2.629 15 5-.205 2.3-.205 2.3-1 5-2.031 1.694-2.031 1.694-4.715 3.2l-2.994 1.71-3.228 1.778-3.282 1.859c-3.25 1.836-6.513 3.648-9.781 5.453l-2.754 1.526c-6.44 3.567-6.44 3.567-9.396 5.185-4.595 2.53-8.982 5.228-13.221 8.328L208 630h-3v2a162 162 0 0 1-7.812 4.875q-2.5 1.496-4.997 2.996l-2.612 1.566c-4.024 2.439-7.987 4.97-11.954 7.5-15.238 9.673-30.787 18.816-46.437 27.802a1129 1129 0 0 0-6.348 3.69l-3.778 2.196-3.277 1.914c-2.336 1.226-4.21 2.002-6.785 2.461l-1-3 3.078-1.504c7.578-3.73 14.997-7.585 22.258-11.91 4.723-2.812 9.544-5.444 14.383-8.05 5.56-3.002 10.972-6.114 16.281-9.536l3.254-2.066c5.457-3.475 10.863-6.973 16.121-10.746 3.471-2.49 6.861-4.409 10.836-5.973 2.068-1.228 2.068-1.228 3.586-4.106 2.177-3.072 3.872-4.368 7.238-5.978l1.84-.818 3.617-1.7L216 620l3.258-1.645C222 617 222 617 225 616l1-2c4.46-2.952 9.315-5.069 14.16-7.305 3.13-1.868 4.78-3.71 6.84-6.695 1.579-3.373 1.579-3.373 2-7l-4-1z"/><path fill="#2BCCC9" d="m256 609 1 3-2.762 1.512a614 614 0 0 0-24.488 14.3l-2.741 1.67c-.854.527-1.707 1.056-2.587 1.6l-2.294 1.413c-2.308 1.632-4.186 3.458-6.128 5.505l3.688 1.188C234.24 644.046 248.37 649.968 262 657c-1.125 1.563-1.125 1.563-3 3-4.288-.408-7.797-1.599-11.703-3.363l-3.223-1.44-3.324-1.51q-3.256-1.465-6.516-2.925l-3.175-1.424c-3.63-1.588-7.295-3.059-10.99-4.486C218 644 218 644 214.625 642.188L212 641c-4.808.526-8.489 3.922-12.344 6.602L197 649c-2.344-.29-2.344-.29-4-1 .94-2.198 1.698-3.743 3.534-5.305l1.818-1.14 2.054-1.31 2.219-1.37 2.302-1.453q2.37-1.492 4.75-2.973a710 710 0 0 0 6.444-4.074C249.721 609 249.721 609 256 609"/><path fill="#3AAD99" d="M159.895 667.773 162 668l1 2h3c-1.125 2.438-1.125 2.438-3 5q-2.992.55-6 1c-1.436 1.952-1.436 1.952-2 4l-3-1-.187 1.688C150.648 684 148.605 685.705 146 688l-3 1-.937 1.938L141 693c-1.937 1.063-1.937 1.063-4 2-1.542 1.375-1.542 1.375-3 3l-4 4-5-2-1 2c-3.536-1.911-5.79-3.626-8-7 .693-1.804.693-1.804 2-4 2.192-1.596 2.192-1.596 4.918-3.137l3.032-1.738 3.237-1.812 6.563-3.739 3.238-1.838a265 265 0 0 0 7.762-4.654l2.054-1.277a307 307 0 0 0 3.64-2.315c2.59-1.61 4.383-2.476 7.45-2.717"/><path fill="#0F3B68" d="m311 436 3 1v2c-1.633 1.433-1.633 1.433-3.91 3.082l-2.502 1.826-2.65 1.904-2.569 1.87q-2.505 1.82-5.018 3.625a420 420 0 0 0-4.464 3.257A170 170 0 0 1 288 458h-2v2a113 113 0 0 1-6.375 4.625l-1.828 1.273c-1.571 1.076-3.182 2.093-4.797 3.102h-2v2a375 375 0 0 1-6 4l-1 2c-6.46-1.733-12.614-3.983-18.803-6.513-8.316-3.383-16.762-6.418-25.197-9.487v-3l3-1v2l3.875.625c6.01 1.175 11.693 3.17 17.439 5.254 5.145 1.809 10.2 3.072 15.686 3.121 8.186-2.425 15.637-8.035 22.25-13.312 18.825-15 18.825-15 28.75-18.688"/><path fill="#051F4A" d="m1067 505 1 3-1.767-.632c-9.105-2.893-17.962-2.92-27.42-3.055L1022 504v49l17.125-.375 5.372-.103 4.26-.108 2.198-.034c5.312-.15 9.654-1.057 14.31-3.634l1.985-1.308c1.903-1.243 3.716-2.421 5.75-3.438-.911 2.782-1.662 4.67-3.777 6.73-5.96 4.02-11.062 5.752-18.223 6.27-10.355.484-20.896.632-31-2l-1-1c-.141-2.67-.042-5.324 0-8l-2-1h2v-2h-2v-22h2l-.035-3.902-.028-5.035-.025-2.577-.01-2.45-.016-2.27L1019 503l1-1c15.709-2.513 31.908-2.03 47 3"/><path fill="#2BCCC9" d="M357 536h5v4a62 62 0 0 1-6.062 5q-1.95 1.473-3.899 2.95l-2.038 1.528c-2.504 1.905-4.945 3.881-7.385 5.867-8.514 6.926-17.317 13.437-26.193 19.89-2.41 1.756-4.812 3.525-7.212 5.296C290.046 594.62 290.046 594.62 284 597c-2.824-.336-2.824-.336-5-1 2.403-2.616 5.015-4.4 8-6.312 12.27-8.087 24.01-16.961 35.426-26.21 5.437-4.4 10.985-8.647 16.557-12.875a414 414 0 0 0 14.232-11.31L355 538h2z"/><path fill="#0D8586" d="M260 726c4.128.607 7.332 2.038 11 4-.148 1.773-.148 1.773-1 4-2.414 1.79-2.414 1.79-5.625 3.625a909 909 0 0 0-3.605 2.121l-1.896 1.117c-3.014 1.829-5.903 3.833-8.812 5.824-8.97 6.084-18.347 11.491-27.713 16.938L220 765l-2.736 1.55L215 768l-1 2c-7.434-2.28-14.313-5.312-21.312-8.687l-3.342-1.605c-7.559-3.69-14.635-7.603-21.346-12.708l1-3v2l2.438.625c3.079 1.188 5.043 2.314 7.687 4.188 4.446 3.09 9.038 5.071 14.078 7.011 2.786 1.171 5.22 2.607 7.797 4.176 4.093 1.364 7.72 1.496 12 1 5.3-1.766 9.85-5.157 14.43-8.277 3.09-2.072 6.226-4.067 9.382-6.035l3.27-2.051c2.464-1.382 4.229-2.02 6.918-2.637a139 139 0 0 0 5-5c2.06-1.774 4.137-3.52 6.23-5.254 1.83-1.805 2.767-3.396 3.77-5.746z"/><path fill="#051F4A" d="M986 575h2v40c3.46.865 5.916 1.117 9.422 1.098l3.105-.01 3.223-.025 3.27-.014q3.99-.018 7.98-.049v-2h3l-.5-3.187c-.396-3.018-.592-5.784-.5-8.813h2l-.016-1.912q-.029-4.263-.047-8.525l-.025-3.01-.01-2.862-.016-2.65L1019 581l1-1a60 60 0 0 1 4.153-.114h2.669l2.9.016 2.956.005c3.128.005 6.256.018 9.384.03q3.174.009 6.346.014 7.796.017 15.592.049l-1 2c-5.032 1.02-10.007 1.135-15.121 1.098l-2.004-.003c-2.438-.006-4.875-.02-7.312-.033L1022 583v37h-37z"/><path fill="#04767E" d="M470 512h4c-1.6 4.182-4.688 6.768-7.937 9.688l-1.773 1.611c-5.276 4.762-10.746 9.255-16.29 13.701q-1.86 1.527-3.715 3.059A931 931 0 0 1 432 550l-2.101 1.672a473 473 0 0 1-6.087 4.703c-.61.483-1.222.965-1.852 1.462-1.753 1.311-1.753 1.311-4.96 3.163-3.485.114-6.01-1.464-9.04-3.04a513 513 0 0 1-4.585-2.585L400.937 554c-5.157-2.928-10.23-5.953-15.19-9.203a340 340 0 0 0-6.524-4.156l-1.964-1.233a570 570 0 0 0-3.842-2.389c-1.507-.953-2.967-1.98-4.417-3.019v-2l5 1 1 3 2.5.813c3.99 1.353 6.875 3.343 10.313 5.73 2.338 1.623 2.338 1.623 5.687 3.207L396 547l1 2a95 95 0 0 0 5.813 2.563l3.207 1.316c3.218 1.21 5.853 2.151 9.293 2.058 2.694-.94 3.756-1.74 5.824-3.613 3.928-3.444 8.085-6.457 12.363-9.449.72-.512 1.441-1.024 2.184-1.55 4.321-3.04 8.71-5.74 13.316-8.325 2.242-1.682 4.35-3.324 6.293-5.344 3.166-3.071 6.744-5.681 10.21-8.402 2.285-2.062 3.408-3.426 4.497-6.254"/><path fill="#148CB4" d="m287 410-1 3a99 99 0 0 1-6.562 3.438c-8.248 4.174-15.349 9.461-22.611 15.14-2.582 2.01-5.204 3.966-7.827 5.922a7519 7519 0 0 0-10.05 7.547l-2.14 1.607-4.117 3.098A1328 1328 0 0 1 227 454l-1.933 1.46c-1.656 1.226-3.359 2.388-5.067 3.54-2.937.313-2.937.313-5 0v-3a102 102 0 0 1 6.813-5.812l2.14-1.707c23.062-18.24 23.062-18.24 31.047-22.481h2v-2l2.605-1.285c7.353-3.648 14.59-7.413 21.75-11.43C284 410 284 410 287 410"/><path fill="#051F4A" d="M557 664c13.517-.705 13.517-.705 17.145 1.02 1.355 1.418 1.355 1.418 2.855 4.98.272 3.214-.048 5.92-1 9-1.625 2.563-1.625 2.563-4 4-3.5.375-3.5.375-7 0l-4-2v9l-4-1z"/><path fill="#072856" d="M881 517h2c-1.3 4.806-2.585 9.467-4.937 13.875-2.243 4.221-3.602 8.627-5.06 13.168-1.126 3.32-2.476 6.463-3.976 9.629-1.491 3.38-2.73 6.868-4.027 10.328h42l1-2-1 5c-11.225 3.764-23.164 4.323-34.816 2.355-3.54-.864-6.918-1.722-10.184-3.355-.284-4.644-.242-8.31 1.313-12.75 1.469-2.83 3.028-5.53 4.687-8.25 4.825-9.086 8.844-18.597 13-28"/><path fill="#051F4A" d="M680 664c13.517-.705 13.517-.705 17.145 1.02 1.355 1.418 1.355 1.418 2.855 4.98.325 3.244.055 5.913-1 9-2.125 2.563-2.125 2.563-5 4-3.608.38-6.074.38-9.437-1L683 681l1 2c.04 2 .043 4 0 6l-4 1zM638 656l3 1v25c-9.668 1.074-9.668 1.074-13 1-2.84-1.34-2.84-1.34-5-3-1.375-2.25-1.375-2.25-2-5 .063-3.562.063-3.562 1-7 2.063-2.437 2.063-2.437 5-4 3.868-.528 7.277-.241 11 1z"/><path fill="#04767E" d="M463 591c3.375.547 5.082 1.055 8 3v2c-1.766 1.43-1.766 1.43-4.25 3.09l-2.76 1.86-2.99 1.987-6.102 4.106-3.051 2.044c-3.76 2.527-7.494 5.09-11.222 7.663l-3.84 2.645-1.886 1.299a3093 3093 0 0 1-5.84 4.005 1985 1985 0 0 0-25.22 17.574l-1.953 1.363a70 70 0 0 0-3.69 2.861c-1.692 1.366-3.255 2.522-5.196 3.503-5.035.11-8.733-1.631-13.052-3.984l-2.135-1.203q-2.248-1.23-4.497-2.458l-2.214-1.217c-3.807-2.061-7.697-3.949-11.586-5.849-2.58-1.322-5.047-2.77-7.516-4.289l1-2 1.924.978q4.348 2.204 8.701 4.397l3.027 1.54 2.95 1.483 2.697 1.365c2.849 1.305 5.714 2.298 8.701 3.237v2c5.96 2.307 5.96 2.307 12.188 2.75L395 646l1-3c2.438-1.687 2.438-1.687 5-3h2v-2c1.828-1.239 3.717-2.389 5.625-3.5 6.872-4.087 13.318-8.648 19.78-13.347 3.041-2.2 6.123-4.339 9.204-6.481a523 523 0 0 0 5.157-3.656c.902-.645 1.804-1.29 2.734-1.953l2.469-1.778L450 606h2v-2c2.762-1.847 5.622-3.482 8.496-5.148L463 597c1.018-2.011 1.018-2.011 1-4z"/><path fill="#051F4A" d="m533 664 7.25-.25 2.263-.11c1.815-.03 1.815-.03 5.487.36 2.426 1.805 2.426 1.805 4 4 .938 3.375.938 3.375 1 7-1.25 3.313-1.25 3.313-3 6l-3 2c-3.705.199-6.47.177-10-1l-1 7h-3z"/><path fill="#148CB4" d="M204 463c3.375-.312 3.375-.312 6 0v4c-2.229 1.986-4.382 3.667-6.812 5.375l-4.461 3.23c-.781.56-1.562 1.118-2.367 1.693a419 419 0 0 0-6.774 5.003c-12.107 9.082-24.573 17.591-37.138 26.02-2.449 1.614-2.449 1.614-4.522 3.461L146 513c-2.25-.312-2.25-.312-4-1l1.37-1.035c8.403-6.356 16.697-12.775 24.747-19.574 4.08-3.384 8.29-6.59 12.504-9.805 3.63-2.77 7.226-5.58 10.816-8.399l1.719-1.345 1.653-1.299 1.606-1.262q1.632-1.321 3.209-2.705c1.417-1.242 2.893-2.414 4.376-3.576"/><path fill="#0F4F86" d="M253 424h4v2c-1.844 1.305-1.844 1.305-4.5 2.875-4.906 3.04-9.568 6.29-14.187 9.75l-2.057 1.509c-3.65 2.721-7.008 5.531-10.24 8.741-7.36 7.14-7.36 7.14-12.016 9.125-5.46-.194-9.417-2.275-14.234-4.707-5.145-2.405-10.545-4.187-15.894-6.08a906 906 0 0 1-26.185-9.776l-3.363-1.316L152 435l-1-2c3.63.645 6.97 1.61 10.438 2.855l3.18 1.13 3.382 1.202c10.866 3.805 21.74 7.461 32.907 10.282 1.766.448 3.52.936 5.273 1.433 2.954.6 4.856.696 7.82.098 9.138-3.598 17.014-9.475 24.387-15.852 3.618-2.974 7.506-5.394 11.496-7.836 2.024-1.143 2.024-1.143 3.117-2.312"/><path fill="#12669D" d="m308 512-1 3c-1.524 1.236-1.524 1.236-3.516 2.46-.745.466-1.49.93-2.259 1.409l-2.475 1.506-2.575 1.594a1674 1674 0 0 1-5.428 3.343 1140 1140 0 0 0-7.907 4.91c-16.975 10.607-34.194 20.793-51.613 30.652-3.713 2.102-7.409 4.212-11.032 6.466L217 569.312l-2.625 1.676C212 572 212 572 209.613 571.828c-3.196-1.013-6.306-2.162-9.425-3.39l-3.52-1.38L194 566v-2l2.125.656 2.875.844 2.813.844c3.813.785 7.335 1.255 11.187.656 2.966-1.16 5.605-2.708 8.313-4.375l2.126-1.25c2.91-1.72 5.748-3.5 8.561-5.375a154 154 0 0 1 4.063-2.125l2.097-1.07C240 552 240 552 242 552l1-3h3l1-2c2.438-1.625 2.438-1.625 5-3h2l1-2a88 88 0 0 1 5.438-2.625l2.996-1.352C266 537 266 537 268 537v-2c1.766-1.262 1.766-1.262 4.25-2.687l2.758-1.602L278 529q3.064-1.779 6.125-3.562l3.043-1.766a235 235 0 0 0 7.27-4.485c2.759-1.75 5.456-3.12 8.562-4.187v-2c2-1 2-1 5-1"/><path fill="#051F4A" d="m963 658 7.188-.312 2.235-.138c1.807-.038 1.807-.038 5.577.45 2.95 2.3 2.95 2.3 5 5 .625 3.5.625 3.5 0 7-1.812 2.938-1.812 2.938-5 5-3.706.406-7.289.292-11 0v7h-4z"/><path fill="#2BCCC9" d="m450 476-1 3c-2.316 1.48-2.316 1.48-5.562 3.188-22.895 12.506-44.843 28.463-65.063 44.953L376 529.063l-2 1.66c-2.32 1.482-4.292 1.896-7 2.277.227-1.754.227-1.754 1-4 11.635-12.056 28.029-20.86 42.137-29.68A546 546 0 0 0 425 489.688c4.358-2.924 8.719-5.838 13.125-8.688l2.508-1.625c2.99-1.737 5.856-3.375 9.367-3.375"/><path fill="#051F4A" d="M891 659h4l1 4 5 1-1 3h-5l1 12h5v4c-3.312.25-3.312.25-7 0-1.719-1.625-1.719-1.625-3-4-.293-3.016-.293-3.016-.187-6.25l.082-3.266L891 667l-5-2-.3 2.453c-.853 4.325-2.265 8.21-3.888 12.297l-.845 2.324c-.85 2.137-1.68 4.019-2.967 5.926-3.05 1.578-3.05 1.578-6 2l-3-1v-3h6c.284-3.238-.054-5.136-1.277-8.191l-1.66-3.371C868.68 667.52 868.68 667.52 868 664h4q1.256 2.934 2.5 5.875l1.406 3.305C877 676 877 676 877 678h2l.332-1.793c.714-3.559 1.541-6.88 2.856-10.27L884 664c3.688-.312 3.688-.312 7 0zM682 531l1 2h2c1.625 2.375 1.625 2.375 3 5v2l1.75.75C692 542 692 542 693.938 544c2.242 2.175 4.124 3.02 7.062 4v2l3.5.75c6.545 1.453 13.038 3.116 19.537 4.756 2.84.715 5.683 1.416 8.525 2.119l2.91.738c2.004.505 4.015.982 6.028 1.45 6.508 2.208 12.782 5.375 18.5 9.187v2h2c1.226 3.678.703 5.882.063 9.688l-.59 3.574L761 587h-2l.36-2.23c.39-2.954.653-5.79.64-8.77-1.254-3.088-1.254-3.088-4-5-7.654-4.74-16.502-6.944-25.157-9.092-30.03-7.452-30.03-7.452-40.843-16.908-3.343-3.329-6.138-6.63-8-11z"/><path fill="#072856" d="M1054.5 663.375c3.398.221 4.573.67 7.563 2.563 1.875 2.964 2.366 4.19 2.624 7.562-.148 2.336-.148 2.336-.687 4.5-2.437 3.125-2.437 3.125-4.082 4.25-2.33.911-4.047 1.007-6.543.875-3.177-.584-4.35-1.105-6.937-3.187-1.583-3.234-2.092-5.433-1.876-9C1045 669 1045 669 1046.939 666c3.006-1.963 4.121-2.407 7.562-2.625M136 547c6.227 1.654 11.54 3.558 17 7-7.758 8.56-18.03 14.361-27.777 20.375-4.179 2.583-8.297 5.253-12.41 7.938-6.721 4.373-13.5 8.646-20.313 12.875l-2.81 1.749-2.596 1.606-2.323 1.438C83 601 83 601 82 601v-15h1l.188 2.375L84 591c2.04 1.654 2.04 1.654 5 2 2.972-1.08 5.53-2.741 8.188-4.437l2.134-1.295c3.94-2.422 7.749-4.998 11.526-7.666 5.353-3.783 10.857-7.297 16.402-10.79 8.431-5.32 8.431-5.32 16.75-10.812l-1-7-2.937-.875L137 549zM515 658c2.375.262 2.375.262 5 1 1.188 1.645 1.188 1.645 2 3.813l.953 2.433L524 668q1.371 3.188 2.75 6.375C529 679.62 529 679.62 529 683c-1.875-.25-1.875-.25-4-1l-2-4h-14l-1 4-4 1c2.538-8.882 6.778-16.826 11-25"/><path fill="#062754" d="M799 658c2.45-.023 2.45-.023 5 1 1.582 2.836 1.582 2.836 2.813 6.375l1.269 3.523C809 672 809 672 809 675h2l2 8-4-1c-1.25-2.062-1.25-2.062-2-4a244 244 0 0 0-6.312-.312l-3.551-.176L794 678c-1.98 2.395-1.98 2.395-3 5l-4-1q2.429-5.441 4.875-10.875l1.395-3.129 1.347-2.988 1.238-2.761C797 660 797 660 799 658"/><path fill="#072856" d="M584 514h2c-.65 3.9-1.815 7.288-3.328 10.938l-1.426 3.464L579.75 532c-3.317 8.02-6.577 16.05-9.663 24.16A475 475 0 0 1 567 564l3.333-.016q6.128-.026 12.255-.039 2.652-.008 5.302-.02c2.542-.013 5.084-.018 7.626-.023l2.39-.015c3.54 0 6.689.159 10.094 1.113v-5l2 1v5c-7.056 2.51-13.339 3.488-20.812 3.375l-2.896-.024c-7.158-.144-14.642-.44-21.292-3.351l-1-3c3.006-11.878 8.943-23.236 13.862-34.4 2.117-4.837 4.14-9.712 6.138-14.6"/><path fill="#051F4A" d="M1083 664c13.657-.126 13.657-.126 18 1l2-1c5.79-.368 5.79-.368 8 0 1.742 1.004 1.742 1.004 3 3 .217 2.811.283 5.388.188 8.188l-.042 2.271c-.035 1.847-.089 3.694-.146 5.541l-4-1 .07-2.047.055-2.703.07-2.672c-.204-2.692-.83-4.277-2.195-6.578a100 100 0 0 0-5 0l-1 1a168 168 0 0 0-.562 6.563l-.254 3.628L1101 682l-4 1-1-15h-6l-2 2c-.464 2.892-.464 2.892-.625 6.125l-.227 3.32L1087 682h-4z"/><path fill="#072A58" d="M349 396c6.447.544 11.87 2.712 17.813 5.188l2.83 1.134c6.5 2.675 12.432 5.902 18.357 9.678-1.81.56-1.81.56-4 1q-2.432-.768-4.863-1.538c-4.481-.97-9.093-.42-13.637-.15l-3.05.147c-9.364.436-9.364.436-18.45 2.541l-2-2c4.122-2.506 7.22-4.18 12-5l2-2v-3c-2.176-2.476-4.246-4.164-7-6"/><path fill="#03757D" d="M354 637c5.623 1.358 10.147 3.525 15.125 6.438l2.09 1.197a364 364 0 0 1 8.633 5.107c2.078 1.215 3.797 1.822 6.152 2.258-.105 1.734-.105 1.734-1 4a66 66 0 0 1-6.312 4.25q-1.943 1.202-3.883 2.406l-1.962 1.203C361.629 670.8 350.87 678.54 340 686l-2-2 2.266-1.645 2.984-2.168 2.953-2.144L349 676l2.203-1.598c2.011-1.499 2.011-1.499 4.297-4.027 2.5-2.375 2.5-2.375 4.625-3L362 667c1.583-1.417 1.583-1.417 3-3l3-2c2.315-2.135 4.318-4.33 6-7 .504-3.795.504-3.795 0-7l-2.012-.742c-3.732-1.571-7.242-3.456-10.8-5.383l-2.1-1.129A2531 2531 0 0 1 354 638z"/><path fill="#148CB4" d="M204 577c1.853-.072 3.708-.084 5.563-.062l3.066.027L215 577v3c-18.72 8.998-18.72 8.998-27.652 12.629-12.58 5.152-25.06 10.558-37.348 16.371l8 3-2 3-2.047-.84-2.703-1.097-2.672-1.09A47 47 0 0 0 142 610v-2l2.142-.803c28.602-10.697 28.602-10.697 55.571-24.869L202 581h2l-1-3z"/><path fill="#072856" d="M209 512h3v2a164 164 0 0 1-7.375 5.313l-4.7 3.261-2.466 1.709c-3.916 2.734-7.781 5.537-11.647 8.342-4.305 3.122-8.611 6.24-12.953 9.313l-1.948 1.38q-1.79 1.266-3.586 2.524c-2.67 1.89-5.053 3.81-7.325 6.158l-35-14v-2c6.232 1.106 11.13 2.903 16.73 5.828 5.737 2.962 11.808 4.39 18.27 4.172 2.865-1.198 4.585-2.181 7-4 1.25-.893 1.25-.893 2.523-1.805a601 601 0 0 0 5.633-4.105c4.228-3.107 8.53-6.105 12.844-9.09l1.887-1.324A108 108 0 0 1 194 523h2v-2c2.082-1.656 2.082-1.656 4.813-3.5l2.707-1.844q2.74-1.83 5.48-3.656"/><path fill="#051F4A" d="M609 663.375c2.063.14 2.063.14 4 .625 3 2.125 3 2.125 5 5v6h-15l4 4c2.355.48 2.355.48 4.75.25l2.422-.11L616 679l-1 3c-2 1-2 1-5.312 1.25-3.688-.25-3.688-.25-6.563-1.625C601 680 601 680 600 678c-.42-3.06-.453-5.942 0-9 2.48-3.797 4.538-5.295 9-5.625M1006.965 663.477c2.035.523 2.035.523 4.273 2.62C1013 669 1013 669 1013.391 672.333l-.141 3.48-.11 3.52L1013 682c-4.335 1.222-8.522 1.493-13 1-2.562-1.5-2.562-1.5-4-3 .256-2.343.593-4.678 1-7 2.525-1.262 4.312-1.099 7.125-1.062l2.758.027L1009 672l-2-4h-9v-3c3.026-1.009 5.796-1.291 8.965-1.523"/><path fill="#0F3B69" d="M193 635h4v2a162 162 0 0 1-7.812 4.875 3452 3452 0 0 0-5.032 3.016l-2.617 1.568c-3.074 1.866-6.102 3.797-9.128 5.74C158.863 660.891 144.932 668.942 131 677l-2.796 1.62q-3.377 1.95-6.767 3.88l-1.871 1.077c-2.81 1.582-5.373 2.861-8.566 3.423l-1-3 3.078-1.504c7.578-3.73 14.997-7.585 22.258-11.91 4.723-2.812 9.544-5.444 14.383-8.05 5.56-3.002 10.972-6.114 16.281-9.536l3.254-2.066c6.35-4.043 12.62-8.16 18.758-12.524A209 209 0 0 1 193 635"/><path fill="#051F4A" d="m711.375 663.625 2.336-.148c2.289.523 2.289.523 4.562 2.62C720 669 720 669 720.391 672.333l-.141 3.48-.11 3.52L720 682c-4.333 1.444-8.472 1.533-13 1-2.687-1.687-2.687-1.687-4-4 .125-2.625.125-2.625 1-5l2-2c2.383-.414 2.383-.414 5.125-.625l2.758-.227L716 671l-1-3h-10v-3c2.287-1.144 3.829-1.265 6.375-1.375"/><path fill="#072856" d="M791 487h3c-1.741 5.86-3.985 11.196-6.793 16.625-1.56 3.069-2.893 6.194-4.207 9.375-5.006-.516-8.768-1.612-13.25-3.875-11.85-5.68-23.64-7.79-36.75-7.125-4.542.54-8.027 1.4-11.937 3.813-2.18 2.311-3.14 4.167-4.063 7.187l-2-1c.25-2.25.25-2.25 1-5 2.784-3.506 5.915-5.25 10-7 10.354-2.606 21.222-1.435 31.395 1.291 5.368 1.534 10.501 3.464 15.605 5.709 2.978 1.247 5.847 2.3 9 3l1.125-3.625c2.197-6.632 5.066-12.985 7.875-19.375"/><path fill="#107BA5" d="M235 398v3h-3v2l-2.16.516c-6.588 1.648-6.588 1.648-12.653 4.609-3.205 1.885-5.52 2.517-9.187 2.875v2l-2.668.805-3.52 1.07-3.48 1.055c-2.84.912-5.58 1.92-8.332 3.07l-1-2 1-3c6.135-4.78 13.533-6.446 21-8v-2l2.45-.805 3.238-1.07 3.199-1.055a89 89 0 0 0 5.77-2.195c3.161-1.18 6-1.006 9.343-.875"/><path fill="#051F4A" d="m757.438 663.75 2.37-.078c2.192.328 2.192.328 3.965 1.332C765 667 765 667 765.293 670.793a215 215 0 0 1-.106 4.394l-.04 2.272c-.036 1.847-.09 3.694-.147 5.541-1.916.081-3.833.14-5.75.188l-3.234.105C753 683 753 683 750.633 681.68L749 680c-.375-3.062-.375-3.062 0-6l2-2c2.602-.414 2.602-.414 5.625-.625l3.04-.227L762 671l-2-3c-2.437-.364-2.437-.364-5.125-.187l-2.758.082L750 668l1-3c2.327-1.163 3.847-1.199 6.438-1.25M847.438 663.688l2.37-.114L852 664c1.742 1.566 1.742 1.566 3 4 .512 3.453.512 3.453.688 7.25l.199 3.828L856 682c-4.35 1.226-8.505 1.454-13 1-2.562-1.187-2.562-1.187-4-3-.437-2.5-.437-2.5 0-5 1.234-1.613 1.234-1.613 3-3 2.262-.512 2.262-.512 4.688-.687l2.449-.2L851 671l-1-3h-9v-3c2.314-1.157 3.86-1.232 6.438-1.312"/><path fill="#072856" d="m663.797 657.707 2.953.106 2.984.082L672 658l2 4h-12v4l2.082.77 2.73 1.043 2.708 1.019c2.44 1.15 3.839 2.046 5.48 4.168.375 3 .375 3 0 6-1.545 2.037-2.721 2.86-5 4-4.634.309-7.2.343-11.5-1.5L656 680l1-3 2.336.473 3.039.59 3.023.597L668 679l2-1c-.12-1.953-.12-1.953-1-4-2.24-1.287-2.24-1.287-4.937-2.125-4.89-1.703-4.89-1.703-7.063-3.875-.375-3.437-.375-3.437 0-7 2.25-2.314 3.57-2.955 6.797-3.293"/><path fill="#051F4A" d="M688 575c3.882.638 6.508 2.527 9.75 4.688 10.29 6.597 23.25 11.991 35.582 12.648q2.24.043 4.48.039l2.367.004c6.489-.118 11.973-1.493 17.821-4.379-.766 1.863-.766 1.863-2 4-3.311 2.35-7.023 3.75-10.937 4.75-11.887.97-22.205-1.146-33-6.25A460 460 0 0 1 705 587l-3.285-1.582C699 584 699 584 696.5 581.812L694 580c-3.126-.417-3.126-.417-6 0l-2 1z"/><path fill="#062755" d="M1072 544c0 3 0 3-1.062 4.938-3.238 3.446-6.713 5.37-11.172 6.757-12.778 2.818-27.074 2.142-39.766-.695v-1c4.124-.977 8.045-1.167 12.277-1.246l4.244-.1q3.315-.072 6.63-.13c2.146-.04 4.292-.092 6.439-.145l3.87-.076c5.274-.451 9.442-1.996 13.852-4.865l2.051-1.317c1.598-1.02 1.598-1.02 2.637-2.121"/><path fill="#026673" d="M252 659h4l1 4c-10.308 6.258-20.806 12.126-31.437 17.813l-1.81.968c-7.197 3.851-14.427 7.617-21.753 11.219v-3l2.93-1.54c8.795-4.638 8.795-4.638 17.382-9.648 3.868-2.368 7.819-4.4 11.895-6.382 4.105-2.102 8.081-4.42 12.06-6.752 2.565-1.492 4.907-2.736 7.733-3.678v-2z"/><path fill="#0F4F86" d="m308 512-1 3c-1.524 1.236-1.524 1.236-3.516 2.46l-2.262 1.41-2.472 1.505-2.544 1.576q-2.695 1.668-5.398 3.326a1931 1931 0 0 0-8.46 5.227 2711 2711 0 0 1-13.037 8.054 179 179 0 0 0-4.595 2.966l-2.142 1.417-1.876 1.276L259 545l-3-1v-2q2.434-1.256 4.875-2.5l2.742-1.406C266 537 266 537 268 537v-2c1.766-1.262 1.766-1.262 4.25-2.687l2.758-1.602L278 529q3.064-1.779 6.125-3.562l3.043-1.766a235 235 0 0 0 7.27-4.485c2.759-1.75 5.456-3.12 8.562-4.187v-2c2-1 2-1 5-1"/><path fill="#051F4A" d="M817 664c10.645-.39 10.645-.39 14 0 1.938 1.531 1.938 1.531 3 4 .213 2.673.285 5.093.188 7.75l-.042 2.113A395 395 0 0 1 834 683h-3l-1-15h-7c-2.402 4.804-2.611 9.731-3 15h-3z"/><path fill="#072856" d="M888 515h2l.682 1.55a899 899 0 0 0 5.974 13.227l1.41 3.057q1.432 3.098 2.868 6.195A906 906 0 0 1 905 548l1.305 2.84 1.164 2.664 1.045 2.342L909 558c-.904 2.281-.904 2.281-2 4-2.028-2.028-2.612-3.182-3.629-5.797l-.935-2.375-.999-2.578-2.128-5.418-1.13-2.873a659 659 0 0 0-3.706-9.072l-1.25-3.011a1591 1591 0 0 0-2.428-5.803l-1.107-2.67-.989-2.36C888 518 888 518 888 515"/><path fill="#0F4D83" d="M260 399a60 60 0 0 1 9.914 2.672l2.792 1.007 2.919 1.071 2.984 1.088c5.945 2.192 11.757 4.496 17.465 7.252 2.066 1.023 2.066 1.023 4.926 1.91v2c-4.121-.924-7.491-1.736-11.25-3.687L287 411c-3.251.51-6.214 1.824-9.25 3.063l-2.703 1.097L273 416v-3l2-2-1.937-1.75C271 407 271 407 270.25 404.75L270 403l-2.75-.312c-3.27-.692-4.787-1.51-7.25-3.688"/><path fill="#051F4A" d="m940.043 663.805 2.144.07L946 664l1 4h-8v2l1.715.586 2.222.789 2.215.773L947 673c1 2 1 2 1.25 5l-.25 3c-3 2-3 2-6.437 2.25-3.223-.226-4.896-.543-7.563-2.25v-2h10l-1-3a126 126 0 0 0-7-3l-1-1c-.25-2.937-.25-2.937 0-6 3-2 3-2 5.043-2.195"/><path fill="#072856" d="M921.266 663.664c5.873-.095 5.873-.095 8.734 1.336v4l-1.863-.36c-2.417-.385-4.689-.662-7.137-.64l-2.187 1.563L918 672c.712 3.222.712 3.222 2 6 3.695.95 6.305.95 10 0-.375 1.938-.375 1.938-1 4-2 1-2 1-5.312 1.313C920 683 920 683 917.125 681.125 915 679 915 679 914 677c-.289-2.936-.464-5.143 0-8 2.052-3.178 3.437-4.768 7.266-5.336"/><path fill="#FEFEFE" d="M690 666.625c3 .375 3 .375 4.875 1.438C696 670 696 670 696.375 673.5 696 677 696 677 694.938 679L693 680c-3.562-.187-3.562-.187-7-1l-2-2c-.312-3.437-.312-3.437 0-7l1.125-1.937C687 667 687 667 690 666.625"/><path fill="#11679D" d="m372 590-1 3a88 88 0 0 1-6.055 4.203l-1.867 1.215c-1.98 1.285-3.966 2.559-5.953 3.832q-1.95 1.263-3.898 2.527a1182 1182 0 0 1-7.636 4.909 263 263 0 0 0-6.815 4.52l-2.909 1.966-2.504 1.737L331 619c-3.417-.33-6.011-1.34-9-3v-2l3.375.813c2.703.328 4.433.25 7.031-.614 5.432-2.638 10.317-5.968 15.207-9.492 4.859-3.475 9.705-6.754 15.387-8.707v-2c6.75-4 6.75-4 9-4"/><path fill="#FEFEFE" d="M631.563 666.625c2.437.375 2.437.375 4.25 1.438C637 670 637 670 637.375 673.5c-.375 3.5-.375 3.5-1.5 5.438C634 680 634 680 631 680.438l-3-.438c-1.875-1.625-1.875-1.625-3-4-.437-3.062-.437-3.062 0-6 2.117-2.352 3.44-2.918 6.563-3.375"/><path fill="#051F4A" d="M1019 659h4v5h5v3h-5l1 12 5 1v3c-3.312.25-3.312.25-7 0-1.719-1.625-1.719-1.625-3-4-.293-3.016-.293-3.016-.187-6.25l.082-3.266L1019 667l-3-1 1-2h2zM726 659h4v5h5v3h-5l1 12h5v4c-2.812.125-2.812.125-6 0l-3-2c-1.05-3.15-1.101-5.388-1.062-8.687l.027-3.012L726 667l-3-1 1-2h2z"/><path fill="#FEFEFE" d="M1052 667c3.625.063 3.625.063 7 1l2 3c-.375 3.688-.375 3.688-1 7-2.687 1.188-2.687 1.188-6 2-2.812-1-2.812-1-5-3-1.062-2.937-1.062-2.937-1-6 1.5-2.437 1.5-2.437 4-4M564 667c2.938-.312 2.938-.312 6 0l1.875 1.063C573 670 573 670 573.375 673.5 573 677 573 677 571.938 679c-1.938 1-1.938 1-5.5.875L563 679l-2-3c.25-3.562.25-3.562 1-7zM543 666.625c3 .375 3 .375 4.938 1.375 1.062 2 1.062 2 1.12 3.91-.184 2.159-.368 4.033-1.058 6.09l-3 2c-3.062-.25-3.062-.25-6-1l-2-2c-.312-3.437-.312-3.437 0-7l1.125-1.937C540 667 540 667 543 666.625"/><path fill="#051F4A" d="M1040.188 655.813 1043 656l1 3-5 1-1 4h4v3l-4 1-1 15h-3v-16l-3-1v-2h3l-.187-2.312c.187-2.688.187-2.688 1.312-4.5C1037 656 1037 656 1040.188 655.813"/><path fill="#026673" d="M300 612c8.429 1.998 15.534 5.729 23 10-3.363 4.968-7.477 7.448-12.562 10.375l-2.327 1.402-4.273 2.498L302 637l-3-1a194 194 0 0 1 8.625-6.187l2.352-1.606L312 627h2v-7l-14-7z"/><path fill="#14969C" d="M210 698c5.143.523 9.004 2.377 13.438 4.875 7.262 3.976 14.645 7.636 22.125 11.188l3.12 1.481Q252.34 717.276 256 719v4a141 141 0 0 1-4.668-2.46c-10.777-5.88-21.827-11.14-32.922-16.39A383 383 0 0 1 210 700zM322 748a370 370 0 0 1 17.313 5.5c6.796 2.316 13.653 4.041 20.687 5.5l-1 2a112.4 112.4 0 0 1-20-3.312l-2.632-.667c-5.987-1.558-11.759-3.379-17.368-6.021z"/><path fill="#FEFEFE" d="M968 661c3.663-.136 6.506-.165 10 1l1 7c-1.5 1.5-1.5 1.5-4 3-2.721.265-5.255.137-8 0a758 758 0 0 1-.062-4.937l-.036-2.778L967 662z"/><path fill="#072856" d="m222 457 1 3c2.187.788 2.187.788 4.938 1.25 5.689 1.283 10.965 3.112 16.375 5.25l2.279.9a294 294 0 0 1 10.318 4.33c2.864 1.454 2.864 1.454 5.215 1.082L264 472l2.75-1.062L269 470c-1.302 2.905-2.709 4.81-5 7-6.46-1.733-12.614-3.983-18.803-6.513-8.316-3.383-16.762-6.418-25.197-9.487v-3z"/><path fill="#12669D" d="M425 430h2l-1 3c-1.61 1.07-1.61 1.07-3.75 2.125-4.25 2.24-8.184 4.767-12.125 7.5l-1.694 1.165c-2.717 1.897-5.132 3.831-7.431 6.21q-1.816 1.38-3.687 2.688c-.623.436-1.246.873-1.887 1.324L394 455l-2-1v-3l2.086-.687c3.592-1.618 6.484-3.872 9.539-6.313 6.167-4.861 6.167-4.861 9.375-7 .724-2.06.724-2.06 1-4l2.688.188c3.348.047 3.348.047 6.062-1.688z"/><path fill="#051F4A" d="m772 656 3 1v25h-4q-.042-6.22-.062-12.437l-.026-3.588-.01-3.409-.016-3.158L771 657zM862 656l3 1v25h-4q-.042-6.22-.062-12.437l-.026-3.588-.01-3.409-.016-3.158L861 657zM1069 664h10v3l-5 2-1 13h-4z"/><path fill="#072856" d="M243 477c4.847.591 8.607 1.98 13 4v2l-2.812 1.5c-5.368 3.048-10.245 6.818-15.188 10.5l-2-2 2.223-1.504c2.807-2.035 5.365-4.001 7.777-6.496.533-3.879.533-3.879-1-7z"/><path fill="#051F4A" d="M582 656h3v27h-3a3593 3593 0 0 1-.562-12.375l-.17-3.562-.147-3.399-.143-3.142C581 658 581 658 582 656"/><path fill="#0F4F86" d="M93 515c1 4 1 4 1 8l3.508.805 4.617 1.07 2.305.527c4.277.996 8.424 2.128 12.57 3.598l-2 4c-8.656-2.094-16.172-5.883-24-10z"/><path fill="#0F5087" d="M384 459h2l-1 3c-1.775 1.499-1.775 1.499-4.086 3.074l-2.558 1.763-2.731 1.85-5.477 3.77-2.68 1.838c-4.554 3.146-9.016 6.417-13.468 9.705l-2-2q6.531-4.726 13.07-9.441 4.594-3.313 9.172-6.649l3.758-2.723 1.758-1.29A122 122 0 0 1 384 459"/><path fill="#051F4A" d="M988 656h3v27h-3z"/><path fill="#0F3E6C" d="M309 419c3.502.748 6.646 2.039 9.938 3.438 3.674 1.556 7.352 3.093 11.062 4.562l-1 2c-5.222 2-5.222 2-8 2a83 83 0 0 0-4 3l-2-1 2-3c.39-1.99.732-3.99 1-6l-2.812-.812C312 422 312 422 310.125 420.375z"/><path fill="#072856" d="M312 414q2.22.654 4.438 1.313l2.765.804c2.797.883 2.797.883 5.219 1.89 2.233.917 4.187 1.647 6.578 1.993 2.872-.904 4.52-2.165 7-4l3-2 1 3c-1.38 1.206-2.78 2.39-4.187 3.563-.778.66-1.555 1.322-2.356 2.003L333 424c-4.783-.066-9.144-2.905-13.312-5.062l-2.245-1.143Q314.72 416.405 312 415z"/><path fill="#051F4A" d="M740 664h4v18l-4 1zM906 664h3v19l-4-1q-.04-4.22-.062-8.437l-.026-2.432c-.009-2.044.036-4.088.088-6.131zM591 664l4 1v17l-4 1z"/><path fill="#0D8485" d="m350 519 4 1v2c1.995.681 3.996 1.344 6 2l3.563 1.313L367 526c2.802-1.263 2.802-1.263 5-3h2l-1 3a117 117 0 0 1-5 4l-2 2c-2.674-1.78-5.338-3.576-8-5.375l-2.312-1.54-2.188-1.483-2.031-1.365L350 521z"/><path fill="#118896" d="m277 648 2 1v2c-2.905 2.165-6.114 3.879-9.25 5.688l-2.645 1.587-2.558 1.487-2.349 1.373L260 662c-2.284-.36-2.284-.36-4-1l3-2 1.5-1.562C262 656 262 656 265 655c1.704-.972 3.39-1.975 5.063-3 4.791-2.927 4.791-2.927 6.937-4"/><path fill="#026673" d="M485 570h2v25l-3-1c-1.04-3.122-.992-4.67-.66-7.887l.283-2.842.315-2.958.302-2.995q.372-3.66.76-7.318"/><path fill="#072856" d="M596 530c2.414 2.158 3.573 3.947 4.625 7l.727 2.063q.825 2.467 1.648 4.937l2 1-1 2h2c3.098 7.055 3.098 7.055 2.688 11l-.688 2c-3.106-4.66-4.979-9.842-7.125-15l-1.418-3.352-1.34-3.21-1.23-2.942C596 533 596 533 596 530"/><path fill="#FEFEFE" d="M516 663h2q.758 1.903 1.5 3.813l.844 2.144C521 671 521 671 521 674h-9c.607-4.128 2.038-7.332 4-11"/><path fill="#118796" d="M384 714c7.296.332 12.252 2.926 18.5 6.563l2.781 1.576A744 744 0 0 1 412 726v3l-3.332-1.793c-8.11-4.342-16.209-8.571-24.668-12.207z"/><path fill="#FEFEFE" d="M799 664h3c3 6.625 3 6.625 3 10h-9c.61-3.558 1.578-6.683 3-10"/><path fill="#0F3B68" d="M357 768c-1.61 1.848-2.845 2.933-5.113 3.907-2.605.792-5.21 1.58-7.824 2.343l-2.749.852-2.654.789-2.418.72c-2.427.421-3.925.161-6.242-.611 3.907-2.605 7.92-3.727 12.375-5.125l2.578-.84 2.508-.793 2.275-.723c2.485-.57 4.723-.608 7.264-.519"/><path fill="#072856" d="M570 664c2.357.975 3.938 1.938 5.75 3.75C577 670 577 670 577.563 673l-.563 3c-3 2.375-3 2.375-6 4l1-3c.333-3.5.333-3.5 0-7-1.354-1.944-1.354-1.944-3-3z"/><path fill="#0F4E85" d="M297 448h2l-1 3c-2.215 1.824-2.215 1.824-4.937 3.688l-2.715 1.886L288 458h-2v2c-1.812 1.688-1.812 1.688-4 3l-3-1c3.61-3.813 7.353-6.862 11.688-9.812.58-.407 1.16-.814 1.76-1.233 1.49-1.025 3.019-1.995 4.552-2.955"/><path fill="#026673" d="M222 769c1.349.635 2.68 1.308 4 2q2.705 1.067 5.438 2.063l2.808 1.035c2.578.844 5.085 1.432 7.754 1.902v2c-8.374-1.128-16.065-3.102-24-6v-2c1.75-.625 1.75-.625 4-1"/><path fill="#12669D" d="m108 536 1 3a1530 1530 0 0 1-8.312 5.5l-2.381 1.59-2.295 1.504-2.11 1.396C92 550 92 550 89 550l1-3a87 87 0 0 1 6.25-4l1.738-1.04A861 861 0 0 1 103 539q2.5-1.498 5-3"/><path fill="#FEFEFE" d="M845 674c3.188-.125 3.188-.125 6 0v4l-2 2c-3.125.125-3.125.125-6 0l-1-4zM606 667c2.875-.25 2.875-.25 6 0 1.875 1.375 1.875 1.375 3 3v2h-12c2-4 2-4 3-5"/><path fill="#051F4A" d="M1081 480c7.73 1.838 13.021 5.782 19 11 2.25 2.534 4.213 5.123 6 8h-3c-1.543-1.54-1.543-1.54-3.187-3.625-5.306-6.322-11.607-10.472-18.813-14.375z"/><path fill="#072856" d="M892 474c1.937-.081 3.875-.14 5.813-.187l3.269-.106C904 474 904 474 905.75 475.195c1.524 2.201 2.477 4.369 3.438 6.868l1.042 2.66C911 487 911 487 911 489h-2l-1.242-2.59-1.633-3.348-1.617-3.34L903 477c-2.296-1.148-4.077-1.308-6.625-1.562l-2.477-.254L892 475z"/><path fill="#FEFEFE" d="M759.813 674.375 762 675c-.375 1.938-.375 1.938-1 4-2.709 1.354-5.01 1.065-8 1l-1-4c2.917-1.417 4.554-2.06 7.813-1.625M715 674l1 4-3 2c-2.687.125-2.687.125-5 0l-1-5c2.928-.976 4.956-1.082 8-1"/><path fill="#0D8485" d="M280 597c2.824-.18 4.777-.088 7.43.953l2.445 1.297 2.61 1.371A372 372 0 0 1 302 606l-2 1c-2.063-.62-2.063-.62-4.57-1.652l-2.715-1.104-2.84-1.182-2.863-1.17q-3.51-1.436-7.012-2.892z"/><path fill="#04767E" d="M262 597c3.95.551 7.35 1.39 11 3l-3 1v2l-1.937.375L266 604l-1 2c-3-5.625-3-5.625-3-9"/><path fill="#107CA6" d="M449 420h2c-.964 13.633-.964 13.633-2 20l-2-1c-.248-6.57.676-12.57 2-19"/><path fill="#FEFEFE" d="M1000 675h9l-1 4-7 1z"/><path fill="#026874" d="M355 674v2c-1.377 1.145-1.377 1.145-3.281 2.383l-2.051 1.347-2.168 1.395-2.168 1.418A1116 1116 0 0 1 340 686l-2-2q2.621-1.942 5.25-3.875l2.953-2.18C351.876 674 351.876 674 355 674"/><path fill="#21988C" d="M241 582c1.605.087 3.21.196 4.813.313l2.707.175c2.48.512 2.48.512 4.136 1.98L254 586c2.6 1.19 2.6 1.19 5 2v2c-6.205-1.936-12.108-4.256-18-7z"/><path fill="#072856" d="M1020 502q2.514.428 5 1l-3 1v8h-3q-.04-2.22-.062-4.437l-.036-2.497L1019 503z"/><path fill="#051F4A" d="M512 674h10l1 3h-11z"/><path fill="#036974" d="M299 637v2a101 101 0 0 1-6 3.625l-3.375 1.914L287 646l-2-2a771 771 0 0 1 5.313-3.5l2.988-1.969C296 637 296 637 299 637"/><path fill="#0F4E85" d="M276 463c2.188.375 2.188.375 4 1a466 466 0 0 1-3.375 2.5l-1.898 1.406L273 469h-2v2l-3-1c2.578-2.648 4.916-4.944 8-7"/><path fill="#14969B" d="m264 605 2 2-9 5-1-4z"/><path fill="#072856" d="m620 508 3 1c1.168 2.215 1.168 2.215 2.188 4.938l1.042 2.714C627 519 627 519 627 521h-2q-1.252-2.968-2.5-5.937l-1.406-3.34C620 509 620 509 620 508"/><path fill="#0F4E84" d="M309 439h2l-1 3c-2.066 1.605-2.066 1.605-4.562 3.188l-2.504 1.605L301 448v-3c1.68-1.605 1.68-1.605 3.875-3.187l2.18-1.606z"/><path fill="#051F4A" d="M679 512h1l.184 1.863.254 2.45c.08.8.162 1.6.246 2.425.269 2.423.269 2.423 1.316 5.262.04 2 .044 4 0 6l-2-1c-1.324-3.498-1.1-7.054-1.062-10.75l.027-3.547zM1105 501l3 1c1.168 2.285 1.168 2.285 2.188 5.063l1.042 2.785.77 2.152h-3a875 875 0 0 1-2-4.375l-1.125-2.46C1105 503 1105 503 1105 501M804.5 674.938 806 676v1h-11l-1-2c7.385-1.23 7.385-1.23 10.5-.062"/><path fill="#026673" d="M340 621a775 775 0 0 1 4.438 2.875l2.496 1.617C349 627 349 627 350 629c-4.234-1.31-8.074-2.944-12-5v-2z"/><path fill="#051F4A" d="M715 516h2l1.25 2.75c1.64 3.047 3.197 4.961 5.75 7.25-2.812-.687-2.812-.687-6-2-1.875-2.437-1.875-2.437-3-5z"/><path fill="#0F3B68" d="M288 410c4.847.591 8.607 1.98 13 4v2c-4.42-.9-7.296-1.501-11-4.125z"/><path fill="#093262" d="m323 425 7 2-1 2c-1.979.727-3.98 1.398-6 2z"/><path fill="#051F4A" d="M1097 564h2c-1.143 2.91-2.2 4.171-4.625 6.25L1092 572l-2-2a483 483 0 0 1 3.375-3l1.898-1.687zM768 505q1.943.892 3.875 1.813l2.18 1.019C776 509 776 509 778 512c-3.487-1.11-6.775-2.263-10-4z"/><path fill="#051F4B" d="m525 676 3 1 1 6-4-1z"/><path fill="#026673" d="M384 652h2c-.125 1.813-.125 1.813-1 4-3.062 1.75-3.062 1.75-6 3l-1-2c4.492-3.906 4.492-3.906 6-5"/><path fill="#0D8485" d="M259 589c3.25.25 3.25.25 7 1 2.438 2.063 2.438 2.063 4 4-1.648-.449-3.294-.91-4.937-1.375l-2.778-.773L260 591z"/><path fill="#1FACB2" d="M373 667c-.562 1.875-.562 1.875-2 4-3.625 1.25-3.625 1.25-7 2 5.846-6 5.846-6 9-6"/><path fill="#04767E" d="M360 759h7v2l-7 1z"/><path fill="#072A57" d="M911 492h2c3 5.625 3 5.625 3 9h-2z"/><path fill="#051F4A" d="m741 656 3 1v4l-4-1z"/><path fill="#072856" d="m591 656 4 1-1 4-3-1z"/><path fill="#026673" d="m405 563 4 1v3l-5 2z"/></svg>