<?xml version="1.0" encoding="UTF-8"?>
<svg id="Layer_1" xmlns="http://www.w3.org/2000/svg" version="1.1" xmlns:xlink="http://www.w3.org/1999/xlink" viewBox="-150 -20 940 655">
  <!-- Generator: Adobe Illustrator 29.4.0, SVG Export Plug-In . SVG Version: 2.1.0 Build 152)  -->
  <defs>
    <style>
      .st0 {
        fill: #144f85;
      }

      .st1 {
        fill: #183359;
      }

      .st2 {
        fill: #1b86ac;
      }

      .st3 {
        fill: #127a86;
      }

      .st4 {
        fill: #305078;
      }

      .st5 {
        fill: #23988e;
      }

      .st6 {
        fill: #17a2a8;
      }

      .st7 {
        fill: #14497e;
      }

      .st8 {
        fill: #1886ac;
      }

      .st9 {
        fill: url(#linear-gradient2);
      }

      .st10 {
        fill: #098c96;
      }

      .st11 {
        fill: #146d9b;
      }

      .st12 {
        fill: #1a335e;
      }

      .st13 {
        fill: #12234a;
      }

      .st14 {
        fill: #198eb3;
      }

      .st15 {
        fill: #253d6b;
      }

      .st16 {
        fill: #38a991;
      }

      .st17 {
        fill: #18679b;
      }

      .st18 {
        fill: #20416d;
      }

      .st19 {
        fill: #158f8a;
      }

      .st20 {
        fill: #348ec7;
      }

      .st21 {
        fill: #1980a5;
      }

      .st22 {
        fill: #56bc96;
      }

      .st23 {
        fill: #135c8e;
      }

      .st24 {
        fill: #187aa5;
      }

      .st25 {
        fill: #40b19b;
      }

      .st26 {
        fill: #145a8f;
      }

      .st27 {
        fill: #31a49e;
      }

      .st28 {
        fill: #13979e;
      }

      .st29 {
        fill: url(#linear-gradient10);
      }

      .st30 {
        fill: #101b43;
      }

      .st31 {
        fill: #1a8bb0;
      }

      .st32 {
        fill: #0e8992;
      }

      .st33 {
        fill: #177098;
      }

      .st34 {
        fill: #243f68;
      }

      .st35 {
        fill: #30a49a;
      }

      .st36 {
        fill: #1779a1;
      }

      .st37 {
        fill: #165289;
      }

      .st38 {
        fill: #17918b;
      }

      .st39 {
        fill: #0e8189;
      }

      .st40 {
        fill: #4ebd9e;
      }

      .st41 {
        fill: #5abe97;
      }

      .st42 {
        fill: #344b6e;
      }

      .st43 {
        fill: #3a5073;
      }

      .st44 {
        fill: #269b8f;
      }

      .st45 {
        fill: #1c3b64;
      }

      .st46 {
        fill: #2e84be;
      }

      .st47 {
        fill: #0c9298;
      }

      .st48 {
        fill: #196fa4;
      }

      .st49 {
        fill: #144a80;
      }

      .st50 {
        fill: #1c3760;
      }

      .st51 {
        fill: #1593b7;
      }

      .st52 {
        fill: #2ba090;
      }

      .st53 {
        fill: #50b99a;
      }

      .st54 {
        fill: #158e91;
      }

      .st55 {
        fill: #147c7e;
      }

      .st56 {
        fill: #24b1b2;
      }

      .st57 {
        fill: #135089;
      }

      .st58 {
        fill: #128e88;
      }

      .st59 {
        fill: #158c89;
      }

      .st60 {
        fill: #198baf;
      }

      .st61 {
        fill: #16949c;
      }

      .st62 {
        fill: #dee3e9;
      }

      .st63 {
        fill: #1d4169;
      }

      .st64 {
        fill: #fff;
      }

      .st65 {
        fill: #188697;
      }

      .st66 {
        fill: #3d5c84;
      }

      .st67 {
        fill: url(#linear-gradient1);
      }

      .st68 {
        fill: #c5cad5;
      }

      .st69 {
        fill: #1b9b9d;
      }

      .st70 {
        fill: #1d385f;
      }

      .st71 {
        fill: #154980;
      }

      .st72 {
        fill: #25b2af;
      }

      .st73 {
        fill: #2c4871;
      }

      .st74 {
        fill: url(#linear-gradient9);
      }

      .st75 {
        fill: #13789e;
      }

      .st76 {
        fill: #289a8c;
      }

      .st77 {
        fill: #1c8ab0;
      }

      .st78 {
        fill: #27aaa7;
      }

      .st79 {
        fill: #2c4a6e;
      }

      .st80 {
        fill: #1a85ac;
      }

      .st81 {
        fill: #1a7799;
      }

      .st82 {
        fill: #189597;
      }

      .st83 {
        fill: #1b73a6;
      }

      .st84 {
        fill: #188891;
      }

      .st85 {
        fill: #33a69c;
      }

      .st86 {
        fill: #244269;
      }

      .st87 {
        fill: #254165;
      }

      .st88 {
        fill: #35bdc1;
      }

      .st89 {
        fill: #146797;
      }

      .st90 {
        fill: url(#linear-gradient8);
      }

      .st91 {
        fill: #32bdbd;
      }

      .st92 {
        fill: #14719a;
      }

      .st93 {
        fill: #0e858e;
      }

      .st94 {
        fill: #e9ecef;
      }

      .st95 {
        fill: #1c948d;
      }

      .st96 {
        fill: #f2f3f5;
      }

      .st97 {
        fill: #108686;
      }

      .st98 {
        fill: #145f93;
      }

      .st99 {
        fill: #283c62;
      }

      .st100 {
        fill: #1d9187;
      }

      .st101 {
        fill: #16568f;
      }

      .st102 {
        fill: #0f868c;
      }

      .st103 {
        fill: #30a69c;
      }

      .st104 {
        fill: #20a3b1;
      }

      .st105 {
        fill: #234872;
      }

      .st106 {
        fill: #1a8e99;
      }

      .st107 {
        fill: #23b5b6;
      }

      .st108 {
        fill: #46608b;
      }

      .st109 {
        fill: #32b6b0;
      }

      .st110 {
        fill: #1b4169;
      }

      .st111 {
        fill: #33a693;
      }

      .st112 {
        fill: #22b0b2;
      }

      .st113 {
        fill: #296aa0;
      }

      .st114 {
        fill: #1980a8;
      }

      .st115 {
        fill: #129c9f;
      }

      .st116 {
        fill: #167aa4;
      }

      .st117 {
        fill: #f5f7f8;
      }

      .st118 {
        fill: #223f68;
      }

      .st119 {
        fill: #22416b;
      }

      .st120 {
        fill: #1290b3;
      }

      .st121 {
        fill: #1a73a7;
      }

      .st122 {
        fill: #117f7c;
      }

      .st123 {
        fill: #28456f;
      }

      .st124 {
        fill: #087684;
      }

      .st125 {
        fill: #3abdbf;
      }

      .st126 {
        fill: #0f4c7f;
      }

      .st127 {
        fill: #1b6da1;
      }

      .st128 {
        fill: #22406a;
      }

      .st129 {
        fill: #f4f5f7;
      }

      .st130 {
        fill: #1b4276;
      }

      .st131 {
        fill: #1f447e;
      }

      .st132 {
        fill: #14749c;
      }

      .st133 {
        fill: #144e85;
      }

      .st134 {
        fill: #19a6a9;
      }

      .st135 {
        fill: #168eb2;
      }

      .st136 {
        fill: #1d968f;
      }

      .st137 {
        fill: #209bbf;
      }

      .st138 {
        fill: #297fba;
      }

      .st139 {
        fill: #177c90;
      }

      .st140 {
        fill: #e1e6eb;
      }

      .st141 {
        fill: #108b95;
      }

      .st142 {
        fill: #138584;
      }

      .st143 {
        fill: #12787b;
      }

      .st144 {
        fill: #eaedf1;
      }

      .st145 {
        fill: #38a99b;
      }

      .st146 {
        fill: #31a68e;
      }

      .st147 {
        fill: #157ca4;
      }

      .st148 {
        fill: #3a5175;
      }

      .st149 {
        fill: #263f60;
      }

      .st150 {
        fill: #299a8c;
      }

      .st151 {
        fill: #144b83;
      }

      .st152 {
        fill: #138989;
      }

      .st153 {
        fill: #22968a;
      }

      .st154 {
        fill: #10588a;
      }

      .st155 {
        fill: #1b2c58;
      }

      .st156 {
        fill: #22649a;
      }

      .st157 {
        fill: #1495b5;
      }

      .st158 {
        fill: #f3f4f6;
      }

      .st159 {
        fill: #158d89;
      }

      .st160 {
        fill: #268ab8;
      }

      .st161 {
        fill: #128385;
      }

      .st162 {
        fill: #364b6d;
      }

      .st163 {
        fill: #48bfb9;
      }

      .st164 {
        fill: #21988f;
      }

      .st165 {
        fill: #175689;
      }

      .st166 {
        fill: #17477e;
      }

      .st167 {
        fill: #17568d;
      }

      .st168 {
        fill: #1e385f;
      }

      .st169 {
        fill: #1e4672;
      }

      .st170 {
        fill: #e4f1f2;
      }

      .st171 {
        fill: #158b87;
      }

      .st172 {
        fill: #1e5287;
      }

      .st173 {
        fill: #31a08f;
      }

      .st174 {
        fill: #2e4a73;
      }

      .st175 {
        fill: url(#linear-gradient7);
      }

      .st176 {
        fill: #15487d;
      }

      .st177 {
        fill: #224672;
      }

      .st178 {
        fill: #14568f;
      }

      .st179 {
        fill: #d5dbe4;
      }

      .st180 {
        fill: #1e406d;
      }

      .st181 {
        fill: #27a7a5;
      }

      .st182 {
        fill: #17928b;
      }

      .st183 {
        fill: url(#linear-gradient4);
      }

      .st184 {
        fill: #19689b;
      }

      .st185 {
        fill: #2496b9;
      }

      .st186 {
        fill: #158987;
      }

      .st187 {
        fill: #185d8f;
      }

      .st188 {
        fill: #21385e;
      }

      .st189 {
        fill: #21a1a2;
      }

      .st190 {
        fill: #33b5b3;
      }

      .st191 {
        fill: #1f3c66;
      }

      .st192 {
        fill: #3bac9b;
      }

      .st193 {
        fill: #3aab94;
      }

      .st194 {
        fill: #24acaf;
      }

      .st195 {
        fill: #158d8b;
      }

      .st196 {
        fill: #1e3d71;
      }

      .st197 {
        fill: #146c98;
      }

      .st198 {
        fill: #19679c;
      }

      .st199 {
        fill: #17568e;
      }

      .st200 {
        fill: #32bbb8;
      }

      .st201 {
        fill: #154e85;
      }

      .st202 {
        fill: #0e8486;
      }

      .st203 {
        fill: #26b2b2;
      }

      .st204 {
        fill: #eceff1;
      }

      .st205 {
        fill: #1a3b62;
      }

      .st206 {
        fill: url(#linear-gradient5);
      }

      .st207 {
        fill: #223f78;
      }

      .st208 {
        fill: #169299;
      }

      .st209 {
        fill: #0f8080;
      }

      .st210 {
        fill: url(#linear-gradient3);
      }

      .st211 {
        fill: #2177ad;
      }

      .st212 {
        fill: #20386a;
      }

      .st213 {
        fill: #20958d;
      }

      .st214 {
        fill: #148380;
      }

      .st215 {
        fill: #324d72;
      }

      .st216 {
        fill: #23426d;
      }

      .st217 {
        fill: #16234c;
      }

      .st218 {
        fill: #15497a;
      }

      .st219 {
        fill: #166195;
      }

      .st220 {
        fill: #42b094;
      }

      .st221 {
        fill: #17749c;
      }

      .st222 {
        fill: #263d60;
      }

      .st223 {
        fill: #1f365e;
      }

      .st224 {
        fill: #2ca29b;
      }

      .st225 {
        fill: #08828b;
      }

      .st226 {
        fill: #19447a;
      }

      .st227 {
        fill: #274369;
      }

      .st228 {
        fill: #32b4b5;
      }

      .st229 {
        fill: #145289;
      }

      .st230 {
        fill: #1e3a5e;
      }

      .st231 {
        fill: #1d6ca6;
      }

      .st232 {
        fill: #4cb694;
      }

      .st233 {
        fill: #2681b2;
      }

      .st234 {
        fill: #16779d;
      }

      .st235 {
        fill: #109a9f;
      }

      .st236 {
        fill: #1a86aa;
      }

      .st237 {
        fill: #134c82;
      }

      .st238 {
        fill: #23446f;
      }

      .st239 {
        fill: #166994;
      }

      .st240 {
        fill: #1b2d55;
      }

      .st241 {
        fill: #23456b;
      }

      .st242 {
        fill: #12436d;
      }

      .st243 {
        fill: #48b59b;
      }

      .st244 {
        fill: #15719c;
      }

      .st245 {
        fill: #1e3a66;
      }

      .st246 {
        fill: #19938d;
      }

      .st247 {
        fill: #1c89b0;
      }

      .st248 {
        fill: #0a9096;
      }

      .st249 {
        fill: #244b77;
      }

      .st250 {
        fill: #269e91;
      }

      .st251 {
        fill: #284469;
      }

      .st252 {
        fill: #4bbea7;
      }

      .st253 {
        fill: #1576a1;
      }

      .st254 {
        fill: #167977;
      }

      .st255 {
        fill: #43bdaf;
      }

      .st256 {
        fill: #15558c;
      }

      .st257 {
        fill: #186193;
      }

      .st258 {
        fill: #0f8f98;
      }

      .st259 {
        fill: #2b9e9a;
      }

      .st260 {
        fill: #0f7e86;
      }

      .st261 {
        fill: #1e929a;
      }

      .st262 {
        fill: #173258;
      }

      .st263 {
        fill: #17477c;
      }

      .st264 {
        fill: #1d3d6c;
      }

      .st265 {
        fill: #98c2d1;
      }

      .st266 {
        fill: url(#linear-gradient6);
      }

      .st267 {
        fill: #f5f6f8;
      }

      .st268 {
        fill: #41bfbf;
      }

      .st269 {
        fill: #2495c0;
      }

      .st270 {
        fill: #253c62;
      }

      .st271 {
        fill: #2f85c2;
      }

      .st272 {
        fill: #2679b7;
      }

      .st273 {
        fill: #2978b1;
      }

      .st274 {
        fill: #1782a8;
      }

      .st275 {
        fill: #1881a8;
      }

      .st276 {
        fill: #0a5284;
      }

      .st277 {
        fill: #13598f;
      }

      .st278 {
        fill: #192a54;
      }

      .st279 {
        fill: #177fa5;
      }

      .st280 {
        fill: #1a2f5a;
      }

      .st281 {
        fill: #26a2ab;
      }

      .st282 {
        fill: #20365f;
      }

      .st283 {
        fill: #234165;
      }

      .st284 {
        fill: #196498;
      }

      .st285 {
        fill: #2aaba8;
      }

      .st286 {
        fill: #1d95a5;
      }

      .st287 {
        fill: #184579;
      }

      .st288 {
        fill: #146091;
      }

      .st289 {
        fill: #feffff;
      }

      .st290 {
        fill: #159ea3;
      }

      .st291 {
        fill: #196da0;
      }

      .st292 {
        fill: #1da7ab;
      }

      .st293 {
        fill: #23396f;
      }

      .st294 {
        fill: #155289;
      }

      .st295 {
        fill: #314c78;
      }

      .st296 {
        fill: #16719e;
      }

      .st297 {
        fill: #118a8f;
      }

      .st298 {
        fill: #1b4175;
      }

      .st299 {
        fill: #203b63;
      }

      .st300 {
        fill: #213f6a;
      }

      .st301 {
        fill: url(#linear-gradient);
      }

      .st302 {
        fill: #0c838c;
      }

      .st303 {
        fill: #1a2e58;
      }

      .st304 {
        fill: #1775a1;
      }

      .st305 {
        fill: #1b9cbd;
      }

      .st306 {
        fill: #186b9f;
      }

      .st307 {
        fill: #0b8384;
      }

      .st308 {
        fill: #1477a0;
      }

      .st309 {
        fill: #fdfdfe;
      }

      .st310 {
        fill: #18948f;
      }

      .st311 {
        fill: #178193;
      }

      .st312 {
        fill: #1c4175;
      }

      .st313 {
        fill: #1a4072;
      }

      .st314 {
        fill: #148988;
      }

      .st315 {
        fill: #2a547b;
      }

      .st316 {
        fill: #22abab;
      }

      .st317 {
        fill: #18908b;
      }

      .st318 {
        fill: #188a98;
      }

      .st319 {
        fill: #264164;
      }

      .st320 {
        fill: #1a8eb3;
      }

      .st321 {
        fill: #1c969b;
      }

      .st322 {
        fill: #213a61;
      }

      .st323 {
        fill: #e1ecf0;
      }

      .st324 {
        fill: #234570;
      }
    </style>
    <linearGradient id="linear-gradient" x1="478.33" y1="408.56" x2="502.38" y2="536.32" gradientTransform="translate(-179.07 -32.51)" gradientUnits="userSpaceOnUse">
      <stop offset="0" stop-color="#004079"/>
      <stop offset="1" stop-color="#11284b"/>
    </linearGradient>
    <linearGradient id="linear-gradient1" x1="733.46" y1="407.78" x2="757.41" y2="536.58" gradientTransform="translate(-179.07 -32.51)" gradientUnits="userSpaceOnUse">
      <stop offset="0" stop-color="#144874"/>
      <stop offset="1" stop-color="#122a4d"/>
    </linearGradient>
    <linearGradient id="linear-gradient2" x1="877.32" y1="399.44" x2="901.95" y2="516.89" gradientTransform="translate(-179.07 -32.51)" gradientUnits="userSpaceOnUse">
      <stop offset="0" stop-color="#114571"/>
      <stop offset="1" stop-color="#122649"/>
    </linearGradient>
    <linearGradient id="linear-gradient3" x1="614.46" y1="404.91" x2="639.11" y2="526.43" gradientTransform="translate(-179.07 -32.51)" gradientUnits="userSpaceOnUse">
      <stop offset="0" stop-color="#114571"/>
      <stop offset="1" stop-color="#152d52"/>
    </linearGradient>
    <linearGradient id="linear-gradient4" x1="348.23" y1="544.85" x2="388.2" y2="592.24" gradientTransform="translate(-179.07 -32.51)" gradientUnits="userSpaceOnUse">
      <stop offset="0" stop-color="#0f7a81"/>
      <stop offset="1" stop-color="#055f6c"/>
    </linearGradient>
    <linearGradient id="linear-gradient5" x1="110.22" y1="486.14" x2="143.25" y2="553.47" gradientTransform="translate(-179.07 -32.51)" gradientUnits="userSpaceOnUse">
      <stop offset="0" stop-color="#1d9dc0"/>
      <stop offset="1" stop-color="#004685"/>
    </linearGradient>
    <linearGradient id="linear-gradient6" x1="107.49" y1="385.91" x2="146.96" y2="457.79" gradientTransform="translate(-179.07 -32.51)" gradientUnits="userSpaceOnUse">
      <stop offset="0" stop-color="#1e7bad"/>
      <stop offset="1" stop-color="#1e3d71"/>
    </linearGradient>
    <linearGradient id="linear-gradient7" x1="272.91" y1="597.52" x2="323.23" y2="650.4" gradientTransform="translate(-179.07 -32.51)" gradientUnits="userSpaceOnUse">
      <stop offset="0" stop-color="#138187"/>
      <stop offset="1" stop-color="#005c7d"/>
    </linearGradient>
    <linearGradient id="linear-gradient8" x1="210.1" y1="627.64" x2="288.21" y2="676.25" gradientTransform="translate(-179.07 -32.51)" gradientUnits="userSpaceOnUse">
      <stop offset="0" stop-color="#0e8285"/>
      <stop offset="1" stop-color="#00597d"/>
    </linearGradient>
    <linearGradient id="linear-gradient9" x1="207.15" y1="518.84" x2="249.83" y2="553.53" gradientTransform="translate(-179.07 -32.51)" gradientUnits="userSpaceOnUse">
      <stop offset="0" stop-color="#2fa593"/>
      <stop offset=".65" stop-color="#189085"/>
      <stop offset="1" stop-color="#007e6e"/>
    </linearGradient>
    <linearGradient id="linear-gradient10" x1="274.35" y1="487.08" x2="290.73" y2="516.88" gradientTransform="translate(-179.07 -32.51)" gradientUnits="userSpaceOnUse">
      <stop offset="0" stop-color="#1e929a"/>
      <stop offset="1" stop-color="#137190"/>
    </linearGradient>
  </defs>
  
  <path class="st301" d="M295.93,472.49c-.58.22-1.2-.58-1.99.72-2.98,4.87-5.32,17.42-8.01,23.28h-33l53.49-124.01c2.98-2.66,25.57,0,31.05-1.05l53.46,125.07h-32l-9-24h-54Z"/>
  <path class="st67" d="M549.93,472.49c-.87.54-1.24.63-1.77,1.68-3.22,6.25-5.22,15.66-8.23,22.32h-32l53.16-124.84,30.38-.24,54.46,125.07h-33c-.99-4.48-7.05-22.16-10-24h-53Z"/>
  <path class="st9" d="M722.93,372.49c32.59,1.57,54.4,24.38,46.35,57.85-4.8,19.95-26.75,34.15-46.85,34.15h-30.5v32c-8.96-.85-19.85,1.14-28.55.03-1.02-.13-1.12-.01-1.45-1.03l-.02-123.03,61.02.03Z"/>
  <path class="st210" d="M487.92,406.49c-11.32-7.79-41.82-17.67-53.31-8.07-2.96,2.47-3.38,10.17-.7,13.59,6.39,8.14,34.79,11.21,46,16,32.01,13.69,28.32,53.14-2.3,65.66-25.41,10.39-58.56,3.81-80.26-12.18-.89-1.7,9.77-23.69,11.14-23.99,13.21,8.78,28.34,17.01,44.81,15.86,20.2-1.41,23.35-16.77,3.16-23.9-19.76-6.99-53.09-7.95-56.43-35.57-4.19-34.58,30.9-46.5,59.26-44.26,6.11.48,37.29,7.61,38.44,13.5.69,3.53-9.62,18.33-9.83,23.38Z"/>
  <path class="st183" d="M160.93,521.49c22.31-14.7,44.11-30.25,66.05-45.51,1.38-.48,7.85,1.55,8.01,2.12,1.34,4.89-2.07,19.05-3.35,24.61-8.03,34.81-26.56,63.92-52.72,87.78-.57.52-1.11.9-1.52.79-1.99-.53-8.91-5.19-10.48-6.79-5.5-1.4-10.71-4.3-15-8-5.79-1.39-11.83-3.7-16-8-3.42.72-9.48-1.76-11-5-3.46,1.19-12.27-2.86-12-7-1.44-1.91.03-2.95,2-2,.99-3.72,6.2-5.87,10-7l.89-1.96,35.11-24.04Z"/>
  <path class="st206" d="M-49.07,439.49c15.98,6.31,32.03,12.81,48,19l.13,2.68c-13.74,9.38-30.53,16.11-46.13,21.32-1.66,1.57-4.05,2.88-7.16,3.94l.16,2.06c2.83-1.13,7.97,1.22,9,4,.63-.31,1.26-.56,1.9-.58,2.23-.09,13.56,6.09,15.1,8.58,3.53-.41,9.56,1.34,11,5,1.41-1.17,2.49-.86,2,1,.87.28.86.62,0,1-.04,2.83-9.63,7.74-12,6-10.19,5.2-20.68,10.92-30.75,16.76-.24.14-.28.64-.25,1.24l-1.05,2.13c-8.41,6.09-19.43,9.82-28.95,12.87-11.89-19.41-19.59-44.25-21-67,.18-2.1,1.84-3.1,5-3l3.08-3.35c17.27-10.66,33.82-21.73,49.66-33.21l2.27-.44Z"/>
  <path class="st266" d="M-4.07,361.49c-.21.87-.46,1.73-.83,2.53-2.44,5.19-18.05,15.82-24.17,17.47-6.9,8.62-15.57,15.62-26,21-.07.7.27,1.03,1,1,3.47-3.26,13.74-12.55,17.76-13.06.73-.09,1.48-.04,2.24.06,3.33-1.75,6.24-2.3,8.46,1.07,4.77,1.77,8.94,4.08,12.54,6.93,2.6-.45,5.28,1.05,7,3,1.43-1.41,2.27-.98,2,1,2.52-1.03,5.12-2.77,7.8-5.22,2.67-1.86,5.91-2.93,6.2,1.22-5.51,8-14.82,14.85-24,18-.25.81-.53,1.6-.93,2.32-1.5,2.7-19.22,14.85-23.56,17.59-1.33.84-2.97.98-4.51,1.09-19.57-7.85-39.49-14.91-58.57-23.96,5.29-18.58,15.55-37.41,27.59-52.51,2.2-2.75,15.68-17.84,17.69-18.38,3.07-.83,45.5,16.3,52.28,18.85Z"/>
  <path class="st175" d="M121.93,565.49c3.91-.52,10.14,1.55,12,5,5.57.05,11.65,3.42,16,7,5.84,1.18,12.58,4.99,17,9,2.47-.24,11.12,3.44,10,6-11.22,10.13-24.37,18.43-38,25-1.64.25-2.64-.08-3-1-2.13-2.07,1.03-1.37.59-1.21-2.46.89-10.15.11-12.59-.79-3.09.32-8.36.42-10-2-5.11.26-9.99-1.96-14-5-3.37,1.04-9.23-.89-11-4-.45.33-.91.61-1.41.73-1.44.34-19.23-6.59-19.59-9.73-3.4,1.02-6.55-.38-5-4,10.8-10.86,23.91-19.98,38-26,1.37-2.37,3.28-4.94,6-4,5.1-1.57,12.04.47,15,5Z"/>
  <path class="st90" d="M63.93,596.49l3.44-.41c5.93,1.96,14.23,5.6,18.56,9.41,5.04-.24,11.47,1.55,15,5,2.81-1.03,8.08.94,10,3,2.56-.07,6.88-.15,8,2,6.13-.66,11.8-.33,17,1,1.1.04,2.52-.3,3,1-40.34,19.43-87.27,22.83-130,9-2.49-1.26-3.05-2.38-1.69-3.35l34.07-20.47,5.62-1.18c2.1-4.58,5.93-6.98,11-7,2.29-1.21,6.1-1.15,6,2Z"/>
  <path class="st74" d="M45.93,484.49c-.4-1.51-2.56-7.43-1.99-7.99,18.17,5.14,35.27,14.29,52.99,21.01.55,2.37-.42,1.61-1.3,2.22-15.03,10.32-32.8,19.63-48.7,28.77-5.5,1.06-12.83-1.37-16-6-6.16-.43-12.34-2.58-18.54-6.45-4.01-.81-6.49-2.33-7.46-4.55.1-3.29,2.27-5.93,6.52-7.89,4.88-3.67,12.92-9.06,18.48-9.11,3.27-3.84,11.14-8.69,16.07-9.32.16-.02-1.99,2.08-.07-.68Z"/>
  <path class="st29" d="M108.93,447.49c2.95-1.06,7.69.84,10,3,5.61,1.89,11.27,4.23,17,7,2.5-1.69,4.19-1.08,4,2,2.22-1.67,7.51,1.65,8,4,.56.3.55.63,0,1-2.49,1.7-5.39,4.59-8.09,6.41-12.36,8.34-25.13,16.18-37.59,24.38-14.21-5.55-28.14-12.2-42.32-17.79.81-2.22,6.78-6.43,9-5,.4-1.72,1.49-2.75,2.84-3.74,10.36-7.53,20.94-15.12,31.61-21.99l2.55-.27c1.4-.76,2-.1,3,1Z"/>
  <path class="st25" d="M95.93,406.49c3.52-.94,4.51,2.23,4.34,5.42-.54,10.15-18.12,20.4-27.21,21.81-4.53,6.3-10.31,11.82-17.37,16.54-5.35,8.13-11.94,14.2-19.76,18.23-2.64-1.03-5.36-1.96-8-3l.76-2.74c10.61-10.29,20.76-20.9,30.46-31.83-1.43-2.13-1.17-3.61.79-4.42,11.59-6.38,24.17-14.63,36-20Z"/>
  <path class="st192" d="M109.93,411.49l3.38,2.69c-7.39,7.17-14.4,14.81-21.03,22.92l-2.35.39c-2.92.54-6.16.44-9.71-.29-7.34,8.7-16.47,18.71-25.1,26.2-3.02,2.62-13.1,6.5-17.19,6.09-.69-.27-1.31-.73-2-1,.81-4.43,4.7-4.33,7.04-6.46,4.3-3.91,7.18-9.1,11.31-13.2,4.12-4.09,10.01-7.59,14.05-11.45,1.44-1.37,2.16-4.38,3.66-5.34,1.93-1.25,7.63-1.98,11.16-3.84,6.21-3.28,20.88-14.98,12.79-21.71.87-.39,1.73-1.59,2.74-1.81,3.21-.71,9.39,4.16,11.26,6.81Z"/>
  <path class="st95" d="M66.93,542.49c.52,1.37.26,2.44-1.16,2.64-8.65.5-18.93,2.3-20.27,12.34-3.89,8.17-14.74,15.4-23.57,15.02-2.4.68-16.46-5.79-17.67-7.25-.33-.4-.37-1.04-.33-1.75-1.92-2.54,3.8-4.47,6.39-4.57,5.77,2.48,10.54,1.15,15.45-2.59,1.62-1.24,9.7-9.44,10.1-10.97-.62-1.77-.26-3.06,1.06-3.87,4.29-2.4,8.76-4.57,13-7,5.61-.99,13.97,3.19,17,8Z"/>
  <path class="st147" d="M83.93,395.49l-.59,2.23c-9.45,8.05-19.77,14.66-30.94,19.83-3.11,3.49-5.78,6.23-10.46,3.94l-.96,1.42c-8.23,2.42-15.85,6.48-22.78,11.43-8.26,6.98-17.88,13.3-27.27,17.15-3.07-1.18-6.13-2.89-9-4-.05-2.04,2.19-4.91,3.86-6.07,10.45-7.22,21.41-13.89,32.5-20.07l2.68-.13c2.52-4.53,7.16-5.34,11.95-4.74.54-2.21,2.27-2.24,5.21-.11,11.64-7.42,24.18-14.61,36.45-21.13,1.17-.62,2.97-1.43,4.17-.65.16.1-2.49,2.11.17-1.1,1.63.7,3.15,1.15,5,2Z"/>
  <path class="st19" d="M36.93,582.49c1.29-.8,1.77-.37,1,1,3.25,4.17-2.04,11.24-6.09,14.55.55,3.5-1.26,4.06-4.3,4.28l-3.92,3.84c-9.02,1.38-16.74,4.84-23.18,10.4-.3,4.63-3.14,5.61-8.51,2.93-6.92-3.09-13.5-6.06-20-10-1.29-2.12-.62-2.45,2-1l.99-.91c5.81,4.45,9.46,5.15,10.94,2.07,15.15-9.84,29.84-19.9,44.07-30.16,1.74-1.28,6.87.82,7,3Z"/>
  <path class="st152" d="M204.93,466.49c.05,2.23-.91,2.94-3,2-12.18,14.75-27.28,26.62-45.32,35.62l-7.62,6.95c-2,1.36-3.53,1.44-5.06-.57-4.3,4.16-6.24-9.48-.39-9.45l1.26-1.09c3.85-8.37,7.89-10.85,12.13-7.45.29-2.52,1.09-5.08,3.24-6.64,9.62-4.54,18.6-9.9,26.94-16.09,1.58-6.62,4.52-9.04,8.82-7.26,3.15,1.26,6.02,2.69,9,4Z"/>
  <path class="st44" d="M-3.07,563.49c2.45-.74,6.27.04,6,3-2.78,2.28-4.45,5.39-5.02,9.34-3.66,5.72-8.65,10.41-14.97,14.06-2.11,5.15-6.83,7.16-14.13,6.03-1.21,2.15-2.5,3.67-3.88,4.56,2.68,2.24,1.15,4.68-2,3-2.19-1.53-3.96-3.4-6-5-2.74-2.51-.81-5.22,5.78-8.13.75-4.05,2.45-6.84,5.08-8.39-2.04.25-2.89-.3-2.86-2.48,9.99-6.58,21.45-10.55,32-16Z"/>
  <path class="st48" d="M29.93,303.49c.34.08.73.93,1,1l2.54,1.94c-5.77,5.36-12.26,9.87-19.47,13.53,2.93.35,4.24,1.52,3.93,3.52,1.46-1.28,1.94-.74,1,1,.6.3.59.63,0,1-1.43,2.97-4.08,2.28-4-1-2.68,1.23-4.97,1.51-5-2-2.02-.03-3.8.57-5.32,1.83-11.01,4.08-22.1,7.88-33.28,11.38l-5.48,3.45c-4.04-.17-7.91-.33-11.91.35-1.32-.56-4.73-.65-3.99-2.49s11.59-8.88,13.99-10.51c8.4-.75,16.38-3.77,23.88-7.68,10.7-7.1,19.24-10.05,31.82-9.73,3.29-2.56,6.72-4.43,10.3-5.59Z"/>
  <path class="st258" d="M220.93,395.49c-.11,7.91-11.79,12.85-18.6,15.06-12.7,1.27-24.1,7.22-34.42,14.42-4.27,2.18-12.12,5.11-15.98,1.51-1.54,1.01-3.52.78-5.91-.69l-7.09-1.31c-1.03-.66-2-1.35-3-2-.76-3.26,5.85-8.7,9-7,7.11,6.87,16.41,2.12,23.68-3.04,15.54-7.43,31.49-13.69,47.84-18.79-1.41-1.11-.5-2.59.49-4.17,2.24,1.18,2.97,3.88,4,6Z"/>
  <path class="st171" d="M37.93,583.49c2.49-.48,12.99,3.71,14.43,5.3s1.02,2.14-.43,3.7c-2.08,4.91-5.89,6.48-11,7-10.65,10.54-24.88,18.99-39,24-3.63-1.37-6.4-2.39-10-4l6,.99c-2.31-7.99,12.63-12.59,18.74-14.75,1.29-.45,3.13-.01,4.53-.47,2.06-.68,3.37-3.57,5.41-4.7,1.84-1.02,3.24.09,3.31-.06.31-.66-.47-2.56.24-3.78.28-.49,1.96-.75,2.63-1.83.76-1.24,4.57-7.72,4.74-8.35.48-1.76-3.91-3.35.4-3.05Z"/>
  <path class="st54" d="M183.93,451.49c-1.67-1-3.67-.37-2.99-2.98l45.56-36.96c2.04-.41,1.14.26,1.53,1.32,1.79,4.93,3.18,11.38,3.9,16.62-13.61,1.14-25.96,10.01-35.19,19.78-3.83,3.76-7.95,3.65-12.81,2.22Z"/>
  <path class="st247" d="M14.93,408.49c4.85,3.25-7.99,10.71-11.44,12.64-11.82,3.95-23.02,9.19-30.57,19.57-2.74.65-5.73.58-8.99-.22-2.38-.95-4.71-2.08-7-3,9.14-7.7,19.37-13.98,29-21,6.03-1.57,13.4-6.12,18.97-10.43,3.92-3.03,8.44-.9,10.03,2.43Z"/>
  <path class="st38" d="M111.93,505.49c2.79,1.99,3.55,2.83,2.18,6.08-.48,1.15-12.54,14.69-14.22,16.4-8.12,8.27-15.82,15.67-27.97,11.52-3.77.48-6.82-.89-9-4l.84-2.17c5.8-.37,10.69-1.61,14.41-6.34,6.94-9.45,14.76-15.39,26.04-18.81,1.89-2.08,3.8-3.31,5.71-3.68.78.32,1.4.74,2,1Z"/>
  <path class="st61" d="M180.93,390.49c8.28,4.61,17.21-.39,23.94-6.34,3.17-2.01,6.85-1.56,11.06,1.34.26.67.82,1.35,1,2-2.49,5.84-13.01,11.08-19.29,13.14-13.47,1.66-27.71,5.54-38.71,14.15-3.26,2.35-11.18,3.75-11-1.29,7.79-10.04,21.03-18.75,33-23Z"/>
  <path class="st292" d="M194.93,355.49l1,2.4c-10.68,12-19.51,21.83-34.56,28.24l-2.45-.64c-3.44-1.07-1.27-4.56,1-6-4.76-.84.18-5.13,3.66-3.92l6.3-8.47c-.4-3.17.3-4.78,2.06-7.15-1.08-2.24-1.75-4.39-2.02-6.46.92-.57,1.19-.62,2-1l5.58-3.71c.76-.23,10.76-1.07,8.94.81l.49-1.11v-1c3.82.64,5.68,5.14,8,8Z"/>
  <path class="st213" d="M5.93,567.49c2.25-1.25,9.49,2.52,10,5,4.75,4.52-.53,12.31-4.54,15.81l-11.81,8.02c-5.62,8.74-16.46,12.08-25.65,12.17l-2,1c-3.04-1.85-6.08-3.96-9-6,1.63-.81,1.6-1.5,2-3,4.66-3.51,10.56-4.88,17.71-4.11,4.5-1.54,23.54-14.74,22.47-20.42-3.09-6.62-2.82-9.44.82-8.47Z"/>
  <path class="st31" d="M63.93,387.49c-.08.48-.19.95-.43,1.33-.2.32-5.37,3.79-6.01,4.19-9.48,5.91-19.32,11.75-29.13,16.89,2.81,1.06,4,2.59,3.57,4.58-1.78,2.75-8.04,1.48-8-2-2.66,1.17-3.22.57-2-2-4.02-1.6-7.87-3.4-11.56-5.42,2.28-5.71,7.5-8.64,15.65-8.8l2.02-4c7.1-3.8,15.23-7.36,22.89-9.79,4.33,1.67,9.1,2.24,13,5Z"/>
  <path class="st58" d="M154.93,482.49c5.01-3.2,6.6-.41,3.54,4.35-.12,2.1-.63,3.99-1.54,5.65-1.35.48-3.27-.29-5.4,1.1-3,1.97-4.03,10.55-10.61,9.92,2.27,1.8.88,6.64,1.12,6.9.35.37,1.64-.11,1.88.08,3.81.15,3.37,2.74,0,2l-1.49,1.94c-2.41-1.15-4.92-1.79-7.51-1.94-3.72-1.92-7.33-4.05-11-6l-.38-2.24c.82-1.97,9.1-14.16,10.73-15.46s17.95-8.43,18.85-7.94c.74.41,1.39.85,1.79,1.64Z"/>
  <path class="st136" d="M109.93,504.49c-2.41,6.54-9.53,6.89-14.28,9.22-9.02,4.41-11.43,10.3-17.67,16.33-5.37,5.19-8.28,4.22-15.05,5.45-1.83,2.69-9.62-.79-8-4,16.26-9.35,32.12-19.63,48.08-29.5,2.87-1.67,5.11,1.75,6.92,2.5Z"/>
  <path class="st121" d="M29.93,303.49v1.99c-4.3-.18-5.14,4.1-9.16,5.35-7.39,2.29-12.57-1.46-20.58,3.42s-23.53,13.23-32.48,13.62c-1.86.08-2.38-.07-3.77-1.38,12-8.2,24.69-15.19,38.48-20.02,11.92-4.17,14.76-6.07,27.52-2.98Z"/>
  <path class="st142" d="M137.93,518.49l.96.94c-.27,5.56-1.93,10.91-4.96,16.06,1.28,1.38-.54,2.84-2,2l-2.18-.19c-10.26,4.47-20.6,8.81-31,12.99l-3.82-.8c-3.81,1.47-7.51-.22-9-4l-.08-1.33c14.91-1.77,32.21-9.69,38.47-24.76-2.24-5.2-1.7-7.5,1.61-6.91,3.89,1.95,7.97,3.86,12,6Z"/>
  <path class="st182" d="M166.93,471.49c1.23,4.19-7.72,10.15-12,11-2.6.31-16.79,6.05-18.96,7.54-5.11,3.51-6.65,12.73-12.04,16.46-4.89-2.6-10.14-4.83-14.99-7.49,1.17-2.62,18.35-12.05,21.99-14.51,5.68-1.7,10.93-4.7,15.75-9.01,2.81.44,5.59.7,8.33.79,2.8-4.93,9.48-14.16,11.92-4.78Z"/>
  <path class="st284" d="M55.93,312.49c-1.84,1.45-4,2.78-6.48,3.99l-4.78,8.87c-.8-1.13-.71-.75.26,1.14.38,3.07-2.47,4.78-5,3-3.7.06-5.2.96-7.96,3.63l-3.89.95c-13.18,9.98-25.86,16.93-42.9,13.46-3.77,1.19-6.18.84-7.24-1.05-.15-2.74,4.79-4.38,7.42-5.25,14.85-.81,23.36-5.48,34.16-14.38l1.42.63c2.85.52,4.18.52,4,0-2.46-1.38-1.28-3.84.51-5.58l11.87-3.78c4.02-3.98,8.23-6.53,12.62-7.63,1.92.7,3.73,1.12,6,2Z"/>
  <path class="st297" d="M183.93,451.49c3.15-.95,6.27-.35,9.37-2.13s9.22-9.15,13.88-12.17c6.27-4.05,13.55-7.08,20.02-9.73.85-.35.86-1.19.74-1.95l1,2.99,1.98-1.99c-.25,1.24.7,2.1,1.01,2.99.78,2.21.61,3.2,1,5-.01,1.93-.34,3.66-1,5.19-12.95,1.75-23.29,9.89-33.17,18.05l-2.83-.24c-3.98-2.04-8.16-3.7-12-6Z"/>
  <path class="st310" d="M189.93,459.49c.15.79.11,1.86-.49,2.06-6.17,2.01-10.31,4.06-15.74,8.14,5.59,6.86-6.18,7.38-6.76,1.8-1.23-.44-2.64-2.08-4.4-2.03-.94.03-5.19,7.86-6.6,8.55-3.2,1.59-7.04-1.42-10.29-.55-.91.24-1.01,1.88-1.81,2.39-3.84,2.46-8.65,6.89-12.91,4.64,15.36-10.34,30.34-21.39,45.68-31.79l13.32,6.79Z"/>
  <path class="st0" d="M79.93,322.49c.78.33,1.41.75,2,1,.32.74,1.29,1.7,2.91,2.88-3.08,5.34-8.17,8.97-15.26,10.9-7.02,7.45-15.09,12.02-24.19,13.7.06,1.99-.66,3.11-2.17,3.35-11.02-1.02-21.12.7-30.29,5.17-.05.71-.71,1.04-2,1-.97-.37-2-.62-3-1,1.25-5.26,7.63-10.85,13-11l6.58-.33c4.12,1.47,5.79.35,7-3.61,8.65-2.29,16.72-5.65,24.75-9.76,2.91-6.77,13.57-12.44,20.68-12.29Z"/>
  <path class="st77" d="M108.93,335.49l.63,2.69c-3.76,8.28-11.53,18.11-19.28,22.88-11.72,3.91-13.97,6.94-6.74,9.09l.39,2.34c1.44-2.43,2.99-1.81,3,1,.92.94.25,1.28-2,1-.24.84-.58.82-1,0-3.85.57-5.85-.43-6-3-3.04.85-4.04.19-3-2-6.76-3.58-8.01-5.17-.51-10.73,3.03-7.94,6.65-9.06,14.06-11.21.78-3.55,2-6.31,4.46-9.06-.83-3.47,4.43-7.64,8-7,2.97,1.26,5.65,3.01,8,4Z"/>
  <path class="st208" d="M216.93,389.49c.3,1.68.63,3.32,1,4.98-19.51,8.25-40.39,13.47-57.97,25.55-2.48.65-10.02,1-12.32.43-.57-.14-1.28-2.97-3.71-1.98l1-2.99c-.19-2.87.53-3.49,3-2,8.06,4.39,11.75-3.03,17.07-5.43,4.77-2.15,18.88-7.62,23.7-8.39,2.92-.46,4.53,1.03,8.41-.49,6.06-2.36,14.14-8.14,19.81-11.7.15.54-.11,1.37,0,2Z"/>
  <path class="st193" d="M-27.07,535.49c4.86,3.97,2.24,9.25-2.42,12.76-.08.06,1.05-1.27,1.42.24,2.62-.8,2.91.1,1,2,.87.28.86.62,0,1-.33.86-.66.86-1,0-1.33.73-3.08.86-5.24.39l-22.3,26.43c.28,2.59-.54,4.32-2.46,5.18-.16.03-.54,1.12-1.3.87-.94-.21-6.54-6.06-7.73-7.37-.74-.82-.72-2.22-.96-2.5.83-.94,2.05-2.84,3.64-5.69l15.72-15.84c2.95-5.34,6.58-8.37,10.87-9.1,1.19-3.73,7.17-11.77,10.77-8.37Z"/>
  <path class="st202" d="M204.93,466.49c4.5,1.97,13.96,4.7,17.41,6.94,1.02.66.66,1,.58,2.04-7.01,3.66-13.51,8.52-19.99,13.02-3.3,1.38-6.16,1.58-9.65.8-2.68,2.61-5.64,4.92-8.86,6.92-1.28,4.49-1.43,4.94-5.16,7.72-2.78,2.07-11.96,4.67-7.33-.43-1.91-3.63,2.66-3.99,5.63-3.9-.44-5.09.93-7.79,4.1-8.08,6.86-7.56,13.62-15.23,20.27-23.02.73-.55,1.06-2.33,3-2Z"/>
  <path class="st126" d="M-15.07,507.49c4.1-1.6,5.43-.93,4,2-18.72,11.47-36.64,23.48-56,34-8.17.17-13.17,2.83-15,8-.18.06-.56,1.09-1.49,1.05-2.83-.11-3.38-4.2-4.51-6.05,1.27-3.39,4.64-2.99,7.23-4.07,8.01-3.33,15.46-6.72,22.77-10.93,9.67-6.79,20-12.79,31-18,2.22-1.42,9.92-5.91,12-6Z"/>
  <path class="st14" d="M36.93,380.49c1.35,1.44,3.39,1.52,6.11.25l5.89.75c.82.31,1.46.79,2,1-2.61,2.43-6.92,4.8-10.13,6.37-2.67,1.31-8.45,2.45-10.3,3.7s-1.67,4.52-3.55,5.45c-2,.99-10.27,1.69-12.07,2.96-.81.57-.68,2.26-1.32,3.21-.44.66-2.04-.26-1.63,1.29,3.8.58,6.86,3.34,9.99,5.01-.96,3.26-7.6,1.14-7-2-.45-.16-1.07-1.46-2.67-1.79-6.01-1.23-7.39,2.71-10.99,4.63-3.32,1.78-7.31,3.86-10.78,5.22-1.43.56-3.4,2.11-4.56-.06,8.09-5.9,15.88-12.17,24-18,3.55-6.42,11.82-12.79,19-14-.68-3.2,5.76-6.06,8-4Z"/>
  <path class="st195" d="M189.93,459.49c3.18.39,4.21,2.29,6,3-6.02.85-4.9,4.69-7.15,8.35-3.01,4.9-21.77,12.88-27.41,16.59-1.81,1.19-2.42,4.34-4.45,5.05-1.29-4.39-.99-6.5,2-9.99-1.31.08-2.7-.16-4-.01l12-11c2.24.81,4.55,1.94,7,1.99.1-1.96-5.8-3.14-4-4.98.1-.1,1.91-.02,2.87-.59,3.61-2.17,9.54-6.57,13.2-7.89.19-.07,3.74-.55,3.94-.53Z"/>
  <path class="st196" d="M-57.07,436.49c2.63,1.04,5.36,1.96,8,3-.53,2.96-4.57,5.06-6.87,6.63-15.55,10.62-31.86,20.89-48.13,30.37-3.42,2.1-5.08.77-5-4-.73-1.12-.99-3.06,0-4,.7-.52,1.57-.42,2.62.28,11.22-5.2,21.65-11.11,30.98-19.78,7.24-2.34,12.18-6.67,14.82-12.99l3.58.49Z"/>
  <path class="st220" d="M-18.07,524.49l1.18,1.67c-2.59,3.78-5.98,6.89-10.18,9.33-2.29.51-7.07,4.75-8.06,6.44-1.08,1.84-.79,4.39-.95,4.57-.31.34-2.33-.97-3.38-.79-2.13.37-5.49,6.1-7.09,7.84-5.63,6.15-14.23,13.31-19.11,19.9-.93,1.25.57,3.18-2.42,1.04-.78-.9-1.87-1.61-3-3-1.96-3.48-.42-5.32,2.38-7.78l6.66-5.56c6.16-10.13,12.34-15.4,23.25-20,.73-3.03,2.63-5.58,5.71-7.66,2.46-1.45,5.38-5.69,9-6,3.29-2.01,5.29-2.01,6,0Z"/>
  <path class="st186" d="M122.93,510.49c1.56.78,2.58,1.79,3,2-2.47,2.04.66,5.76.67,6.51,0,.3-2.12,5.06-2.36,5.49-4.55,8.1-18.3,17.1-27.13,19.67l-11.18,1.33c-2.34,2.08-4.75,1.15-5-2-.27-2.42,1.95-4.16,6.66-5.23,10.38-.36,14.46-5.38,19.76-13.57l7.47-6.54c1.69-6.32,4.4-8.88,8.11-7.66Z"/>
  <path class="st24" d="M6.93,461.49c1.55.64,3.78.33,5,2,.6,2.33-1.03,3.19-4.9,2.58-5.18,5.22-10.84,9.87-16.98,13.97-9.62,3.28-19.25,6.89-28.9,10.85l-3.22-.39c-.33.87-.67.87-1,0-2.73,1.31-10.48-2.04-7-5-.41-1.89,3.12-2.21,5-2,15.7-7.27,31.06-14.78,46.08-22.53l5.92.53Z"/>
  <path class="st141" d="M222.93,400.49c1.35,3.03-1.31,7.16-4,9-2.59,4.24-5.71,4.81-8,7l-7.57,1.86c-12.3.45-21.75,4.83-30.24,13.82l-5.87,1.35c-1.4,4.26-3.51,5.92-6.33,4.97-7.5-4.33-14.72-9.32-22-14,4.9-2.01,8.82-.83,13,2,4.47,3.35,11.01.83,15.75-1.4,12.25-8.03,28.26-17.73,43.07-13.27,3.61-4.93,7.34-9.71,11.18-14.33.35.78.61,1.99,1,3Z"/>
  <path class="st80" d="M21.93,410.49c.66.35,1.33,1.65,2,2,1.39,3.17-1.08,5.36-7.4,6.56-1.73,3.17-4.18,5.38-7.43,7.01l-24.31,12.32c-5.9,5.91-6.93,6.28-13.85,5.12-2.34-.94-4.69-2.08-7-3,2-1.33,5.57.12,7.73-1.28.66-.43,1.68-3.01,3.25-4.24,3.12-2.45,9.5-7.93,12.47-9.52,9.24-4.95,13.36-3.04,22.61-11.4,2.26-2.05,4.06-.49,4.94-5.55,2.27.8,4.54,1.87,7,2Z"/>
  <path class="st2" d="M124.93,342.49l-1.07,2.03c-8.33-.89-10.61,3.24-14.14,10.17-7.89,7.02-16.48,12.95-25.79,17.81-1.19-.55-6.77-2.73-6.99-3.04-.14-.2,1.11-4.45,1.26-4.69,1.23-1.94,8.82-4.06,11.07-5.43,10.61-6.46,13.12-14.11,19.66-23.84,5.03,2.12,11.7,3.08,16,7Z"/>
  <path class="st275" d="M31.93,414.49c1.02-1.46,1.35-1.13,1,1,.86.32.86.65,0,1-.94,3.38-2.03.85-6.17,2.31-3.41,1.19-3.58,3.37-4.88,4.15-.95.57-2.28-.09-2.93.26-11.02,5.8-21.34,13.15-31.99,19.83-1.6,1-2.23,3.92-5.03,4.45-3.59-1.4-7.38-2.55-11-4,1.7-3.96,2.46.98,5.74-.71,1.43-.74,4.03-4.13,6.37-5.67,7.99-5.22,22.58-10.47,28.81-15.21,1.85-1.41,2.3-3.57,3.53-4.47,2.4-1.76,7.17-.91,8.56-4.94,1.85.97,5.78,1.64,8,2Z"/>
  <path class="st114" d="M124.93,342.49c1.7.13,3.78.71,5,2-.1,3.13-1.82,4.12-4.91,4.15-7.02,9.68-15.16,16.9-25.46,23.25-2.04,2.37-4.26,3.9-6.63,4.6-1.95-.15-5.25-1.25-6-3-.81-.37-1.95-.51-3-1-.71-4.44,3.4-3.85,5.95-5.55,4.04-2.71,15-9.77,17.71-12.79,3.19-3.56,3.56-9.47,9.79-11.19.49-.13,7.01-.51,7.56-.47Z"/>
  <path class="st159" d="M122.93,510.49c-4.66.44-4.11,5.96-6.57,8.93-1.69,2.03-5.64,4.48-7.94,7.06-2.86,3.21-4.27,7.18-7.99,10-5.71,4.33-13.81,1.97-19.5,7.01-3.77.47-6.83-.89-9-4,2.79-1.5,6.79.5,10.01-.68,11.44-4.16,19.64-15.94,27.01-24.85,2.23-2.69,5.45-2.69,2.98-8.48,4.18,1.79,6.87,2.92,11,5Z"/>
  <path class="st35" d="M93.93,440.49c.33.5.63,1.02.79,1.57s.25,1.01.06,1.24c-5.57,6.45-12.96,14.38-19.85,19.27-6.54,3.09-13.64,7.65-16,12.93.72,1.18.06,1.52-2,1-4.31-1.69-8.69-3.3-13-5l1.27-2.49c10.23-6,20.33-12.21,30.29-18.61l6.04-10.48c1.7-4.54,10.31-1.92,12.4.58Z"/>
  <path class="st298" d="M100.93,331.49c-2.73,1.98-5.39,5.05-8,7-12.21,12.86-27.07,24.16-43,32,1.73,3.18-3.34,3.62-6,3-4.3-1.69-8.69-3.33-13-5-.66-3.57,2.54-3.87,5.6-3.99l6.87.28c2.79-3.65,7-6.02,12.63-7.1,11.04-8.1,22.34-15.83,33.91-23.18-.88-2.75,2.4-6.24,5-5,1.96.84,4.04,1.17,6,2Z"/>
  <path class="st145" d="M89.93,437.49c2.82-4.41,10.83,2.53,5,3-.26.86-.6.84-1,0-1.98-.61-7.36-2.65-9.01-1.58-2.27,1.48-5.54,10.79-8.1,12.97s-8.37,4.57-11.36,6.64c-7.2,5.01-12.63,10.47-21.53,12.97-1.84-.73-3.97-1.2-6-2l15.93-7.61c6.34-7.59,14.05-13.4,20.56-20.4,1.43-1.53,3.86-5.89,5.47-6.49.48-.18,8.54,2.04,10.03,2.49Z"/>
  <path class="st274" d="M78.93,393.49l.99,1.99c-1.72.39-3.79,1.07-5.25,2.04-10.97,7.26-22.47,11.88-34.01,19.01-.71.44-.68,1.95-1.34,2.03-2.35.28-4.06-2.2-6.38-2.06.09-.33-.11-.73,0-1l-1.41-1.99c-.75-3.91,28.47-19.34,34.02-19.87,1.13-3.34,2.93-4.38,5.39-3.14,2.89,1.07,4.98,1.7,8,3Z"/>
  <path class="st32" d="M210.93,416.49c-2.55,2.44-4.48,4.98-8,8l-2.46.16c-2.4,2.28-4.51,2.68-6.32,1.2-7.05,1.9-19.85,10.67-22.39,17.74l-2.84-1.1c-2.56-1.4-5.45-2.53-8-4,2.98-.94,3.83-5.6,5.01-6.49,1.37-1.03,4.51-.69,6.23-1.57,1.52-.77,5.16-4.94,6.55-5.94,9.16-6.58,13.11-6.66,23.71-8.01,2.91-.37,7.36-3.24,8.51,0Z"/>
  <path class="st8" d="M63.93,387.49c4.09.04,4.8,2.18,7,3-2.29.39-3.37,4.17-4.27,4.73-1.02.64-2.99.28-4.42,1.06-6.32,3.45-24.04,11.89-27.9,16.21-.78.88-1,1.97-1.41,3l-1-1-7.99-4.99c2.04-1.18,7.16-2.39,8.66-3.36,9.48-6.11,12.01-9.12,23.12-14.38,2.5-1.18,2.26-4.32,8.21-4.27Z"/>
  <path class="st232" d="M-33.07,530.49c3.38,2.49-2.43,2.35-2.87,3.14-.49.88.14,2.93-.43,4.61-1.05,3.1-12.18,6.5-14.22,8.23-2.52,2.13-7,9.82-9.96,13.04-3.75,4.07-9.86,6.25-10.51,11.99-2.18-2.68-3.2-4.52-5-7l-.58-1.32c4.42-4.04,8.28-8.6,11.58-13.68,10.64-6.32,21.44-12.77,32-19Z"/>
  <path class="st285" d="M150.93,369.49c6.14.07,8.18,4.51,2.62,7.67,2.03,1.24,3.51,2.37,1.38,4.33l-.64,2.58c-6.48,4.24-24.77,13.37-32.04,13.84-4.12.27-9.23-1.19-4.33-4.42l33-24Z"/>
  <path class="st316" d="M169.93,353.49c2.88,1.71,4.72,5.25,3.76,8.51-.15.49-1.44.32-1.72,1.18-.4,1.22.24,3.1-.23,4.61-.17.56-6.49,9.22-7.01,9.49-1.34.71-3.67-.32-4.63.42-.47.36-.05,1.71-.16,1.79-1.04,2.71-2.84,4.78-5,2-.5-2.2-4.73-3.71-4.99-4.02-2.15-2.51,5.68-.95,4.99-5.49l-5.99,1.5c.38-1.74,4.34-3.45,2-3.99,5.44-4.96,12.75-12.15,19-16Z"/>
  <path class="st102" d="M233.93,441.49c-.06,2.47-.39,4.47-1,6l-6.88,3.28c-5.79,5.79-10.21,8.26-18.56,7.58-2.05,1.36-3.9,2.07-5.56,2.14-2.05-1-3.97-1.96-6-3l10.35-8.64c4.26-.76,6.66-4.87,9.94-6.56,4.3-2.22,10.51-2.02,14.21-5.79,2,4.8.74-.25,2.49-2,.57,2.61.65,4.53,1,7Z"/>
  <path class="st28" d="M215.93,385.49c-1.64,4.06-3.44-.25-5.77-.82-3.61-.89-7.75,4.63-11.17,6.39-4.6,2.36-16.55,6.57-18.07-.57,5.33-7.34,15.51-12.66,24-16-.8-2.77.74-3.85,3-2,2.81,4.16,6.15,8.27,8,13Z"/>
  <path class="st153" d="M26.93,524.49c3.45-.87,9.89,1.19,10,5,1.87,3.79-5.49,8.58-8.77,6.38-7.72,1.92-22.56,6.58-23.23,15.62-4.31,2.32-8.66,4.71-13,7-1.71.71-2.77.96-2-1-1.89-1.96-.82-3.21,1.14-4.65,4.73-1.85,7.37-5.03,7.93-9.53,7.27-8.52,14.92-15.13,22.93-19.83.78-2.88,4.95-1.89,5,1Z"/>
  <path class="st237" d="M81.93,323.49c2.33.98,4.68,2,7,3-3.77,6.52-9.93,11.42-18.47,14.7-5.26,5.99-11.4,9.97-18.43,11.96-2.16,5.43-11.49,6.11-16.95,6.11-6.62-1.38-13.01-1.31-19.14.23-.26,2-2.4,1.6-3,0,2.74-3.35,10.55-5.59,14.95-6.34,5.25-.89,10.73-.62,16.05-.67-3.05-4.93,2.99-2.86,6.19-4.06,5.61-2.1,13.87-8.68,18.38-12.82l12.21-5.33c1.52-2.76-1.46-4.42,3.2-3.79l-2.75-1.74.75-1.25Z"/>
  <path class="st116" d="M129.93,344.49c.56-.03,1.64-.13,2,0,1.42-.93,3.07.48,2,2l-.62,3.45c-7.68,10.43-19.65,22.04-31.04,28.13,1.28,2.19,1.31,4.26-1.33,3.42-1.91,2.28-3.39,1.92-4-1-.87-.34-.87-.67,0-1-.77-.55-1.77-1.21-3-2-.64-.03-.97-.36-1-1,.47-1.76,1.4-2.64,2.66-3.83,5.01-4.75,13.15-9.06,17.77-13.24,2.14-1.94,9.48-11.9,10.83-12.69.86-.5,2.33.02,2.93-.3,1.4-.76.28-1.78,2.81-1.93Z"/>
  <path class="st243" d="M59.93,426.49c-.75,2.24,2.5,3.36,1.99,4.49-.66,1.48-3.43,2.3-4.42,3.58-3.86,4.98-5.41,6.74-9.6,11.4-6.21,6.92-11.6,15.09-19.97,19.53-1.67-.66-3.33-1.34-5-2-.79-.29-.78-.62,0-1-.42-1.59-.67-3.28-.27-4.94,10.88-8.13,20.64-17.15,29.27-27.06,2.59-1.44,5.4-2.57,8-4Z"/>
  <path class="st89" d="M31.93,471.49c-.45,2.98-3.87,7.89-6.58,9.99-12.25,9.5-30.17,17.83-45.42,19.01-1.27,2.34-5.77.23-6-2-.33.87-.67.87-1,0l-.02-2.18c9.62-3.53,19.1-7.29,28.45-11.28,8.25-7.08,17.44-11.93,27.58-14.53.82.32,1.81.53,3,1Z"/>
  <path class="st268" d="M131.93,426.49l-1.36,3.06c-6.76,4.51-13.13,9.53-19.12,15.06-2.04.58-3.88,1.21-5.52,1.88-11.55,8.86-24.62,18.37-37,26-2.84.78-3.24-1.33-1-3,2.66-4.22,6.61-7.7,11.85-10.45,6.1-7.28,13.15-12.46,21.15-15.55-.27-.95.06-1.29,1-1-.18-.44-.31-.89-.3-1.32.03-1.43,19.3-15.55,22.85-16.81,1.11-.4,2.28-.65,3.46-.87,1.42.96,2.73,2.17,4,3Z"/>
  <path class="st290" d="M207.93,372.49c-1.03.62-1.97,1.39-3,2-8.39,3.77-16.55,8.31-24.49,13.64l-1.51-.64c-8.23,3.3-16.56,5.3-25,6,.31-2.8,4.52-5.79,7-5-.2-1.92.78-2.84,2.43-3.47l18.05-7.12c7.7-2.97,12.77-8.83,15.23-17.57l2.29.16c3.45,4.34,5.85,7.34,9,12Z"/>
  <path class="st294" d="M79.93,322.49c-5.34,2.98-12.75,5.8-17.26,9.95-1.43,1.31-1.2,3.17-1.97,3.81s-16.41,7.67-17.5,8.01c-3.51,1.07-10.68-.75-6.27,6.22-5.22-2.38-12.89,1.99-16-1.99.02-1.94,3.63-4.34,5-3,2.02,0,4.02,1,6,2.99.25.18-5.23-3.11-4-3.99-1.39-1.52.27-3.21,2-2,12.13-5.33,23.74-12,34.86-20l8.14-3c2.29.95,4.68,2.03,7,3Z"/>
  <path class="st135" d="M159.93,324.49l-.78,1.3c-8.17-1.33-16.16.91-21.77,7.2l-6.39,3.08c-.6,2.43-1.62,3.9-3.06,4.42-6.45-3.22-13.44-5.88-20-9-.83-2.96.96-3.57,3.55-2.35,5.5-2.83,11.79-4.07,18.86-3.7,4.59-3.05,9.12-5.37,13.59-6.95.31-1.55,2.31-1.88,6-1,3.82,2.06,6.69,4.75,10,7Z"/>
  <path class="st219" d="M39.93,329.49c-1.13,4.23-8.56,10.7-13,10-2.7,2.75-5.62,5.46-8.75,8.12l-3.25-.12c-3.6,1.42-6.94,3.39-10.01,5.92-7.08.29-14.07-.68-20.99-2.92-2.66-1.01-5.34-1.98-8-3-2.27-2.45.91-3.78,2-1,2.32,2.05,3.62-.78,5.44-.9,6.89-.42,10.83,1.98,20-.17,11.58-2.71,14.38-7.96,23.86-13.16,1.31-.72,3.01-.49,4.38-1.12,1.81-.83,3.54-5.96,8.32-1.66Z"/>
  <path class="st181" d="M159.93,379.49l-1,6c1.39,1.34.8,1.88-1,1l.78,1.68c-2.71,5.94-34.25,13.6-41.63,15.32l-1.15-1.99c-2.6,1.99-7.48,1.83-8-2,3.15-2.14,6.03-5.38,10-6,2.37,1.56-1.19.14-1,1.99,1.68-.16,3.5.71,5.1.45,10.44-1.74,24.02-9.91,32.89-14.44,1.22-.62,4.15-1.39,5-2Z"/>
  <path class="st132" d="M42.93,423.49c.65-1.4,2.31-1.9,5-1.5,4.44-4.7,10.27-8.12,17.48-10.26,3.07-5.49,18.06-11.16,9.52-1.24-8.97,5.8-17.85,11.46-27,17-1.05.11-2.17-.02-3.36-.39-4.02,3.87-8.32,5.42-12.88,4.64l-17.01,13.3c-.65,1.34-5.51,1.39-5.25,1.31,1.12-.36,3.85-.58,3.5,1.15-2.19,1.64-10.75,7.46-12.67,7.79s-4.63-2.16-6.33-2.79l-.59-1.33c10.93-6.5,21.86-13.99,32.41-21.65,5.66-3.85,11.38-5.86,17.17-6.03Z"/>
  <path class="st304" d="M11.93,463.49c3.3,1.03,7.54,1.55,10,4,1.72,3.3-4.92,2.39-7.25,1.29l-4.09,1.7c-13.46,11.77-29.44,19.85-46.66,23.01-2.5,1.22-5.44-.28-6-3,7.73-3.99,16.64-6.32,23.99-10.36,4.35.3,10.45-3.32,13.61-6.07,4.57-3.98,1.96-3.95,9.1-7.88.56-.31.74-1.87,1.3-2.21,1.39-.86,4.21,1.33,6-.47Z"/>
  <path class="st244" d="M138.93,348.49c1.53-1.31,5.69,1.02,6,3-1.21,4.26-7.15,9.84-10.97,12.9-9.6,6.2-18.4,13.03-26.42,20.49-5.02-1.71-10.92,5.08-7.61,9.62-.37.15-1.07,1.57-2.35,1-1.9.18-3.38-1.54-4.65-2-4.45-2.37-5.2-5.17-2.23-8.41.03-3.16,2.11-4.69,6.23-4.59,1.33.34,2.69.6,4,1,12.04-9.39,23.29-19.45,33.75-30.19l4.25-2.81Z"/>
  <path class="st51" d="M139.93,317.49c2.32-.43,3.66-.1,4,1,.87.23,4.19.97,4,1.99-6.84-1.81-10.69,4.29-15.99,6.51-5.72,2.39-12.71-.91-18.1,3.02-1.02.75.32,2.33.09,2.47-1.51.94-4.26-4.03-6-.99-1.86-.88-3.61-2.34-5-3,1.01-2.34,4.39-6.64,7-5,.02-2.89,4.33-6.05,7-5,7.23-1.63,15.64-2.15,23-1Z"/>
  <path class="st6" d="M198.93,360.49c-2.68,3.7-4.17,11-7.76,14.02-7.54,6.35-21.57,9.08-30.24,13.98-3.17,1.53-4.82,1.54-3-2,.32-.21.59-.73,1-1,13.72-9.18,16.84-6.4,27.99-21.51,2.39-3.24,6.52-4.69,8.01-8.49,1.36,1.67,2.66,3.31,4,5Z"/>
  <path class="st287" d="M89.93,334.49c-6.7,7.33-8.83,6.56-15.93,11.57-4.49,3.16-13.93,12.33-18.11,13.89-2.19.82-4.45.38-6.7,1.3-2.71,1.11-4.15,5.07-4.96,5.27-3.76.9-9.8-1.59-13.3,1.98-6.68-2.59-13.34-5.43-20-8-.08-1.01,1.25-1.05,2-1,1.59.11,1.69.01,3,0,6.13-1.9,12.47-1.63,19.02.8,8.94-.67,17.24-3.94,24.9-9.83l2.08,1.03c7.51-6.98,16.79-12.95,26.11-17.41.46-.22,1.14.03,1.89.41Z"/>
  <path class="st201" d="M20.93,371.49c-.65,1.87-2.31,3.44-4.99,4.7-7.19,8.44-15.06,15.45-25.67,19.46,2.2.84,3.09,2.12,2.66,3.85,2.76-1.24,3.36.09,1,2-2.31-1.04-4.71-1.97-7-3-2.26-1.96-4.59-3.63-7-5-3.74-3.07,2.79-7.35,5.84-8.87,9-4.44,18.18-9.58,25.73-16.08l1.42-.05c2.58.97,5.49,2.06,8,3Z"/>
  <path class="st49" d="M-65.07,433.49l-.78,2.3c-12.55,9.51-25.01,18.78-37.38,27.81-2.13.45-4.07,1.41-5.84,2.9,1.49,1.06,1.9,1.56,0,2-.09,1.32.03,2.67,0,4,.52,1.12.52,2.12,0,3-1.72-4.03-1.16-10.38-1-15,1.8-3.2,4.57-5.56,8.33-7.05,7.23-8.96,15.95-16.58,26.18-22.87l3.5-.08c2.47.98,4.91,2.17,7,3Z"/>
  <path class="st7" d="M88.93,326.49c.75.32,1.39.74,2,1-.23,1.98-1.12,4.79-2.65,6.21-9.58,4.93-18.36,10.86-26.35,17.79-7.02,4.61-20.15,12.88-29.09,10.43-6.96-1.91-8.79-2.52-16.91-2.43,6.96-5.95,16.92-1.05,24.34-2.4,1.57-.29,7.73-2.03,9.01-2.57,1.21-.52.35-2.22.84-2.77.3-.34,6.58-1.98,8.52-3.05,4.15-2.28,8.91-7.58,12.36-9.64,4.84-2.89,10.35-4.66,15.01-9.06,2.32-2.19-.13-3.88,2.92-3.51Z"/>
  <path class="st53" d="M51.93,430.49l-3.97,8.25c-2.88,2.97-6.9,5.7-9.64,8.14-4.5,3.99-9.26,8.47-14.31,11.75l-1.08,3.86c-3.48-.76-4.64-3.43-3.49-7.99-3.15.14-5.7-2.08-2.51-4.01,11.73-6.51,23.28-13.5,35-20Z"/>
  <path class="st296" d="M21.93,467.49c3.57.08,3.4,1.38,5,2-1.47,2.5-4.51,3.7-9.13,3.59-14.59,11.09-28.95,17.61-46.86,23.03l-3.02-.62c-1.77,1.49-4.11.3-4-2,1.56-2.13,4.35-1.75,6.56-2.95,7.61-4.12,11.16-3.67,18.16-6.83,7.77-3.5,17.58-14.92,25.28-16.81,2.42-.6,3.57,1.46,5.63,1.62,1.4.11,2.25-1.03,2.38-1.03Z"/>
  <path class="st226" d="M-62.07,434.49c2.69.01.89,4.37-.32,5.51-4.64,4.37-9.04,7.02-14.6,10.07-8.5,8.16-19.03,13.73-29.17,18.72-1.47-.1-2.7-.75-2.91-2.31.81-7.06,1-3.72,4.01-4.44,5.52-1.33,7.64-5.67,12.06-8.99,9.07-6.82,19.02-12.51,27.93-19.56.82.32,1.86.55,3,1Z"/>
  <path class="st11" d="M28.93,470.49c-3.84,3.35-9.26,4.54-13.4,7.14-9.04,5.67-17.96,14.78-29.83,15.13l-12.77,5.73c-1.78.98-5.63-.89-5-3,10.1-5.95,21.1-6.4,31.35-12.15,5.05-2.84,12.53-10.24,17.13-11.91,3.47-1.26,7.14.16,10.52-1.93.83.32,1.46.79,2,1Z"/>
  <path class="st198" d="M18.93,325.49c1.2-.04,2.58.83,2,2-9.47,6.49-10.24,11.52-22.71,13.63-6.86,1.16-13.93,1.3-20.29,5.37-.39.25-2.11-.26-2,1-2.65-1.02-5.34-1.98-8-3-.99-2.35,4.3-4.53,7.25-3.11,11.13-4.98,22.4-9.86,33.8-14.62,1.72-2.06,3.7-2.82,5.95-2.27,1.33.58,2.46,1.19,4,1Z"/>
  <path class="st261" d="M131.93,426.49c2.59,1.7,5.36,3.33,8,5-3.32,8.81-13.33,13.83-22,17-3.14-.7-6.14-1.03-9-1-1.04-.24-2.08-.39-3-1,8.59-6.59,16.29-14.9,26-20Z"/>
  <path class="st85" d="M118.93,417.49c-4.04,6.99-9.15,14.79-16.42,19.59-1.86,1.17-2.05,2.97-.58,5.41-.34.26-.62.7-1,1-2.88,1.6-6.03.42-6-3l.98-.5c-1.41-2.08-3.87-1.87-5.98-2.5,2.01-5.29,7.25-8.69,10.65-12.35,3.74-4.03,5.14-9.07,11.33-11.15-.85-.7-1.37-1.62-1.98-2.5,3.76.78,6.11,3.93,9,6Z"/>
  <path class="st39" d="M232.93,447.49c3.84,8.16-.75,13.06-9.34,14.66-1.19,5.58-3.4,6.05-8.66,4.34-4.4-1.99-8.65-3.87-13-6,3.25-6.9,10.73-2.94,15.2-5.03,1.54-.72,6-5.25,7.88-6.39,1.36-.83,3.74-1.77,5.42-2.59,2.25-1.11.68-1.41,2.5,1.01Z"/>
  <path class="st164" d="M36.93,541.49c3.26,6.9-2.76,9.04-6.65,12.35-1.13.96-1.57,2.95-3.37,4.12-.69.45-8.19,4.24-8.67,4.36-3.89.95-10.74-4.7-14.3,1.16-1.51,2.02-4.59.23-3-2,11.97-6.23,24.12-13.37,36-20Z"/>
  <path class="st93" d="M202.93,424.49c-8.74,7.52-17.78,14.66-27.06,21.52-2.77,1.09-4.95-2.43-6.94-3.52,3.6-.1,2.72-4.13,4.39-6.02,2.45-2.77,20.72-14.35,22.43-12.76.34.32.06,1.6.23,1.74.42.34,5.76-5.15,6.95-.96Z"/>
  <path class="st37" d="M7.93,366.49c.54,1.12,1.54,1.46,3,1,.81.31,1.47.8,2,1-1.96,6.28-8.56,7.17-13.34,10.16-1.65,1.03-2.7,2.73-4.3,3.7-5.51,3.32-13.68,4.46-15.36,11.14-7.08-.81-12.65-6.02-2.41-9.07,1.27-2.08,2.74-3.06,4.41-2.93l-.26-1.19c8.01-4.03,14.99-8.95,20.95-14.77l2.31-.04c1,.38,2.03.63,3,1Z"/>
  <path class="st306" d="M14.93,324.49c-2,1.18-3.25,2.99-5.28,4.22-6.67,4.01-12.06,4.71-18.62,7.36-3.79,1.54-11.36,6.7-14.85,7.27-2.87.47-5.99-2.33-8.25,1.15-2.65-1.02-5.34-1.97-8-3-.32-2.74,2.19-3.17,7.51-1.31,1.71-3.67,4.9-5.44,9.58-5.3,10.28-3.91,21-8.01,30.74-12.85l2.18.46c1.78.69,3.23,1.23,5,2Z"/>
  <path class="st10" d="M221.93,397.49c-1.95,7.65-5.82,10.49-10.65,16.08-3.74-.83-11.01-1.63-14.73-1.04-16.22,2.59-23.24,13.82-37.09,16.02-1.37.22-2.42,1.73-3.59,1.52-2.2-.4-3.08-2.99-3.94-3.58,5.21.96,12.34.54,16.51-2.99,16.57-13.99,34.63-10.82,49.87-24.13,1.31-1.15,1.61-2.59,2.61-3.89.33.67.7,1.32,1,2Z"/>
  <path class="st239" d="M150.93,354.49c1.35-1.47,2.11-.58,3,1,.28-.87.62-.86,1,0-17.35,12.62-34.57,28.26-54,38-4.56-2.56,1.54-10.65,6.94-8.97l3.89-3.56c1.92.45,3.36-.83,4.31-3.84,10.69-6.76,20.44-14.7,29.24-23.83,1.96.35,3.83.75,5.62,1.2Z"/>
  <path class="st260" d="M233.93,441.49c1.59,11.33,2.68,22.48,1.99,34-.89,1.01-18.62-7.92-20.99-9,8.11-.25,5.06-3.29,7.27-5.74.98-1.09,6.42-1.86,8.19-3.3,3.02-2.46,2.43-6.59,2.54-9.96.06-1.89-.71-4.9,1-6Z"/>
  <path class="st111" d="M-28.07,551.49l.29,2.62-7.7,10.87c-4.97,6.15-9.54,11.68-15.59,15.51-2.54,1.12-3.51,2.33-7,3l.52-5.98,22.41-26.6c2.66-3.08,4.78-.26,7.07.58Z"/>
  <path class="st52" d="M-22.07,554.49c1.44,1.95.25,4.81-3.57,8.57.39,1.55.58,3.02.57,4.43-8.73,4.44-16.98,9.03-26,13l-.76-1.25c.81-.78,4.63-1.55,4.77-1.77s-1.38-2.27-.97-2.87c.15-.23,3.13-1.37,4.51-3.06,2.15-2.62,4.41-5.26,6.47-7.81,3.01-3.73,5.39-8.71,8.98-12.24.3.11.72-.11,1,0,1.73-.39,4.81,1.13,5,3Z"/>
  <path class="st224" d="M127.93,423.49c-8.01,5.77-15.71,11.97-23.51,18.03-.93.73-2.19.73-2.49.97l-4-2.02c1.41-5,7.12-7.28,10-10.48,1.89-2.1,4.02-5.49,6.03-8.02,1.6-2.02.38-4.03,4.98-4.48,2.93,2.1,6.01,3.99,9,6Z"/>
  <path class="st88" d="M204.93,374.49c-8.41,4.98-15.93,10.61-24,16-11.33,7.56-22.13,14.78-33,23-.85.64-1.94,1.19-3,2-3.01,2.3-6.36,4.21-9,7-1.02-.66-1.99-1.33-3-2-.33-3.82,5.22-9.02,9-8,.18-.77.39-1.53.72-2.22,2.14-4.45,19.37-14.84,25.28-15.78,1.02-4.69,6.56-6.36,11-7,6.36-3.91,15.28-9.63,21.79-12.72,1.04-.49,3.57-2.05,4.21-.28Z"/>
  <path class="st307" d="M202.93,488.49c-11.98,8.32-23.92,16.84-36,25-7.41,3.26-10.41,2.59-9-2-2.54-4.3,11.2-10.91,14-8-.21,3.86.79.94,2.08.59,1.54-.42,6.21-1.09,6.72-1.8.8-1.11.23-5.01,2.15-7.34,1.68-2.04,7.64-4.33,9.32-7.81l10.72,1.35Z"/>
  <path class="st120" d="M192.93,322.49c2-.41,12.29-3.75,12.99-3l-3,28.99c-.95,1.12-7.71-5.7-7.99-7-.91-.23-.89-.56,0-1-3.9-5.92-3.87-10.77.09-14.54-1.82-.83-2.52-1.98-2.09-3.46Z"/>
  <path class="st256" d="M72.93,319.49c-1.17,4.53-4.44,3.11-7.55,4.95-9.04,5.36-21.24,14.62-30.77,18.28-1.86.72-2.93,1.09-4.68-.24l1.43-3.58c8.7-7.92,21.52-16.18,32.57-19.42-.06-1.5.74-1.77,2-1-1.03-1.09-.37-1.43,2-1,1.66.68,3.33,1.31,5,2Z"/>
  <path class="st69" d="M178.93,387.49c-3.61,2.22-7.44,4.68-11,7-10.04,1.64-19.61,5.25-28.69,10.84-3.13.52-6.24.57-9.31.16.15,5.56-7.63,6.95-12,5-1.38-.98-2.65-2.01-4-3-.41-.31-.4-.64,0-1,.89-1.15,4.02-2.74,5.95-3.44,11.07-2.75,21.71-6.28,32.22-10.44.81-.32,1.36-.04,1.82.89,6.18-1.93,13.06-3.9,18.5-5.73,1.05-.35,5.88-1.81,6.5-.27Z"/>
  <path class="st125" d="M46.93,601.49c-12.07,7.79-25.08,14.55-37.01,22.54-1.48.99-3.01-.42-.99,2.46-2.94-.95-4.79-2.17-7-3,12.96-8.03,26.15-15.77,39-24,3.24-1.29,7.41-2.75,6,2Z"/>
  <path class="st250" d="M-35.07,579.49c.19-.03,2.54,1.16,3.93.02,2.88,5.44-1.24,3.45-2.46,5.96-1.46,2.99.24,4.71-4.07,7.88-2.46,1.81-5.44.22-5.4,5.14-1.99-1.57-13.16-7.76-10.95-10.95,6.28-1.05,13.13-7.06,18.95-8.05Z"/>
  <path class="st200" d="M62.93,535.49c2.99,1.32,6.01,2.68,9,4s6.01,2.67,9,4c1.66.74,3.37,1.29,5,2,3.02,1.31,5.94,2.71,9,4,3.51-.72,5.17.28,5,3h1c2.58,1.45.74,4.66-2,4-.66,1.47-1.66,1.14-3-1-4.04,1.89-8.93-1.45-11-5-2.21,2.1-4.32,1.03-4-2-3.32,1.51-5.85.48-7-3-3.42,1.23-5.56.34-7-3-5.67-2.46-11.25-5.65-17-8,1.66-.95,3.31-2.03,5-3,2.13,1.89,5.34,2.83,8,4Z"/>
  <path class="st151" d="M92.93,298.49c5.65.79,11.98.91,17,4-.29,2.69-1.12,3.01-3,1-3.07,6.25-10.4,17.42-18.16,13.25-4.07.38-7.68-.03-10.84-1.25-2.51.19-1.66-4.31.43-5.06,7.83.61,11.37-4.11,12.89-11,.18-.83.91-1.11,1.68-.94Z"/>
  <path class="st291" d="M46.93,309.49l-.46,1.55c-9.64,2.75-18.26,6.91-25.87,12.49l-2.67-.04c-2.75-1.34-6.35-1.81-9-3.5,7.31-3.89,14.89-7.4,21.1-12.93,1.21-1.08,2.96.27.89-2.57,6.63,1.71,9.66,2.8,16,5Z"/>
  <path class="st312" d="M31.93,375.49c-.56,2.93-1.53,6.45-3,9-6.2,4.37-12.68,9.46-19,14-6.87-4-6.28,6.82-14,4l-.68-3.41c12.1-6.84,22.06-13.84,30.53-24.96l3.16.36c.88.33,1.92.6,3,1Z"/>
  <path class="st197" d="M150.93,353.49c.87.28.86.62,0,1-.37-.02-3.54,1.13-4.98.47-5.98,5.36-11,12.05-18.72,14.84-1.12,4.1-8.77,6.79-10.4,9.42-.84,1.36.18,3.11.07,3.23-.66.73-4.46.11-5.68.69-1.65.79-1.78,3-2.85,3.22-1.19.25-3.13-1.41-4.29-.76-.38.21-3.69,6.48-3.15,7.9-.38.19-.7.88-1,1-6.25-1.04-1.89-8.23,1.44-10.06,2.6-1.43,4.35-.45,6.31-1.22.55-.22,3.93-5.25,4.69-5.8,7.07-5.16,16.03-9.89,23.04-15.95,3.95-3.41,5.21-8.02,9.52-9.98.94-1.85,4.68.54,6,2Z"/>
  <path class="st100" d="M41.93,531.49c-12.22,6.96-24.63,13.34-37,20-3.96-1.76,1.72-8.91,3.45-10.05,1.4-.93,3.12-.82,4.45-1.55,2.7-1.46,12.94-6.18,15.63-5.97,1.29.1,2.59,1.66,3.84,1.44,2.41-.41,2.28-5.09,4.63-5.88.99-3.14,6.73-1.16,5,2Z"/>
  <path class="st293" d="M149.93,317.49c-1.12,1.77-4.12.86-6,1-.66-.18-3.79-.98-4-1-.13-.68.71-.57.67-.58-7.75-.38-16.43-.03-23.67,1.58-.19,1.5-5.84,4.12-7,5-6.74-1.63,1.47-8.47,5-11,1.25-4.41,9.06-5.82,13-4,3.3-.05,18.21,6.96,22,9Z"/>
  <path class="st308" d="M41.93,421.49c1.96.11,2.68.65,1,2-17.91,5.31-29.05,19.68-45.25,26.25-1.43.58-2.73,1.6-3.75,2.75-.98-.36-2-.61-3-1,2.64-4.72,9.4-5.44,12.54-7.96,13.42-10.78,19.94-17.58,38.46-22.04Z"/>
  <path class="st234" d="M173.93,335.49l-.65,1.79c2.87-.61-1.6,5.64-3.39,6.29-5.36-.82-9.15,1.83-10.92,6.78-1.81,1.88-4.95,5.08-6.04,2.15.76,1.81-.58,1.98-2,1-2.05-1.64-4.36-2.87-6.94-3.71l-.06-1.29c-.49-2.62,2.03-4.71,7.55-6.25,4.32-5.35,9.02-8.77,15.24-11.61l2.21.86c1.79,1.44,2.87,2.06,5,4Z"/>
  <path class="st75" d="M83.93,395.49c2.37,1.09,5.48,2.13,8,3.01.5,1.87-.53,1.55-1,1.99-5.18.38-8.52,2.38-10,6-1.99,1.26-3.99,2.7-6,4l1.99-3.99c-2.9.02-6.04,2.35-8.55,3.98-.83.54-1.04,2.31-1.71,2.74-2.83,1.83-11.61,1.99-14.29,6.3-1.01,1.63,1.29,3.66-.96,4.96l-.47-1.98c-2.78-.28-5.37.21-8.01.99l-1-2c2.58-.62,5.73.16,6,0,.09-.05-.8-1.36-.42-2,1.92-3.19,8.01-4.16,10.32-5.59,3.41-2.09,8.8-5.65,12.03-7.97,4.48-3.21,7.98-9.12,14.06-10.44Z"/>
  <path class="st65" d="M155.93,441.49l2.02,2.44c-5.2,6.3-11.21,11.49-18.02,15.56-1.01-.58-2.6-1.24-4-2-3.08-.73-5.41-2.06-7-4,2.03-3.13,5.19-5.66,9.46-7.57,4.04-3.94,8.22-6.42,12.54-7.43,1.63.99,3.36,2.02,5,3Z"/>
  <path class="st133" d="M-72.07,430.49l-19.22,14.04c-6.23,5.69-10.66,12.79-18.78,15.96.14-3.94.66-7.19,1-11,1.52-1.52,2.16-.9,1,1,2.82,1.4,4.65-.04,5.49-4.31,7.31-6.03,14.67-12.02,22.07-17.97l3.45.28c1.59.64,3.46,1.39,5,2Z"/>
  <path class="st71" d="M23.93,372.49c1.35.7,2.01,1.51,1.97,2.45l-8.28,5.34c-4.4,7.8-11.09,13.4-20.09,16.81-1.57,2.04-3.1,2.84-4.6,2.39-2.95-2.25-10.06-2.8-1.92-6.42,6.21-2.77,10.06-4.87,15.37-9.62,4.79-4.29,7.83-10.74,14.55-11.95.88.33,1.9.59,3,1Z"/>
  <path class="st236" d="M162.93,326.49c.33.24.61.71,1,1l-1.26,3.15-12.4,7.99c-3.21,5.36-7.32,7.64-12.34,6.86-1.12,1.6-4.53-.08-4-2-1.15-.2-1.91-.83-1.94-1.97-.06-2.57,6.88-8.18,9.1-9.91,7.72-6.04,11.81-7.68,21.84-5.11Z"/>
  <path class="st288" d="M31.93,471.49c.38.15.7.88,1,1,2.21,4.21-1.56,12.41-7,13-6.65,3.23-13.21,6.89-19.68,10.99l-6.14,1.02c-6.16,4.94-12.22,6.27-18.19,3.99-1.5,1.39-2.35.99-2-1-.56-3.16,1.59-1.8,3.48-1.97,13.11-1.23,30.4-9.85,40.57-18.5l7.95-8.53Z"/>
  <path class="st184" d="M46.93,309.49c1.01.35,1.97.62,3,1-4.27,2.41-6.96,6.9-11.3,9.2-3.81,2.03-9.85,2.5-12.01,3.76-1.22.71-.9,2.89-1.7,4.03-2.46.39-4.52-1.06-6-3-.36-.17-.66-.83-1-1,6.95-8.28,19.04-10.8,29-14Z"/>
  <path class="st92" d="M12.93,447.49c-.24.05-6.25-.14-4-1.99.14-.11,1.62.35,2.95-.69,6.08-4.71,13.41-11.21,19.05-14.88.86-.56,3.49.6,5.79-.06,3.66-1.05,4.78-4.76,9.76-5.34,2.71-.32.17,1.82,1.44,2.96-7.13,4.32-28.48,18.79-35,20Z"/>
  <path class="st279" d="M168.93,331.49c-3.23,2.58-6.79,3.33-10.22,5.99-1.7,1.32-4.01,4.88-6.05,6.37s-6.88,2.44-8.72,4.64c-1.57,1.09-6.02-1.07-6-3,1.17-2.34,4.28-1.37,5.74-2.27.48-.29,3.37-4.61,5.35-6.14,4.68-3.63,9.95-6.41,14.92-9.58,2.05,1.53,3.14,2.5,5,4Z"/>
  <path class="st82" d="M129.93,405.49c11.08-1.13,15.08,1.21,12,7-3.09,2.37-6.08,5.4-9,8-5.03-3.33-10.06-6.52-15-10,2.56-1.1,5.62-.83,8.22-2.07.97-.46,1.27-1.95,3.78-2.93Z"/>
  <path class="st291" d="M9.93,322.49c-5.37,5.49-14.85,5.29-20.7,7.8-4.3,1.85-7.05,5.07-12.28,6.72-1.88.6-5.24.17-5.89.61-.71.48-.1,3.24-2.39,4.22-4.13,1.78-5.69-2.84-8.74-.35-1.9-.74-3.93-1.11-6-2,3.03-4.38,8.85-1.76,11.39-2.23,1.02-.19,2.28-2.24,4.05-2.84,11.51-3.93,22.47-5.51,33.92-11.07,1.22-.59,2.24-2.49,3.31-2.72,1.77-.38,2.6,1.58,3.34,1.86Z"/>
  <path class="st166" d="M106.93,303.49c3.37.91,2.61,7.3,0,9,.36,1.58-.3,3.25-2,5l-.66,2.44c-5.6,1.67-11.55,2.26-17.34,1.56-3.3-1.5-6.94-3.65-10-5-1.39-1.44-.8-1.99,1-1,2.86-1.2,8.28-.98,11.33-.66.93.1,1.82,1.66,3,1.51.4-.05,5.97-3.64,6.71-4.31,3.85-3.5,2.32-6.35,7.96-8.54Z"/>
  <path class="st60" d="M159.93,324.49c1.02.69,1.98,1.26,3,2-3.1,2.34-6.32-.27-9.41,0-3.59.32-15.17,9.38-17.63,12.46-1.19,1.49-2.36,2.25-1.96,4.54-.33.81-.66.81-1,0-1.94-.39-3.58-2.29-5-3-.11-7.87,3.71-6.1,8.34-9.16,2.05-1.36,3.19-3.3,5.41-4.59,6.58-3.82,11.06-2.52,18.25-2.25Z"/>
  <path class="st312" d="M-62.07,434.49c1.67.66,3.34,1.34,5,2-2.27-.51-2.1,1.28-2.98,2.47-1.05,1.42-5.45,7.69-6.22,8.26-.34.25-5.44.8-8.08,2.24-5.88,3.21-10,10.82-15.96,13.69-.68.33-3.15-.21-4.98.58-3.39,1.47-10.25,10.2-13.79,4.75.04-.66-.07-1.35,0-2,4.76,2.48,6.05-1.18,8.27-2.28,13.92-6.9,24.57-16.43,37.4-25.04l1.33-4.68Z"/>
  <path class="st130" d="M114.93,312.49c-.3,2.65-3.76,4.9-4.59,6.26-.12.2-1.82,4.78-.41,4.74-1.84,1.4-3.61,4.9-7,5-5.2-2.46-10.73-4.61-16-7,5.92-2.88,11.88-1.11,18-4,.81-3.08,7.45-7.42,10-5Z"/>
  <path class="st26" d="M-96.07,420.49c3.35,1.22,6.12,2.85,9,4l-.26,1.53c-5.5,3.05-10.41,6.54-14.74,10.47,2.23,2.99-3.28,5.22-4.36,1.84.47-3.28.83-6.53.36-9.84.55-2.51,1.17-5.64,2-8,1.51-1.62,4.17-1.62,8,0Z"/>
  <path class="st57" d="M86.93,297.49c2.9.08,4.03.73,6,1l-.57.99c1.89-.3,1.73.18,1.56,2.01l-1.99.99,1.99.5c-2.56,2.7-6.32,7.91-9.93,9.06-1.79.57-5.84.24-6.07.44-.2.16.13,2.2,0,3-.03.17-.84.59-1,1-.74-.33-1.4-.74-2-1-2.7-6.01,1.76-12.59,7.03-16.03-1.4-2.76.25-3.42,4.97-1.97Z"/>
  <path class="st263" d="M28.93,374.49c-1.66.41-2.32.98-3.36,2.26-2.27,2.79-8.08,9.86-10.35,11.79-3.18,2.71-17.07,9.57-18.26,11.04-.64.79,2.88,3.55-1.03,2.9-.68-.25-1.33-.7-2-1,.08-1.02-.23-1.42-1-2,3.32-5.7,11.73-6.71,16.07-10.43,2.75-2.36,4.98-8.06,7.26-10.23,1.45-1.38,6.64-4.04,8.66-4.34l-.99-1.99c1.7.64,3.36,1.39,5,2Z"/>
  <path class="st178" d="M-86.07,426.49c6.72.3,2.24,6.22-1.45,8.14-5.78,2.96-10.93,6.31-15,11.45-1.25,4.77-3.1,6.24-5.55,4.41-.04-.45-.53-.9-1-1,.64-7.12,1.47-14.02,3-21,1.8,2.64,1.4,7.02,1.01,10,.38.41,2.4-1.64,2.99-2,4.25-3.97,10.55-8.81,16-10Z"/>
  <path class="st101" d="M75.93,296.49c3.46.01,8.36-.84,11,1-1.66-.04-3.34.02-5,.01l4.99,1.98c-7.12,1.89-11.32,8.61-11.99,16.01-.28-.12-.72.12-1,0-2.44-1.71-4.5-3.4-1-5-6.88-.91-7.69-4.54-2.41-10.88-3.12.4-5.65-.31-7.59-2.12-3.15,2.31-7.59,3.56-10,0-2.58,2.3-3.25,1.97-2-1,.33-.01.67,0,1,0,7.97-.95,16.02-.87,24,0Z"/>
  <path class="st137" d="M6.93,461.49c-5.67.46-9.41,3.96-14.33,6.17-12.37,5.57-25.36,10.2-37.67,15.83-1.76.4-2.42.07-2-1,10.88-4.28,24.77-10.82,35.02-16.48,4.01-2.22,7.79-4.12,10.98-7.52,2.69,1.04,5.28,1.87,8,3Z"/>
  <path class="st106" d="M139.93,431.49c1.62,1.03,3.35,1.97,5,3,.22,2.13-.34,4.5-1.69,7.1l-12.78,6.44c-2.15,1.83-4.33,2.98-6.53,3.46-1.35.38-3.5-.7-4-2-1.11.58-1.86.25-2-1-.46-3.98.14-2.37,2.35-3.11,4.17-1.39,8.19-3.73,11.57-6.47,2.93-2.38,4.84-6.18,8.08-7.42Z"/>
  <path class="st139" d="M158.93,443.49c1.56.91,4.52,1.64,6.67,2.84,1.07.6,4.99,2.22,4.33,3.65-1.05,2.28-18.64,12.22-21.99,14.51v-1c-1.85-.87-2-2.35-.44-4.45l7.8-9.47c.86-2.77,2.07-4.8,3.64-6.08Z"/>
  <path class="st318" d="M144.93,434.49c2.09,1.3,4.11,2.85,6,4-6.64,5.83-13.55,11.36-22,15-1.46.77-4.19-.58-5-2,1.6-5.57,17.12-9.36,18.78-12.21,1.07-1.84-1.44-5.46,2.22-4.79Z"/>
  <path class="st45" d="M416.93,544.49c-2.37,6.42-8.05,7.55-12.99,3v8.01s-3.01,0-3.01,0v-22c2.63-1.3,3.24,2.06,3.48,2.01.71-.14,2.08-1.74,4.1-1.99,4.4-.55,6.84,1.03,8.42,4.99.83,1.94.67,4.04,0,6Z"/>
  <path class="st311" d="M158.93,443.49c.78,9.16-9.52,12.03-11,20-3.97-.22-5.76-2.72-8-4-.77-3.96,4.86-4.62,7.5-7,2.93-2.66,5.35-9.36,9.5-9.01l-.99-1.99c1.22.73,2.29,1.59,3,2Z"/>
  <path class="st229" d="M-77.07,428.49c-3.89,1.81-6.34,5.4-9.67,7.83-4.28,3.12-12.75,7.17-15.06,12.44-.54,1.24,0,3.32-.33,3.66-.34.35-2.7-.26-3.95.54-1.06.68-.4,2.83-1.98,2.52-.13-1.64.14-3.36-.01-5,3.31-.73,3.04-4.45,3.94-5.52.85-1,5.92-6.06,7.02-7.02,3.58-3.12,17.22-6.91,11.04-11.46-.84-.94-.18-1.27,2-1,2.37.95,4.68,2.07,7,3Z"/>
  <path class="st21" d="M83.93,374.49l-.54,2.17c-2.77,1.24-5.13,3.25-7.23,5.42,1.16,2.45.29,3.84-2.22,3.41-5-1.99-10.01-4.02-15-6-.34-.7-.57-1.29-.4-1.44,4.36-4.07,13.54-7.65,19.4-6.56,2.03.96,4.56,1.13,6,3Z"/>
  <path class="st257" d="M55.93,312.49c4.13,1.6,7.96,3.34,12,5l-2,1h-4c-3.75,2.6-10.04,6.87-14.49,8.7-.79.33-1.74-.21-2.51-.7-2.81.46-2.44-1.13-1.47-2.97s3.59-7.12,4.44-8.29c1.6-2.19,5.37-3.16,8.03-2.74Z"/>
  <path class="st46" d="M-.07,363.49l1.85,1.41c0,2.88-16.66,14.03-20.85,14.59-.15,3.22-4.96,6.76-8,5-2.27,1.86-3.98-.94-2-3,8.37-6.58,17.1-12.84,25-20,1.77.67,3.13,1.67,4,2Z"/>
  <path class="st191" d="M768.93,549.49c-2.93-4.77,2.28-14.87-6.48-13-4.62.99-1.79,9.1-2.52,13h-2.99c2.18-17.73-11.4-17.85-9.01,0h-3v-16.01c2.63-1.3,3.24,2.06,3.48,2.01.73-.15,2.09-1.82,4.11-2.01,3.15-.3,4.98,1.96,6.74,1.79,2.45-.23,7.81-4.45,10.67.21.02,4.5,0,9.02-.02,13.57l-.98.43Z"/>
  <path class="st252" d="M30.93,490.49c3.06-.89,2.73.44-1,4-8.48,4.72-18.33,10.05-25,17-.38,1.09-1.72,1.76-4,2-.41,2.74-.94,2.44-2,0-6.03,2.09-1.84-2.41-.42-3.17l.42-.83c11.19-7.12,19.91-13.06,32-19Z"/>
  <path class="st23" d="M25.93,485.49c.68.29.67.63,0,1-6.86,3.99-14.08,8.8-21,13-4.38.45-8.44,2.27-12.18,5.47l-2.82-.47c-.39,2.62-1.21,2.52-2,0-1.34,1.56-3.12,1.1-3-1-1.67,1.54-3.97.22-3-2,1.42-2.45,3.91.45,5.48.57,4.54.34,11.04-5.33,15.5-7.09,1.89-.75,4.08-.16,6.01-.99s5.91-5.49,9.12-6.88c2.95-1.28,5.47-.69,7.9-1.6Z"/>
  <path class="st33" d="M173.93,335.49c.82.75,2.3,1.27,3,2,2.75-.63,2.82-.1,1,2-7.46,5.08-15.77,10.75-23,16h-1c-2.07-1.32-2.4-2.32-1-3,.48-.17,1.37.12,2,0l-1-1.96c4.58.11,3.52-2.92,5.41-5.1,2.81-3.21,7.63-5.36,11.58-2.93-1.3-3.72,1.64-3.92,1.79-4.17.59-1.02-2.66-3.11,1.22-2.83Z"/>
  <path class="st221" d="M96.93,379.49c-.13.27.12.72,0,1-1.34,3.13-.64,3.65-3.99,1.99.36,3.05-1.19,5.27-3,7.52l4.48,1.5-1.49,1.99c-5.76-2.11-11.32-4.73-17-7l-.68-2.24c1.72-3.07,14.48-5.39,17.68-5.76,1.08-.6,2.88.26,4,1Z"/>
  <path class="st119" d="M684.93,549.49c-4.37-1.61-14.86,2.89-14.85-4.5,0-6.89,9.9-3.57,10.85-4.51.38-.38.14-2.75-.97-3.52-2.94-2.03-8.11,2.63-8.03-2.47,13.47-3.94,13.76,3.9,12.99,14.99Z"/>
  <path class="st110" d="M268.93,542.49c.68,2.37.45,2.57-2,2-1.37.38-4.24-.13-6,0l-6,1c-1.07,1.8.3,3.84-2.5,4-1.54.09-1.76.27-1.39-1.38.5-2.26,8.42-19.24,9.49-19.56,3.94-1.2,7.1,10.97,8.41,13.94Z"/>
  <path class="st300" d="M346.93,542.49q-8.98-.35,0,0c-2.31,2.24-8.72.44-12,1.01,2.77,4.67,4.06,4.32,8.5,2.97,5.23-1.59,3.44,2.29-.02,2.99-16.99,3.42-13.12-21.02.27-15.21,2.69,1.17,5.85,5.72,3.25,8.24Z"/>
  <path class="st214" d="M143.93,512.49c2.86-.97,6.26.1,10.21,3.22.36-2.85,1.62-4.26,3.79-4.22.56,5.82,6.61-.93,9,2-2.27,1.53-11.77,8.91-13.33,8.82-6.49-2.76-12.45-6.6-18.67-9.82,2.13-2.14,6.2.2,9,0Z"/>
  <path class="st242" d="M722.93,372.49c-20.06-.97-40.87.72-61.01,0v123.01s-.56-123.06-.56-123.06l61.56.06Z"/>
  <path class="st76" d="M-11.07,560.49c-4.61,2.41-9.37,4.64-14,7-6.87-4.67,1.3-8.18,3-13,3.19.14,11.25,2.6,11,6Z"/>
  <path class="st188" d="M462.93,534.49c2.2-.9,4.81-1.03,7,0,4.21,1.01,4.76,11,3.87,14.37-.82,3.1-2.61-.25-4.19-.19-2.81.12-8.51,3.71-10.28-2.17-2.53-8.4,9.48-4.65,11.11-7.02.71-.49-1.36-2.9-1.51-3-1.71-.59-3.32-.86-5,0-2.24-.2-3.5.92-2.99-1.99.66-.04,1.33.02,1.99,0Z"/>
  <path class="st167" d="M4.93,365.49c-1.56,3.17-4.75,5.82-7.66,7.84-4.05,2.8-12.08,5.47-15.34,8.16-2.57,1.12-3.03-.21-1-2,5.39-3.97,10.93-8.15,16.14-12.36,1.32-1.06,3.01-1.4,2.86-3.64,1.69.64,3.49,1.43,5,2Z"/>
  <path class="st223" d="M423.93,534.49c11.25-4.07,11.87,6.48,10.99,15-3.69-1.85-6.97,1.06-10.01.55-5.48-.93-6.31-8.28-1.28-9.29,1.95-.39,12.79-.1,6.3-4.25-3.87.07-5.87-.59-6-2Z"/>
  <path class="st36" d="M83.93,374.49c.3-.02.71-.05,1,0,2.66-.5,5.99,1.32,8,3,.87.28.86.62,0,1-.57,0-1.17,1.94-2.26,2.3-5.08,1.69-11.43,1.47-14.74,5.7-.78-.31-1.43-.77-2-1,3.31-1.68-1.19-2.14-1-2.5,1.46-2.69,7.93-8.28,11-8.5Z"/>
  <path class="st20" d="M26.93,339.49c3.05,1.47,1.45,3.8-4.78,6.97l-1.22,2.03c-4.44,3.34-8.8,7.32-13,11-1.86-.72-3.88-1.19-6-2l.72-2.81c3.87-3.08,7.96-5.48,12.28-7.19,3.76-2.86,8.18-5.28,12-8Z"/>
  <path class="st98" d="M62.93,297.49c-.45,3.74-.12,7.4,1,11,.03,1.14-.97,1.47-3,1-3.84-1.59-8.46-2.37-12-5-1.78-2.56.11-8.17,4-7,3.3.18,6.69-.06,10,0Z"/>
  <path class="st216" d="M549.93,539.49c.8,3.54.8,6.87,0,10-1.36.46-3.4-1.04-4-1-1.85-.4-1.58-1.09,0-2-1.78-3.63-6.06-3.17-3,1,.51.98-.15,1.65-2,2-6.68-.61-5.94-7.47-1.29-8.79,1.58-.45,8.36.38,8.27-1.71-.03-.74-2.44-2.29-3.52-2.49-3.02-.58-5.51,1.84-7.43-.51,6.11-4.52,10.93-3.98,12.98,3.5Z"/>
  <path class="st22" d="M16.93,450.49c-.19,4.21,4.67-.31,4.53,4.53-.08,2.89-1.39,3.13,1.47,7.47v1c-2.6-1.03-16.36-5.38-17-6.01-1.54-1.5.52-1.74,1.29-2.23,2.79-1.8,6.94-3.22,9.71-4.76Z"/>
  <path class="st41" d="M-65.07,549.49c.78,8.06-6.67,10.36-11,15-.95-1.32-4.72-3.39-4.57-6.01,1.04-2.22,12.93-7.42,15.57-8.99Z"/>
  <path class="st63" d="M364.93,549.49c-5.37-.33-13.21,2.61-14.03-6.5-.46-5.09.39-6.84,5.03-8.5,2.18-.79,4.18-.79,6,0,.62.07,1.81,1.38,2.99,1v-4c.29-.23.58-.41.86-.4,1.06.03,1.01,17.45-.85,18.4Z"/>
  <path class="st176" d="M90.93,327.49c1.58.68,2.94,1.55,4,2-1.27,2.08-3.51,3.36-5,5-6.06,3.74-12.97,6.71-18.9,10.6-2.64,1.73-5.77,4.22-9.1,6.4,2.5-2.08,5.38-6.04,7.64-7.86,4.16-3.36,14.09-7.42,17.02-10.47,1.93-2.01,1.37-5.89,4.34-5.66Z"/>
  <path class="st77" d="M69.93,367.49c.4.66.92,1.61.55,2.12-2.18,2.98-12.6,10.05-16.55,7.88-.8-.32-1.45-.78-2-1-.95-1.3-2.59-1.42-4-1-1.48-.58-2.83-1.54-4-2,1.52-.61,4.86-2.16,6-3,4.49-.59,7.87-1.24,11.64-4.03,2.91-1.23,8.12-3.01,8.36,1.03Z"/>
  <path class="st187" d="M14.93,347.49c-4.42,3.36-8.33,7.3-13,10-6-2.3-12.01-4.73-18-7,2.05-2.16,4.75.77,7.47,1.03,2.12.21,13.95.19,15.1-.37,1.5-.72,1.23-2.25,1.55-3.54l6.87-.13Z"/>
  <path class="st87" d="M517.93,534.49c15.23-3.39,14.61,1.37,14,15.01h-2.99c-.46-2.68,1.04-11.18-.94-12.57s-5.65-.31-7.07,1.57c-.34,3.68-.67,7.34-1,11-.38.17-1.37-.08-2,0-.2-1.6.24-3.49,0-5.01-.79-3.46-.79-6.79,0-10Z"/>
  <path class="st190" d="M160.93,521.49c-10.69,10.06-23.94,17.53-36,26-2.38,1.31-3.72,1.31-4,0,8.56-7.79,18.44-15.02,29-20,3.18-2.08,7.89-3.95,11-6Z"/>
  <path class="st305" d="M187.93,323.49l4.48.46c.77.86-3.8,8.72-5.48,9.54-1.04,1.9-6.91,4.57-9,6-.39-.56-.59-1.57-1-2,13.48-2.08-1.79-9.99,0-11.99,3.49-.9,7.6-1.23,11-2.01Z"/>
  <path class="st128" d="M573.93,542.49c-2.5,6.4-2.66,14.71-12,13v-2.99c12.62,2.71.15-13.37-1-18.99,3.57-2.81,7.44,9.97,8.01,11.99.42.31,2.7-2.41,2.99-3,.81-2.11,1.35-2.19,2,0Z"/>
  <path class="st122" d="M145.93,522.49c-.93,2.71-2.26,5.38-4,8-1.25,2.67-5.09,5.43-8,5-2.97-3.73,1.38-6.39,1.9-7.8,1.05-2.88.3-6.71,2.1-9.2,2.61,1.38,5.34,2.74,8,4Z"/>
  <path class="st17" d="M50.93,296.49c.27.96,1.15.95,2,1-2.87,1.26-1.68,4.87-4,7l-16.99-5.99c6.23-1.77,12.61-1.79,18.99-2.01Z"/>
  <path class="st180" d="M495.93,542.49c.9-2.06,5.61-13.76,6.64-14.04.66-.18,2.71-.15,3.23.18.58.37,4.18,10.71,5.13,12.86l.16,2.34-14.72.91-.44-2.24Z"/>
  <path class="st34" d="M692.89,529.51c.22.2-.19,2.7.99,3.53,2.01,1.43,5.05-1.39,4.06,3.44-1.12.23-4.69-.31-5.01,0s-.1,7.73.51,9.01c1.33,2.81,4.66.49,5.49,2.51.98,2.4-5.51,3.62-7.89-.12-2.19-3.45-.38-7.41-1.12-10.73-.2-.92-2.77-.27-2-3.15.07-.27,3.46-1.1,2.02-4.52.82.13,2.68-.22,2.96.03Z"/>
  <path class="st123" d="M279.93,548.49c-.11.6-3.43,4.22-2,7.01h-3v-22.01c2.68-1.3,3.17,2.05,3.51,2.04,1.8-.07,5.63-4.46,8.49-1.04l-1,2c-.66,1.45-2.25,2.36-4.78,2.74.93,3.65.52,6.07-1.22,7.26,1.42,1.11,1.95,1.57,0,2Z"/>
  <path class="st157" d="M192.93,322.49c8.63,3.39.71,6.25.4,9.5-.18,1.9,2.14,4.48,2.46,6.31.26,1.49-.86,2.08-.86,2.2-3.04,2.33-5.57-3.39-4-6-.21-.46.24-1.79,0-2.01-.15-.14-2.9,1.42-3.99,1.01.15-.27.17-4.01,1.55-5.96.86-1.22,1.94-1.95,3.44-2.05l-3.99-1.99c1.72-.39,3.29-.65,5-1Z"/>
  <path class="st78" d="M.93,561.49c.68,1.22,1.99,1.39,3,2,6.38,3.87,11.47,5.88,18,9,4.03-.95,10.82,2.17,12,6,1.68-.23,4.89.11,5,2,.87.28.86.62,0,1,.14,1.4-.94,1.75-2,1-2.12-1.14-4.68-1.79-7-3-5.06.75-11.54-2.52-14-7-3.54-1.66-5.62-3.67-10-5-2.77.87-3.77.54-3-1l-6-3c1.33-.69,2.7-1.32,4-2Z"/>
  <path class="st170" d="M149.93,527.49c-9.77,6.39-19.23,13.6-29,20-1.12,2.91-4.91,5.54-8,5,.3,2.9-3.27,4.68-5,2-.19-.99-.25-2.06.26-2.96,1.73-3.02,10.22-6.03,13.74-7.04,1.28-4.38,5.66-6.81,10-7,1.03-.7,1.61-1.74,2-2,2.54-1.71,5.38-3.29,8-5-.24-3.03,4.54-5.88,7-4l1,1Z"/>
  <path class="st2" d="M74.93,369.49c.61.26,1.76,1.42,3,2-5.8,3.24-14.41,3.37-19,8-1.67-.66-3.34-1.34-5-2l3.97-.48,12.03-9.52c.15-1.77,3.81.84,5,2Z"/>
  <path class="st40" d="M-1.07,509.49l.98.5c-1.67,1.92-4.98,3.9-.98,3.5,1.26,1.53.7,2.09-1,1,.12.51.19,1.01.07,1.45-.23.81-12.17,8.54-13.89,9.37l-2.17-.83h-6c7-5.92,15.33-10.11,23-15Z"/>
  <path class="st282" d="M627.93,534.49l.36,1.14c-4.81-.33-7.26.62-7.36,2.86,2.7,2.9,9.71.99,9.01,7.47-.29,2.7-3.96,4.39-6.36,4.24-.95-.06-6.15-1.28-5.66-3.2.38-1.5,8.23,2.46,9-1.03s-8.84-2.05-8.85-7.99c-.01-5.18,6.26-5.1,9.86-3.5Z"/>
  <path class="st70" d="M709.93,527.49c1.12,1.63-.22,2.13-2,2-.54.37-2.39-.36-2.98,2.52s4.29.74,4.99,1.48c1.39,4.95-3.13,2.15-4.01,2.99-.47.45.37,10.99,0,13.01h-2.99c-.9-5.04,2.55-12.33-2.99-14.51,6.47-3.57-.31-8.79,9.98-7.5Z"/>
  <path class="st324" d="M298.93,548.49c.05,2.33-.02,4.68,0,7.01h-3v-22.01c0-3.48,3.22,2.03,3.46,2,1.53-.19,3.55-2.16,6.54-2,3.77,1.71,1.58,3.28-2,3,.31,2.32-3.17,5.66-5,7,1.66,2.76,1.66,4.42,0,5Z"/>
  <path class="st169" d="M298.93,548.49c-.04-1.77-.7-1.62,0-5,.79-.43,1.68-.57,2.45-.06,6.65,4.33,9-2.25,3.9-4.73l-1.35-2.2c1.2-.89,2.41-1.21,2-3,9.36.51,9.24,14.9.05,16.58l-7.05-1.58Z"/>
  <path class="st207" d="M119.93,305.49c2.53.81,6.01.41,8,3-3.36.05-9.53,2.8-13,4-5.33,1.85-6.11,3.16-10,5-1.61-1.23.78-3.93,2-5l.79-2.63c.55-.59,11.04-5.66,12.21-4.37Z"/>
  <path class="st227" d="M723.93,534.49c1.03.26,4.14,3.62,4.57,4.96,2.5,7.81-6.62,14.19-13.57,8.04-1.95-3.08-.46-3.81,2-1,4.69-1.19,11.16-3.64,4.02-8.01-1.66.05-2.48-.24-3.02-1.99-6.09-.35,1.97-4.16,6-2Z"/>
  <path class="st154" d="M39.93,474.49c-1.46,1.88-2.13,3.88-2,6-5.04,3.87-8.03,3.69-12,6v-1c4.59-1.71,4.41-8.67,7-13,1.9.77,3.7.27,7,2Z"/>
  <path class="st131" d="M109.93,302.49c3.94-.06,6.77,1.96,10,3-2.72.09-3.69,2.74-5.68,3.92-1.45.85-5.59,1.57-7.32,3.08v-9c.98-.38,1.9-.98,3-1Z"/>
  <path class="st109" d="M46.93,528.49c-1.66.96-3.3,2.03-5,3-1.23-1.67-3.45-1.36-5-2-3.18-1.31-6.96-3.72-10-5-1.05-2.16.28-2.83,4-2,5.22,2.13,10.75,3.92,16,6Z"/>
  <path class="st50" d="M286.93,534.49c10.02,1.91,4.33,21.18-7,14,.02-.1,0-1.68,0-2,7.4-1.44,7.9-2.92,6-10-1.88-1.08-2.75-1.33-5-1.01v-.98c1.87.22,4.26-.34,6-.01Z"/>
  <path class="st230" d="M382.93,530.49c4.91-4.89,12.88.25,12,.99-.99.06-2-.04-3,0-2.26-.83-4.73-.81-7,0-4.86,4.58,6.76,6.43,9,8,1.98,2.46.57,3.84-2,2-4.37-.93-8.13-.62-10-5-.65-2.03-.5-4.36,1-6Z"/>
  <path class="st218" d="M-67.07,543.49c-5.19,2.82-9.09,6.16-15,8-4.53-7.12,9.91-10.34,15-8Z"/>
  <path class="st270" d="M481.93,549.49h-3v-23c.86-.42,3,.85,3,1.5v21.5Z"/>
  <path class="st215" d="M665.93,527.49v20.5c0,.21,1.5,1.14,1,1.49h-4s0-21.99,0-21.99h3Z"/>
  <path class="st86" d="M393.93,539.49c6.28,4.39,1.32,10.88-5.35,10.65-3-.1-5.78-2.09-8.65-2.68l1.53-3c2.91,1.18,6.13,4.19,9.44,2.56,3.58-1.75.89-4.82,1.02-5.53.02-.14,1.93-.97,2-2Z"/>
  <path class="st245" d="M732.93,533.49c1.94-1.89,3.25,2.05,3.48,2.01.7-.13,6.24-4.74,4.54.49-.18.56-2.27,1.05-3.04,1.94-2.89,3.4-1.88,7.42-1.99,11.56h-3c.42-2.36-.57-15.45,0-16.01Z"/>
  <rect class="st205" x="316.93" y="527.49" width="3" height="22"/>
  <path class="st322" d="M654.93,529.49c5.33.76,6.49,12.26-1,13-.88.7-7.13.74-7.37.45-1.74-2.06-1.88-2.64.61-1.98,1.11.29,3.64.12,4.76-.47,2.28-3.89,2.36-4.87,1-9-12.54-.98-6.94-3.97,2-2Z"/>
  <path class="st177" d="M654.93,529.49c-2.74-.39-6.14.27-8.99.01l6.99,1.99-1.63,1.86c-6.29-.07-3.55,5.19.63,7.14l-.67.81-4.33.2v.98c2.29-.14,4.73.23,7,.01-.96,2.14-7.45.4-8,.99-.46.49.97,5.33-1,6.01l-.97-.76c-.12-6.43-.47-12.84-1.03-19.24.52-1.6,10.3-1.66,12,0Z"/>
  <path class="st43" d="M558.93,527.5c-1.65,6.67-1.64,15.35,0,21.98h-4c-1.41-1.34,1.85-18.93,0-21.98h4Z"/>
  <path class="st72" d="M190.93,342.49c-1.45.91-3.86,3.28-4,5-.02.29-.06.72,0,1-3.66.96-10.32-1.08-6-4,2.62-2.39,5.1-5.36,8-8,1.96-.28,4.05,4.91,2,6Z"/>
  <path class="st255" d="M45.93,484.49c.03.11,1.25.55.99,1.4-5.38,3.03-11.44,5.51-16.99,8.6l-.98-.5,2.97-3.01-.98-.5c4.71-2.31,9.14-6.48,15-6Z"/>
  <path class="st316" d="M180.93,344.49c-.7,3.38,1.57.8,1.84,1.24.35.56.02,1.62.17,1.75.77.69,2.86-4.78,3.99,1.01.04.17,1.26.19,1,.99-3.59,1.79-8.49.81-11.49,1.48-.44.1-4.27,1.42-4.51,1.53,1.66-2.3,3.86-4.69,5.97-6.57,1.14-1.02,2.78-1.2,3.03-1.43Z"/>
  <path class="st264" d="M31.93,375.49c1.91.71,4.79,1.18,7,2,1.76,2.27.87,3.89-2,3-1.59,1.19-6.31,2.81-8,4-2.17-1.64.66-9.87,3-9Z"/>
  <path class="st222" d="M581.93,529.49c2.84-1.49,1.62,3.16,3,5,.19.4-.14.74-1,1,.85.31.84.64,0,1-.18,2.32-.41,7.08.5,9.01,1.14,2.42,2.84,1.17,3.99,1.44,6.04,1.43-5.15,6.11-6.48.55-.87-5.89-1.64-12.39,0-18Z"/>
  <path class="st168" d="M510.93,541.49c1.22,2.78,1.72,5.52,4,7.99-5.44,1.85-3.75-3.88-6.66-4.83-1.69-.55-7.75-.46-9.35.33-1.2.59-3.68,6.67-5.98,4.51-.77-.73,2.5-5.86,3-6.99,4.37,1.53,11.2,2.16,15-1Z"/>
  <path class="st1" d="M349.93,472.49h-54,54Z"/>
  <path class="st262" d="M602.93,472.49h-53,53Z"/>
  <path class="st165" d="M4.93,499.49c-3.69,2.24-7.31,4.74-11,7-2.8,1.08-5.1,1.74-4-2,3.91-1.92,10.99-9.24,15-5Z"/>
  <path class="st249" d="M600.93,543.49c-.56-2.21-1.39-2.1.24-5.27,4.6-8.93,16.24-2.91,13.75-.74-7.07-1.44-7.41-2.24-11.99,3.01-.32,1.62-.98,2.62-2,3Z"/>
  <rect class="st12" x="324.93" y="533.49" width="3" height="16"/>
  <rect class="st79" x="451.93" y="533.49" width="3" height="16"/>
  <rect class="st283" x="592.93" y="533.49" width="3" height="16"/>
  <path class="st118" d="M600.93,543.49c-.32-2.03,1.32-2.23,2-3-.48,2.42.8,5.48,3.02,6.48,4.78,2.15,5.84-3.29,8.96.02-5.19,5.33-12.1,3.98-13.98-3.5Z"/>
  <path class="st254" d="M145.93,522.49c1.53.73,3.79.56,5,2.5.17.34-1.42,1.07-2,1.5-2.3,1.71-4.82,2.57-7,4l-.88-.66c.05-2.42,2.27-7.62,4.88-7.34Z"/>
  <path class="st81" d="M90.93,400.49c-2.71,2.53-7.03,4.12-10,6-2.2-1.4-.02-5.13,1.63-5.71,1.41-.49,3.51,1.95,3.38-3.3l4.99,3.01Z"/>
  <path class="st185" d="M48.93,381.49c-3.37-.1-7.26,2.41-10.49,2.05-1.87-.21-3.12-1.23-1.51-3.05.64-.48,1.3-2.28,2-3,3.35,1.25,6.68,2.73,10,4Z"/>
  <path class="st27" d="M115.93,401.49c.3,1.82-.37,3.48-2,5v1c-2.82-2.08-6.58-3.67-9-6.51-.25-.56,2.26-1,3-1.49,2.78.53,5.08,1.91,8,2Z"/>
  <path class="st105" d="M723.93,534.49c-1.82-.46-4.94.32-7,0-.33.89.99,1.74,1,1.99l1.12,2.09c-1.84,2.09-2.54,4.73-2.12,7.91-.71-.14-2.1,0-2,1-7.24-6.41.3-17.57,9-13Z"/>
  <path class="st83" d="M63.93,308.49c1.36-2.92,3.09-1.43,4.83.47l4.17,1.53c.4,1.05-.32,3.65,1,5-4.37-1.9-8.66-4.2-13-6,.83-.45,2.1-1.12,3-1Z"/>
  <path class="st228" d="M68.93,472.49c-3.02,1.86-5.04,3.99-9,5-.82-.32-1.86-.55-3-1,1.04.12,1.37-.42,2-1,.37-2.51,6.41-8.47,9-6l1,3Z"/>
  <path class="st231" d="M-84.07,425.49l-2,1c-5.54,2.77-10.67,6.79-16,10-2.11-.57,1.19-2.49,1.67-2.83,4.41-3.09,9.23-5.65,13.33-9.17.81.32,1.85.54,3,1Z"/>
  <path class="st323" d="M137.93,345.49c1.88.81,4.11,2.04,6,3,2.42,1.23,7.48,2.47,7,5-1.23-.03-4.61-1.42-6-2-1.63-.68-3.79-2.04-6-3-2.16,2.15-4.95,1.06-5-2-.61-.24-1.47-1.81-2-2,.4-.18.79-.96,1-1,.23-.05.79-.07,1,0,.44.15,2.76,1.46,4,2Z"/>
  <path class="st299" d="M644.93,549.49c-1.22,1.63-1.81-.01-2-1.48-.29-2.27-.44-17.16,0-18.52,2.49,6.25,1.31,13.39,2,20Z"/>
  <path class="st103" d="M-18.07,554.49c2.69-1.36,8.08-.29,8,3,.46.13,1.2,1.04,2,1-.83.44-1.77,1.35-3,2-2.33-3.45-7.53-4.32-11-6-1.41-.68-3.35-2.34-5-3v-1c1.49-3.41,9.86.83,9,4Z"/>
  <path class="st172" d="M39.93,474.49c.76.4,2.35.06,2.98,1.49-.93,2.99-3.25,3.18-4.98,4.51-3.88-1.69-1.63-5.7,2-6Z"/>
  <path class="st319" d="M571.93,542.49c1.12-2.34.75-8.15,4.5-9.01,2.54-.58,1.01.73.74,1.73-.76,2.78-2.31,4.91-3.23,7.28h-2Z"/>
  <path class="st303" d="M364.93,530.49c.52-2.98,2.2-1.73,2.47,1.07.32,5.96.16,11.93-.47,17.93-.66-.02-1.34.04-2,0l1.11-14.58c.61-1.34-1.05-2.98-1.11-3.42-.04-.33.04-.67,0-1Z"/>
  <path class="st238" d="M442.93,533.49c1.67.03,3.9-.61,5,1l-5,1c1.6-.51,3.72-1.12,5,0-1.1,1.72-4.43.35-5,3-1.7-.23-1.51-2.5,0-3-.07,1.4-.61,2.64-1.07,1.23.45,3.83.13,7.09-.93,9.77-2.25-2.4-.38-6.52-1.01-9.33-.18-.79-1.9-.78-2-1.17-.14-.53,2.68-6.32,3.02-6.5.61,1.49,1.28,2.82,2,4Z"/>
  <path class="st30" d="M769.93,535.49c1.9,3.1.63,10.28,1,14.01-.59-.05-1.96.09-2,0-.24-.55.73-3.03.62-4.3-.26-2.83-2.92-8.29.38-9.7Z"/>
  <path class="st84" d="M218.93,409.49c2.34-3.83,1.21-6.96,4-9,.4,1.02,2.53,1.73,1.87,4.29-.4,1.53-4.01,4.72-5.87,4.71Z"/>
  <path class="st98" d="M75.93,296.49c-7.96-.03-16.05-.24-24,0,7.16-1.67,16.84-1.67,24,0Z"/>
  <path class="st251" d="M581.93,547.49c-2.32-2.73-.31-7.25-1.02-10.33-.18-.8-1.9-.78-2-1.18-.14-.53,2.68-6.31,3.02-6.49.81,5.08-1.1,13.42,0,18Z"/>
  <path class="st280" d="M442.93,535.49c-.12.1.03,2.24,0,3-.07,2.21.32,4.98,0,7,2.4,2.43.67,3.78-2,2-.09-.26.04-.65,0-1-.24-1.9-.4-8.87-.04-10.36.3-1.23,1.64-.44,2.04-.64Z"/>
  <path class="st149" d="M268.93,542.49c.86,1.95,3.3,4.18,3,6.99l-5-4.99c.14-.04.81-1.98,2-2Z"/>
  <path class="st104" d="M190.93,334.49c1.17,2.54,1.8,6.73,4,6,.02.34-.06.71,0,1-1.45-.04-2.76.22-4,1l-2-6c.56-.51.88-1.75,2-2Z"/>
  <path class="st3" d="M178.93,590.49c-.61.56-1.21,1.28-2,2-2.24-3.39-6.59-4.2-10-6-1.71-1.41-1.71-2.08,0-2,3.84,2.09,7.91,4.5,12,6Z"/>
  <path class="st156" d="M-10.07,504.49c.77.28,2.16,2.42,4,2-1.66,1.02-3.35,1.99-5,3-.84-1.28-2.52-2.06-4-2v-1c.58-.89,1.58-1.56,3-2,.5.19,1.48-.19,2,0Z"/>
  <path class="st63" d="M364.93,530.49c-.13-1.15.06-5.02,1.99-3,1.22,1.27,1.85,19.19.01,22-.13-5.16.17-10.37,0-15.55-.06-1.92,1.02-4.01-2-3.45Z"/>
  <path class="st18" d="M442.93,545.49l4.99,3.99c-2.19.87-6.1.68-6.99-1.99.86-.32,1.86-1.08,2-2Z"/>
  <path class="st66" d="M453.45,526.5c2.71-.61,3.42,4.44.97,4.99-2.71.61-3.42-4.44-.97-4.99Z"/>
  <path class="st113" d="M-96.07,420.49h-8c.35-1,0-2.28,1.48-2.88,2.21.55,4.6,2.18,6.52,2.88Z"/>
  <path class="st15" d="M-109.07,472.49c2.14,3.17-.63,5.15,4.54,3.33l.46.67c-1.54.9-3,2.52-5,3-.08-1.32.03-2.67,0-4-.02-1-.02-2,0-3Z"/>
  <path class="st108" d="M592.94,530.49c-.73-.73.37-4.45,2.48-3.99,3.7.81-.55,5.92-2.48,3.99Z"/>
  <path class="st295" d="M627.93,534.49c1.11.49,1.24.48,1,1.99-.69.63-7.38-1.44-8,2.01-3.04-3.27,3.45-3.06,6.33-3.19l.67-.81Z"/>
  <path class="st4" d="M423.93,534.49c1.73,1.67,3.55.43,6,2-3.18-.81-8.1,2.72-8-2,.62-.13,1.52.17,2,0Z"/>
  <path class="st162" d="M519.93,549.49c.43-3.55-1.13-8.18,1-11-.46,2.43,1.11,10.07-1,11Z"/>
  <path class="st148" d="M549.93,549.49v-10c.9,3.29,1.57,5.77.94,9.45-.13.74-.6.44-.94.55Z"/>
  <path class="st313" d="M327.93,530.49c-.75.75-4.05.46-2.98-2.48,1.24-3.45,4.3,1.17,2.98,2.48Z"/>
  <path class="st162" d="M517.93,544.49c-.46-2.79-2.63-7.28,0-10v10Z"/>
  <path class="st240" d="M545.93,548.49c-.97.06-2.24,1.25-5,1,.64-.58,1.3-1.61,2-2-.58-2.86,1.24-2.98,3-1-.15.54.1,1.37,0,2Z"/>
  <path class="st155" d="M440.93,529.49c2.51-1.32,2.12,1.98,2,4-.08,0-.26.87-.51.86-1.46-.05-1.76-3.48-1.49-4.86Z"/>
  <path class="st241" d="M381.93,536.49c-.49-1.16-1.36-1.37-1.06-3.44s1.27-1.77,2.06-2.56l-1,6Z"/>
  <path class="st174" d="M469.93,534.49c-1.44-.35-5.2-.08-7,0,1.26-1.65,5.74-1.65,7,0Z"/>
  <path class="st73" d="M709.93,527.49c4.56.57,1.08,3.8-2,2,.76-.52,1.34-1.36,2-2Z"/>
  <path class="st241" d="M391.93,531.49c-2.32.12-4.68-.09-7,0,1.65-1.55,5.48-1.77,7,0Z"/>
  <path class="st2" d="M47.93,375.49c.95-2.06,3.43-.04,5,.01l-1,.99c-.92-.37-2.47-.4-4-1Z"/>
  <path class="st315" d="M361.93,534.49c-1.92-.22-4.04.15-6,0,1.81-.65,4.22-2.42,6,0Z"/>
  <path class="st99" d="M416.93,544.49v-6c.25.62,1.03.85,1.12,2.49.12,2.11-.7,2.36-1.12,3.51Z"/>
  <path class="st42" d="M260.93,544.49c-1.12,1.77-4.12.86-6,1,1.08-1.81,4.16-.86,6-1Z"/>
  <path class="st13" d="M588.93,535.49c-1.37.83-3.76.79-5,0,.2-.74.19-.84,1-1,.97-.2,3.9-.21,4,1Z"/>
  <path class="st217" d="M447.93,534.49c.05.08.05.92,0,1-1.08.21-4.65-.3-5,0,1.59-.8,2.32-1.62,5-1Z"/>
  <path class="st174" d="M468.93,536.49c-1.65-.1-3.36.15-5,0,1.41-2.03,3.39-1.13,5,0Z"/>
  <path class="st251" d="M588.93,535.49c-.3,1.8-3.28.76-5,1,.03-.35-.07-.73,0-1h5Z"/>
  <path class="st167" d="M10.93,367.49c-2.08,1.46-3.46,1.77-3-1,.85.32,1.87.57,3,1Z"/>
  <polygon style="fill:none" class="st309" points="339.93 448.49 303.93 448.49 322.92 403.49 339.93 448.49"/>
  <polygon style="fill:none" class="st289" points="593.93 448.49 558.93 448.49 576.92 404.49 593.93 448.49"/>
  <path style="fill:none" class="st64" d="M691.93,397.99c.46-1.9,6.32-.31,8.53-.45,9.01-.56,22.87-1.96,30.81,3.11,10.75,6.87,11.17,27.01,1.41,34.19-2.26,1.66-11.72,4.65-14.25,4.65h-25c-.11,0-1.5-1.39-1.5-1.5v-40Z"/>
  <path class="st134" d="M112.93,556.49c3.43,2.39,8.27,5.18,12,7,2.83,2.83-.02,2.77-3,2-4.89-2.01-9.97-3.42-15-5-.82-2.98,3.62-5.98,6-4Z"/>
  <path class="st107" d="M114.93,554.49c-.39.27-.95,1.27-2,2-1.72,1.2-4,2.61-6,4s-4.04,2.64-6,4c-2.51-1.63-1.62-3.71,2.66-6.24l2.34-2.76c-.01-.63.66-.96,2-1,.51-.34,3-.69,5-2,2.55-1.25,3.31-.57,2,2Z"/>
  <path class="st115" d="M124.93,563.49c3.63,1.77,7.55,3.28,11,5,3.18,2.64,1.4,3.09-2,2-3.7-1.58-8.1-3.4-12-5,1.46-.01,2.57-.57,3-2Z"/>
  <path class="st47" d="M151.93,576.49c1.15,1.22.48,1.55-2,1-5.25-2.41-10.76-4.76-16-7,2.13.24,2.24.13,2-2,5.32,2.65,10.72,5.28,16,8Z"/>
  <path class="st194" d="M124.93,547.49c-3.17,2.23-6.73,4.72-10,7l-2-2c2.62-1.71,5.39-3.29,8-5h4Z"/>
  <path class="st302" d="M166.93,584.49v2c-5.54-2.93-11.29-6.38-17-9l2-1c5.05,2.61,10.01,5.29,15,8Z"/>
  <path class="st276" d="M-27.07,513.49c-10.82,6.95-20.16,11.74-31,18l-2.49-1c3.08-1.46,6.32-2.91,9.25-4.64,5.01-2.97,9.93-5.95,15.35-8.75l8.9-3.61Z"/>
  <path class="st233" d="M-36.07,493.49c1.35.64,2.65,1.37,4,2,1.86.87,3.4,2.28,5,3,.28.12.72-.12,1,0,3.92,1.78,1.49,3.38-2,2-5.2-2.3-11.23-5.32-17-8-2.22-2.16-.59-2.55,2-2,.27.13.73-.13,1,0,2.02.95,3.98,2.04,6,3Z"/>
  <path class="st211" d="M-20.07,500.49c.61.26,1.23.68,2,1,.63.26,1.66,1.42,3,2,2.17,1.76.21,2.62-2,2-3.97-1.29-7.26-3.34-11-5,2.13.24,2.24.13,2-2,1.71.77,4.24,1.24,6,2Z"/>
  <path class="st269" d="M-47.07,482.49l2,1c-1.75.8-3.92,1.47-5,2,.82,3.71-.35,4.3-4,3-.52-.27-6.1-.97-4-2.99.46-.44,9.54-2.43,11-3.01Z"/>
  <path class="st160" d="M-50.07,485.49c-.5,2.44,4.64,3.89,7,5l-2,2c-3.09-1.43-5.71-2.31-9-4,2.4.58,1.99-2.02,4-3Z"/>
  <path class="st127" d="M-12.07,504.49c.54,2.37-.89,2.31-3,2-1.01-.15-1.52-.84-2-1l2-2c.83.36,1.99.62,3,1Z"/>
  <path class="st138" d="M-27.07,384.49c.79,3.97-3.68,5.78-7,6-6.38,4.57-13.53,8.54-20,13-1.52.85-1.95.57-1-1,8.42-7.26,17.26-14.13,26-21l2,3Z"/>
  <path class="st199" d="M-18.07,381.49c-.22.18-1.97,3.77-3.37,4.62-2.29,1.4-6.62.6-4.17,4.41.58.9,4.2,2.29,5.54,2.96,2.42,1.22,6.95,1.2,7,5-6.94-3.12-13.13-7.69-21-8,2.35-1.69,4.82-4.42,7-6,2.55-1.84,5.47-3.13,8-5l1,2Z"/>
  <path class="st272" d="M-55.07,402.49l1,1c-6.64,4.58-14.62,12.09-21.65,15.85-1.41.76-2.68,1.41-4.35,1.14l25-17.99Z"/>
  <path class="st91" d="M100.93,564.49c-12.64,8.73-25.19,17.5-38,26,1.5,2.75-2.39,4.98-5,4-3.63,2.39-7.35,4.65-11,7-1.3-2-3.82-2.12-6-2,3.64-2.33,7.38-4.64,11-7-.71-3.61,1.73-4.24,5-4,9.45-9.06,21.99-19.06,33.55-25.46,2.33-1.29,4.83-2.09,7.45-2.54-.15-3.01,1.47-3.23,4-2-1.06-2.68,1.66-4.86,4-3-.61,3.7-5,4.97-5,9Z"/>
  <path class="st292" d="M88.93,603.49c2.87,2.7-.14,2.57-3,2-8.03-2.9-14.43-5.95-22-9-.94-2.59.4-3.25,4-2,6.1,2.92,14.65,6.49,21,9Z"/>
  <path class="st235" d="M99.93,607.49c3.38,1.22,5.79,3.87,1,3-5.22-1.58-9.89-3.15-15-5,1.46-.01,2.57-.57,3-2,3.51,1.38,7.43,2.71,11,4Z"/>
  <path class="st248" d="M113.93,612.49c.52,1.01-.48,1.34-3,1-3.97-.98-6.39-1.91-10-3l.99-.51c.52-1.78-.89-1.44-1.99-2.49,4.55,1.64,9.42,3.66,14,5Z"/>
  <path class="st112" d="M67.93,594.49l-4,2c-1.54-.62-4.34-.37-6-2,.29-.19,2.93-2.63,5-4,1.04,1.68,3.27,3.17,5,4Z"/>
  <path class="st124" d="M123.93,614.49c4.22-.49,9.16.36,13.5,0l-1.5,2c-6.33-.21-10.76-.08-17-1,1.19-.9,2.86-1.23,5-1Z"/>
  <path class="st225" d="M123.93,614.49c-.89.1-3.09,1.93-5,1-3.5-.52-5.08-1.28-8-2l3-1c2.7.79,7.05,1.1,10,2Z"/>
  <path class="st163" d="M4.93,511.49c6.24.84,19.19,8.22,26,11l-4,2c-1.53-.64-3.9-.53-5-1-1.77,2.54-6.43-.16-6-3-3.51.63-5.18-.04-5-2-3.01,1.82-9.8-1.62-10-5-.73-2.6,1.61-2.32,4-2Z"/>
  <path class="st286" d="M123.93,451.49c1.63.74,3.4,1.2,5,2,2.45,1.22,4.65,2.72,7,4-5.97-.75-11.75-4.92-17-7-1.33-1.3-.78-1.49,1-1,1.37.56,2.65,1.39,4,2Z"/>
  <path class="st281" d="M117.93,448.49c.69.27,1.32.72,2,1l-1,1c-3.15-1.25-6.67-2.23-10-3l-1-1.99c.89-.63,8.38,2.34,10,2.99Z"/>
  <path class="st317" d="M66.93,542.49c2.34,1.02,4.65,1.96,7,3l.58,2.1c-8.81,6.41-16.04,14.5-21.7,24.27-4.7,1.31-9.27,3.71-13.71,7.2l-5.18-.57c-4.74-1.75-7.86-4.02-12-6,8.05-4.22,16.83-6.31,21.44-15.06.87-1.65.26-3.74,1.49-5.51.31-.44,7.62-6.64,8.08-6.92,2.04-1.25,10.81-.5,13.99-2.51Z"/>
  <path class="st246" d="M29.93,579.49c.07,4.59-3.13,3.78-5.53,5.98-11.49,10.54-23.96,15.74-36.23,24.77-1.51,1.11-3.14,4.01-3.84,4.18-1.68.42-8.7-4.49-10.4-5.93-.82-.69-2.23-.78-2-1.99,10.39-.25,14.94-1.3,23.02-7.48,1.62-1.24,2.31-3.43,3.31-4.19,6.37-4.85,15.26-7.6,17.46-17.13.49-2.11-.97-3.98.2-5.21,4.86,2.28,9.26,4.52,14,7Z"/>
  <path class="st203" d="M38.93,581.49c3.47-1.48,9.53-.22,10,4,3.1-.99,7.27-.59,8,3-1.66,1.09-3.16,2.8-5,4,.08-2.41-1.33-2.62-3-3.5-3.63-1.9-7.34-3.52-11-5.5-.34-.18-.62-.79-1-1,.13-.96,1.2-1.06,2-1Z"/>
  <path class="st97" d="M201.93,468.49l-5.99,10.51c-6.36,3.15-8.11,9.76-13.35,14.22-.57.49-2.24.06-2.51.36-.53.59.18,6.84-1.31,7.75-.85.52-3.32,0-4.92.59-1.01.37-1.55,1.41-1.91,1.56-4.3,1.83-11.11,3.66-14,8-1.54,2.31-2.05,5.45-1,7.99l-13-6.99.98-.5c-.6-.26-.71-1.3-.98-1.5,5.29.13,8.01-5.57,11.5-8,7.39-5.12,15.37-8.72,22-14.01,5.71-4.56,10.81-6.12,14.81-10.62,3.06-3.45,6.22-6.78,9.68-9.37Z"/>
  <path class="st5" d="M2.93,566.49c1.72.16,2.04.71,3,1-3.42-.25-1.48.58-.81,2.31,3.51,9.11,3.46,10.07-4.69,16.69-2.22,1.8-15.62,11.33-17.21,11.79-2.77.81-6.61-.11-9.71.29-2.82.36-5.48,2.39-8.58,1.92.72-2.68-.33-4.03,2.49-6.04s7.47.96,11.24-1.69c2.5-1.76,1.76-3.24,2.96-4.33,3.88-3.54,10.26-6.13,13.76-11.97,2.72-4.53,1.01-10.58,7.55-9.97Z"/>
  <path class="st291" d="M24.93,327.49c1.22.6,6.21,1.38,5.49,3.02-2.67-.62-7.23-1.74-9.49-3.02-.71-.4-1.39-1.39-2-2v-1c2.02.95,4,2.01,6,3Z"/>
  <path class="st209" d="M131.93,537.49c-3.36,2.28-6.62,4.74-10,7-5.95,2.01-11.69,4.63-17.21,7.85l-4.79.15c-1.94-.73-3.39-2.32-5-3,4.54-1.32,8.82-3.7,13.17-5.33,6.49-2.43,12.46-4.83,19.11-6.89,2.98-.92,3-5.53,4.72.22Z"/>
  <path class="st271" d="M61.93,318.49c1.81-.63,2.48-.29,2,1-13.23,6.58-22.41,14.35-34,23-.96.72-1.52,1.64-2,2,.58,1.16-.09,1.5-2,1-1.52,1.15-3.62,1.96-5,3-2.9-3.72,8.17-5.12,6-9,4.21-3,8.39-7.13,13-10,1.59-.99,3.38-2.07,5-3,4.94-2.83,11.63-6.21,17-8Z"/>
  <path class="st320" d="M92.93,338.49l-2.51,9.94c-2.93,3.2-7.03,2.19-9.46,3.59-1.43.83-3.66,6.18-5,8-1.1,1.49-6.18,3.68-4.57,6.52.76,1.33,6.09,1.67,3.54,2.95-1.27-.54-3.92-1.71-5-2-9.33-2.51-11.75,7.98-20,3,14.2-10.49,28.74-21.36,43-32Z"/>
  <path class="st2" d="M92.93,376.49c.39.24.69.66,1,1-.27.85-.61.84-1,0-2.27-.67-6.74-2.77-8-3l2-1c1.91.88,4.26,1.92,6,3Z"/>
  <path class="st173" d="M11.93,522.49l1.03,2.46c-8.74,10.37-18.07,20.29-28.01,29.77l-3.02-.23c-2.87-1.34-5.63-3.53-9-4-.41-.53-.61-1.63-1-2,1.82-5.35,4.15-7.35,7-6,2.38-2.87,5.51-5.2,9.36-6.99,2.49-3.14,5.03-4.81,7.64-5.01,4.99-4.35,10.33-7.02,16-8Z"/>
  <path class="st16" d="M-2.07,514.49c6.98-1.47.42,13.66-4.9,11.96-4.25,5.77-8.95,11.11-14.1,16.04-3.89,1.58-3.46,3.95-7,6-.28-.27-2.06.55-2-.5,5.15-3.28,2.76-8.63,3-12.5.3-4.79,4.42-5.14,6.67-7.34.96-.94,1.5-2.98,2.33-3.66,3.86-3.18,11.47-7.81,16-10Z"/>
  <path class="st259" d="M100.93,443.49c-11.02,8.53-21.52,17.9-33,26-3.18,2.24-5.82,3.05-9,6-2.75-2.22,1.86-4.36,2.65-5.35,2.52-3.15.71-3.89,6.37-6.13,12.18-4.83,11.01-5.5,18.54-15.46,2.38-3.15,6.16-4.15,7.44-8.06.31.1.71-.1,1,0,1.72.61,4.04,2.38,6,3Z"/>
  <path class="st150" d="M15.93,520.49c2.38.99,4.24,2.25,6,3,1.84,2.23.14,2.11-1.31,3.19-5.32,3.93-14.04,10.45-18.34,15.17-2.47,2.72-1.98,5.81-3.29,7.96-1.11,1.82-8.16,4.12-9.06,7.69-3.45-.96-4.81-1.52-8-3,6.05-4.24,10.5-10.53,15.67-15.88s11.41-9.39,14.33-16.12c-2.55-2.84,1.37-3.02,4-2Z"/>
  <path class="st253" d="M138.93,348.49v2.98c-3.98.58-5.61,5.06-8.11,7.41-7.74,7.27-17.67,14.33-26,21.09-1.53,1.96,2.63,3.49-3.89,1.52,2.06-.51-1.17-1.9-.93-3.37.44-2.65,6.43-4.05,8.47-5.59,1.62-1.22,6.73-6.27,8.68-8.06,6.12-5.64,10.8-12.23,16.78-17.97,1.74.68,3.27,1.25,5,2Z"/>
  <path class="st114" d="M93.93,377.49c1.33.35,2.65.78,4,1.01.24.89-.96.9-1,.99-1.41.84-3.79-1-4-1v-1c.31.09.69-.08,1,0Z"/>
  <path class="st189" d="M157.93,386.49c.77,1.25,1.34,2.35,3,2-1.68.95-4.81,3.94-7,5-2.75.86-5.82,2.76-8.78,3.71-9.54,3.06-20.39,3.98-28.73,10.29l-2.48-1.01c-1.39-2.84-.25-3.37,2-5,8.85.27,32.2-7.62,39.98-12.57,1.13-.72,1.64-2.18,2.02-2.43Z"/>
  <path class="st256" d="M27.93,344.49l4,3.99-6-2.99c.73-.55,1.63-.72,2-1Z"/>
  <path class="st212" d="M116.93,318.49c0-.07-.92-.5-1.01-.98,9.22-1.72,18.66-.82,28.01-1.01l-3.99.99c-7.69-.79-15.35,1-23,1Z"/>
  <path class="st265" d="M153.93,355.49c-.92-.53-1.93-.95-3-1v-1c.39.01,1.39-.78,2-1l1,3Z"/>
  <path class="st321" d="M167.93,394.49c-8.5,5.53-17.98,11.86-26,18-.83-9.75-6.67-2.5-12-7,3.01-1.17,6.98-1.3,10-2.5,4.79-1.91,12.1-7.05,16.74-8.44,2.14-.64,8.85-.96,11.26-.06Z"/>
  <path class="st273" d="M65.93,318.49c-.67.33-1.33.67-2,1l-2-1c.65-.22,2.77-2.56,4,0Z"/>
  <path class="st314" d="M80.93,548.49c1.54.69,2.82,1.47,4,2-.04.29.96,1.28,3,2.96.83,4.47-16.09,22-21.19,23.5-3.4,7.86-9.98,8.69-17.81,8.54-2.7-1.14-7.33-3.8-10-4v-1l.65-1.7c11.37-3.92,20.25-7.87,26.78-18.58,4.66-3.59,8.74-6.94,12.15-11.93l2.42.22Z"/>
  <path class="st161" d="M95.93,555.49c3.44,1.82,4.1,3.49,2,5-13.78,8.95-27.17,18.94-41,28-2.75-.72-5.39-1.9-8-3,2.78-3.13,10.12-2.05,12.5-4,1.19-.98,2.25-4.44,3.98-6.02,1.44-1.32,3.59-1.65,5.02-2.98,3.98-3.69,16.11-15.1,15.58-20.43-.08-.81-3.77-.39-1.08-1.58,3.85,1.74,7.07,3.08,11,5Z"/>
  <path class="st59" d="M73.93,545.49c2.32,1.03,4.65,1.95,7,3l-7.5,9c-6.23,2.28-11.01,12.12-14.97,15.03-2.45,1.8-16.99,8.26-19.53,7.97-2.14-.24-3.27-1.36-5-2,.64-1.63,2.88-.18,4.03-.59,2.02-.72,7.38-5.84,10.64-7.36,1.66-.77,3.17,0,3.26-.13,2.87-4.87,7.13-10.12,10.42-15.57l11.65-9.35Z"/>
  <path class="st55" d="M121.93,544.49c-4.7,3.15-9.94,6-14,10-4.4,1.89-6.74,1.23-7-2-.3-.1-.71.11-1,0l15.02-7.47,6.98-.53Z"/>
  <path class="st56" d="M107.93,554.49c-.74.48-1.53.69-2,1-1.41.92-2.59,2.08-4,3-1.48.78-3.09-.16-3-2l2-4c1.65.58,5.76,2.43,7,2Z"/>
  <path class="st143" d="M98.93,556.49c1.16.48,2.58.15,3,2-1.2.78-2.79,1.21-4,2l-2-5c.71.35,2,.59,3,1Z"/>
  <path class="st277" d="M62.93,297.49c3.32.06,6.67-.05,9.99,0,1.01.95-3.36,8.68-4.98,9.49.97,1.67,4.38,1.94,4.98,3.5-3.11.57-6.4-1.67-9-2-3.74-2.28-5.11-8.43-1-11Z"/>
  <path class="st158" d="M406.6,536.65c7.71-2.65,11.42,8.23,4.36,10.45s-9.37-8.73-4.36-10.45Z"/>
  <path class="st146" d="M.93,513.49c3.28,1.24,6.93,3.7,10,5l.62,1.22c-4.9,3.9-10.11,7.5-15.62,10.78-6.06,7.33-8.61,8.6-17,12,.18-4.73,3.04-5.26,4.66-7.34,1.36-1.76,7.33-9.71,8.59-10.44,1.02-.59,2.83.14,3.59-.35.33-.22,2.67-5.82,3.34-7.22,1.18-2.47.77-1.01-1.17-2.64.36-.17.67-.71,1-1H.93Z"/>
  <path class="st144" d="M680.69,546.26c-2.42,2.09-9.05,1.88-7.74-2.26.99-3.15,12.36-1.74,7.74,2.26Z"/>
  <path class="st140" d="M264.93,542.49h-7c-.65-3.8,2.4-6.45,3.01-9.99,1.51.42,2.59,4.07,3.03,5.45.47,1.49,1.18,2.9.96,4.53Z"/>
  <path class="st68" d="M344.93,540.49c-2.48-.11-5.03.18-7.51,0-1.1-.08-3.32.56-2.47-1.49,1.94-4.71,9.72-3.8,9.99,1.48Z"/>
  <path class="st278" d="M346.93,542.49c-2.82-.08-5.68.12-8.51,0-1.22-.05-3.72.76-3.48-.99l11.99.99Z"/>
  <path class="st204" d="M470.93,542.5c.99,4.75-7.55,6.85-8.99,3.49-1.75-4.08,6.85-3.6,8.99-3.49Z"/>
  <path class="st94" d="M430.69,546.25c-2.93,2.56-9.59,1.28-7.76-3.76,2.66-.66,12.17-.1,7.76,3.76Z"/>
  <path class="st62" d="M542.93,547.49c-9.08-1.62-1.37-6.87,4-4.99.43,1.62-.67,2.77-1,3.99-.81.67-2.29.61-3,1Z"/>
  <path class="st117" d="M356.93,536.49c1.51-.87,3.49-.93,5,0,2.16.83,3.58,8.41-.24,10.27-7.91,3.84-10.67-9.68-4.76-10.27Z"/>
  <path class="st315" d="M361.93,536.49c-.57-.22-4.01-.1-5,0,.66-1.58,4.34-1.58,5,0Z"/>
  <path class="st179" d="M499.94,542.49l3.49-9.99c3.65,7.02,7.94,11.17-3.49,9.99Z"/>
  <path class="st129" d="M285.93,536.49c6.84,3.93,1.25,14.42-6,10-.11-5.31-4.01-10.59,6-10Z"/>
  <path class="st96" d="M303.93,536.49c12.55.8,2.84,18.54-5,7,1.29-6.21,1.03-4.05,5-7Z"/>
  <path class="st267" d="M716.93,546.49c-5.02-4.9,1.04-8.82,1-10,9.75-1.62,11.05,11,1.45,11.07-1.4.01-2.07-1-2.45-1.07Z"/>
  <path class="st117" d="M652.93,531.49c4.14.94,4.53,7.96-1,9-1.74.33-4.13-.22-6.01,0v-9.01c2.11.3,5.1-.43,7.01,0Z"/>
  <path class="st16" d="M15.93,520.49c-2.5-.89-3.33,1.64-4,2-5.21,2.79-10.74,5.29-16,8,1.38-1.67.98-3.56,5.35-4.15l9.65-7.85c1.63.69,3.34,1.31,5,2Z"/>
</svg>